<svg width="156" height="167" viewBox="0 0 156 167" fill="none" xmlns="http://www.w3.org/2000/svg">
<g opacity="0.25">
<path d="M5.28613 96.7942L17.5399 84.5384L51.6688 119.642L138.454 31.8826L150.717 44.1461L51.6708 142.231L5.28613 96.7942Z" fill="#BAE0BD"/>
<path d="M138.458 33.2651L149.335 44.1422L51.6671 140.862L6.6728 96.7863L17.5304 85.9287L50.2768 119.611L51.6632 121.037L53.0614 119.623L138.458 33.2651ZM138.45 30.5L51.6749 118.25L17.5499 83.15L3.8999 96.8L51.6749 143.6L152.1 44.15L138.45 30.5Z" fill="#5E9C76"/>
</g>
<path d="M5.28613 85.7942L17.5399 73.5384L51.6688 108.642L138.454 20.8826L150.717 33.1461L51.6708 131.231L5.28613 85.7942Z" fill="#BAE0BD"/>
<path d="M138.458 22.2651L149.335 33.1422L51.6671 129.862L6.6728 85.7863L17.5304 74.9287L50.2768 108.611L51.6632 110.037L53.0614 108.623L138.458 22.2651ZM138.45 19.5L51.6749 107.25L17.5499 72.15L3.8999 85.8L51.6749 132.6L152.1 33.15L138.45 19.5Z" fill="#5E9C76"/>
</svg>
