<svg width="1794" height="3094" viewBox="0 0 1794 3094" fill="none" xmlns="http://www.w3.org/2000/svg">
<path d="M1438.29 1334.88H1578.01V1294.11C1578.01 1287.42 1583.44 1282 1590.12 1282H1644.33C1651.01 1282 1656.43 1287.42 1656.43 1294.11V1334.88H1686.63C1721.68 1334.88 1750.3 1363.51 1750.3 1398.55V1631.23C1750.3 1666.28 1721.68 1694.9 1686.63 1694.9H1329.67C1294.62 1694.9 1266 1666.28 1266 1631.23V1398.55C1266 1363.51 1294.62 1334.88 1329.67 1334.88H1359.87V1294.11C1359.87 1287.42 1365.29 1282 1371.98 1282H1426.18C1432.87 1282 1438.29 1287.42 1438.29 1294.11V1334.88ZM1332.97 1469.27H1366.68V1502.99H1332.97V1469.27ZM1332.97 1578.67H1366.68V1612.38H1332.97V1578.67ZM1585.81 1578.67H1619.53V1612.38H1585.81V1578.67ZM1501.53 1578.67H1535.24V1612.38H1501.53V1578.67ZM1417.25 1578.67H1450.96V1612.38H1417.25V1578.67ZM1332.97 1523.97H1366.68V1557.69H1332.97V1523.97ZM1585.81 1523.97H1619.53V1557.69H1585.81V1523.97ZM1501.53 1523.97H1535.24V1557.69H1501.53V1523.97ZM1417.25 1523.97H1450.96V1557.69H1417.25V1523.97ZM1585.81 1469.27H1619.53V1502.99H1585.81V1469.27ZM1501.53 1469.27H1535.24V1502.99H1501.53V1469.27ZM1417.25 1469.27H1450.96V1502.99H1417.25V1469.27ZM1290.22 1417.5H1648.29C1664.21 1417.5 1664.21 1441.72 1648.29 1441.72H1290.22V1631.23C1290.22 1652.91 1308 1670.69 1329.67 1670.69H1686.63C1708.31 1670.69 1726.08 1652.91 1726.08 1631.23V1398.55C1726.08 1376.88 1708.31 1359.1 1686.63 1359.1H1656.43V1378.72C1656.43 1385.4 1651.01 1390.83 1644.33 1390.83H1590.12C1583.44 1390.83 1578.01 1385.4 1578.01 1378.72V1359.1H1438.29V1378.72C1438.29 1385.4 1432.87 1390.83 1426.18 1390.83H1371.98C1365.29 1390.83 1359.87 1385.4 1359.87 1378.72V1359.1H1329.67C1308 1359.1 1290.22 1376.88 1290.22 1398.55V1417.5ZM1414.07 1306.22H1384.09V1366.61H1414.07V1306.22ZM1632.22 1306.22H1602.23V1366.61H1632.22V1306.22Z" fill="#5B4DFF" fill-opacity="0.3"/>
<path d="M66.8104 2286.75C92.2082 2247.43 135.181 2221.63 181.193 2218.08C214.059 2215.55 247.939 2224.01 275.248 2241.57C315.201 2266.59 341 2309.56 344.931 2356.2C346.2 2372.64 344.814 2388.94 340.773 2405.13C336.732 2421.31 330.289 2436.35 321.444 2450.26C296.047 2489.58 253.58 2515.51 207.062 2518.93C190.629 2520.2 174.322 2518.81 158.14 2514.77C141.958 2510.73 126.914 2504.29 113.006 2495.44C73.686 2470.05 47.7604 2427.58 44.3348 2381.06C43.0663 2364.63 44.4524 2348.32 48.4932 2332.14C52.5339 2315.96 57.9654 2300.66 66.8104 2286.75ZM53.81 2360.33C130.545 2375.73 208.923 2391 271.371 2392.63C273.896 2382.52 275.41 2372.15 276.039 2361.03C272.879 2360.77 269.213 2360.4 266.179 2359.64C255.56 2356.99 245.824 2350.8 236.467 2340.94C186.268 2288.11 134.562 2271.44 78.3146 2290.16C77.5564 2291.05 77.3038 2292.06 76.6719 2292.44C68.0795 2305.34 62.3949 2319.5 58.6066 2334.67C55.4487 2343.01 54.4396 2351.35 53.81 2360.33ZM88.2972 2276C143.661 2262.97 194.357 2281.54 243.797 2333.1C253.913 2344.22 264.912 2349.65 276.163 2349.78C275.9 2312.11 262.995 2271.28 227.336 2231.22C212.672 2227.55 197.881 2226.55 183.092 2227.69C146.181 2231.36 111.802 2248.57 88.2972 2276ZM270.447 2250.04C262.608 2244.86 254.011 2240.56 245.162 2237.28C274.878 2275.32 285.76 2313.49 286.149 2348.51C308.522 2342.81 324.696 2318.92 324.822 2318.41C324.822 2318.41 324.948 2317.91 325.454 2318.03C315.081 2290.73 295.86 2266.59 270.447 2250.04ZM329.376 2330.29C322.299 2339.27 306.376 2355.71 286.025 2359.76C285.396 2370.88 283.756 2381.76 281.61 2392.5C299.939 2392.24 316.878 2391.1 331.667 2387.81C332.173 2387.94 332.804 2387.56 333.31 2387.68C334.824 2377.32 335.201 2367.2 333.934 2357.22C333.552 2347.99 332.033 2339.02 329.376 2330.29ZM331.796 2398.05C315.996 2401.09 298.425 2402.61 279.59 2402.74C277.696 2410.33 275.296 2417.78 272.391 2425.12C292.238 2429.54 304.883 2443.44 309.183 2449.88C310.193 2447.99 311.584 2446.72 312.594 2444.83C320.681 2431.8 326.871 2417.77 330.66 2402.6C331.038 2401.08 331.417 2399.57 331.796 2398.05ZM302.232 2458.36C301.474 2457.09 289.46 2438.51 267.842 2434.73C253.82 2467.22 235.244 2492.12 224.376 2505.53C254.966 2499.2 282.772 2482.5 302.232 2458.36ZM117.808 2486.97C143.221 2503.53 175.078 2511.48 205.795 2508.95C206.933 2508.69 207.944 2508.94 208.576 2508.57C212.873 2504.27 238.273 2475.69 256.592 2434.6C249.513 2434.98 241.423 2437.26 232.829 2441.56C227.899 2444.09 223.602 2446.24 219.305 2448.39C184.167 2466.48 157.625 2480.26 106.552 2467.51C100.99 2466.12 95.0477 2464.1 88.9796 2462.58C97.4515 2471.68 107.187 2480.02 117.808 2486.97ZM77.3456 2446.79C77.8513 2446.91 77.8513 2446.91 78.3569 2447.04C146.878 2473.82 174.053 2459.65 214.751 2438.66C219.049 2436.51 223.472 2433.85 228.275 2431.83C240.535 2425.76 251.28 2423.61 260.887 2423.86C263.666 2417.03 265.94 2410.08 267.834 2402.49C205.387 2400.86 128.02 2385.84 52.8015 2370.82C53.0552 2374.11 52.8033 2377.27 53.1832 2380.05C55.718 2404.32 63.9409 2427.32 77.3456 2446.79Z" fill="#FF4D9C" fill-opacity="0.2"/>
<path d="M766.362 2904.66C765.062 2870.53 779.927 2837.11 805.929 2815.71C824.501 2800.42 848.288 2791.28 871.962 2790.34C906.313 2788.54 939.731 2803.41 961.622 2829.63C969.264 2838.92 975.268 2849.24 979.634 2860.6C983.999 2871.96 986.453 2883.65 986.995 2895.66C988.295 2929.8 973.786 2963.08 947.429 2984.61C938.143 2992.26 927.819 2998.26 916.459 3002.62C905.098 3006.99 893.411 3009.44 881.396 3009.99C847.263 3011.29 813.982 2996.78 792.446 2970.42C784.804 2961.13 778.799 2950.81 774.434 2939.45C770.069 2928.09 766.905 2916.67 766.362 2904.66ZM789.42 2954.06C841.718 2931.12 894.944 2907.4 932.934 2882.21C930.206 2875.11 926.768 2868.28 922.483 2861.37C920.489 2862.55 918.14 2863.86 916.01 2864.68C908.555 2867.54 900.145 2867.92 890.424 2865.95C838.301 2855.42 800.424 2867.12 774.664 2901.88C774.582 2902.72 774.855 2903.43 774.636 2903.93C774.906 2915.23 777.442 2926.07 781.534 2936.72C783.143 2943.03 786.036 2948.44 789.42 2954.06ZM774.695 2889.23C802.311 2858.25 840.379 2848.11 891.519 2858.2C902.222 2860.6 911.07 2859.24 917.843 2854.6C901.903 2832.21 877.088 2813.22 839 2804.22C828.704 2808.18 819.446 2813.78 811.088 2820.65C790.576 2838.31 777.243 2862.99 774.695 2889.23ZM872.642 2797.41C865.789 2797.6 858.853 2798.63 852.189 2800.38C885.882 2810.66 908.376 2828.9 923.278 2849.66C934.259 2836.88 933.911 2815.83 933.774 2815.48C933.774 2815.48 933.638 2815.12 933.993 2814.99C916.357 2803.02 894.76 2796.65 872.642 2797.41ZM941.473 2820.67C941.006 2829 938.38 2845.49 927.918 2856.43C932.203 2863.34 935.778 2870.53 938.998 2877.84C949.84 2870.01 959.482 2862.23 966.939 2854.07C967.294 2853.93 967.512 2853.44 967.867 2853.31C964.429 2846.48 960.417 2840.28 955.476 2834.84C951.382 2829.49 946.714 2824.76 941.473 2820.67ZM971.306 2860.13C963.139 2868.57 953.279 2876.84 942.081 2884.81C944.127 2890.13 945.818 2895.6 947.155 2901.19C960.864 2895.52 974.243 2898.53 979.512 2900.58C979.321 2899.02 979.622 2897.68 979.432 2896.12C978.807 2884.96 976.626 2873.98 972.533 2863.33C972.124 2862.26 971.715 2861.2 971.306 2860.13ZM978.909 2908.55C977.926 2908.11 962.964 2902.04 948.463 2908.84C953.698 2934.13 953.035 2956.79 952.158 2969.35C967.782 2952.75 977.4 2931.13 978.909 2908.55ZM880.715 3002.91C902.833 3002.16 925.199 2993.56 942.488 2979.18C943.062 2978.55 943.772 2978.28 943.991 2977.79C944.757 2973.42 947.96 2945.7 941.69 2913.48C937.62 2916.67 933.741 2921.42 930.408 2927.59C928.523 2931.17 926.856 2934.25 925.19 2937.34C911.775 2962.87 901.693 2982.22 865.836 2996C861.931 2997.5 857.534 2998.78 853.274 3000.42C862.148 3002.31 871.459 3003.21 880.715 3002.91ZM839.704 2995.86C840.06 2995.72 840.06 2995.72 840.415 2995.58C892.572 2982.88 902.873 2963.03 918.392 2933.43C920.058 2930.35 921.588 2926.91 923.61 2923.69C928.391 2914.92 933.909 2909.14 939.754 2905.26C938.554 2900.02 936.999 2894.91 934.953 2889.58C896.963 2914.78 844.446 2938.22 793.214 2960.75C794.742 2962.61 795.916 2964.6 797.308 2966.11C808.991 2979.55 823.541 2989.84 839.704 2995.86Z" fill="#FF4D9C" fill-opacity="0.2"/>
<path d="M1739.4 2801.39C1736.68 2730.45 1700.59 2663.55 1643.31 2623.32C1602.4 2594.59 1551.66 2579.41 1502.45 2581.2C1430.98 2582.93 1364.08 2619.03 1322.87 2676.83C1308.5 2697.29 1297.69 2719.63 1290.45 2743.87C1283.2 2768.1 1279.97 2792.71 1280.75 2817.7C1283.46 2888.64 1318.8 2955.31 1376.83 2995.76C1397.29 3010.13 1419.63 3020.94 1443.87 3028.18C1468.1 3035.43 1492.71 3038.66 1517.7 3037.88C1588.64 3035.17 1655.31 2999.83 1695.76 2941.8C1710.13 2921.34 1720.94 2899 1728.18 2874.76C1735.43 2850.53 1740.18 2826.37 1739.4 2801.39ZM1699.44 2907.42C1587.43 2868.15 1473.37 2827.44 1390.65 2781.26C1395.18 2766.11 1401.22 2751.42 1409.01 2736.42C1413.32 2738.53 1418.4 2740.88 1422.94 2742.23C1438.85 2746.99 1456.34 2746.45 1476.17 2740.82C1582.52 2710.75 1662.86 2729 1721.75 2796.94C1722.06 2798.68 1721.6 2800.19 1722.14 2801.18C1723.37 2824.65 1719.83 2847.51 1713.04 2870.23C1710.7 2883.56 1705.56 2895.23 1699.44 2907.42ZM1719.69 2770.74C1657.55 2710.91 1577.05 2695.91 1472.67 2724.93C1450.87 2731.61 1432.32 2730.19 1417.55 2721.65C1447.03 2672.71 1495.45 2629.43 1572.96 2604.76C1594.92 2611.33 1614.99 2621.45 1633.4 2634.38C1678.71 2667.73 1710.25 2716.77 1719.69 2770.74ZM1502.16 2595.96C1516.39 2595.27 1530.93 2596.32 1545.02 2598.88C1476.82 2625.51 1433.1 2666.89 1405.5 2712.27C1380.72 2687.53 1378.11 2643.85 1378.34 2643.09C1378.34 2643.09 1378.56 2642.33 1377.81 2642.11C1412.46 2614.52 1456.2 2597.9 1502.16 2595.96ZM1363.2 2655.07C1365.49 2672.25 1373.55 2706.01 1396.96 2727.04C1389.18 2742.04 1382.91 2757.49 1377.39 2773.17C1353.68 2758.65 1332.47 2744.06 1315.72 2728.32C1314.96 2728.1 1314.43 2727.11 1313.68 2726.89C1319.72 2712.19 1327.05 2698.71 1336.43 2686.66C1344.07 2674.92 1352.99 2664.39 1363.2 2655.07ZM1307.63 2741.58C1325.89 2757.77 1347.64 2773.34 1372.11 2788.09C1368.71 2799.45 1366.07 2811.03 1364.19 2822.85C1334.88 2813.26 1307.63 2821.61 1297.03 2826.69C1297.18 2823.43 1296.35 2820.71 1296.49 2817.45C1296.02 2794.21 1298.8 2771.12 1305.59 2748.4C1306.27 2746.12 1306.95 2743.85 1307.63 2741.58ZM1299.55 2843.12C1301.51 2842.06 1331.56 2827.11 1362.69 2838.9C1355.84 2892.13 1360.81 2938.99 1364.62 2964.88C1329.61 2932.96 1306.25 2889.67 1299.55 2843.12ZM1517.98 3023.12C1472.03 3025.05 1424.32 3010.79 1386.21 2983.71C1384.92 2982.5 1383.41 2982.05 1382.88 2981.07C1380.6 2972.14 1369.57 2915.21 1377.46 2847.44C1386.4 2853.41 1395.19 2862.64 1403.07 2874.9C1407.55 2882.01 1411.49 2888.14 1415.43 2894.27C1447.28 2945.05 1471.24 2983.56 1547.72 3006.44C1556.06 3008.93 1565.37 3010.89 1574.46 3013.6C1556.37 3018.92 1537.21 3022.27 1517.98 3023.12ZM1601.86 3002C1601.1 3001.77 1601.1 3001.77 1600.34 3001.54C1490.24 2983.47 1465.75 2943.97 1428.9 2885.1C1424.96 2878.97 1421.24 2872.08 1416.54 2865.73C1405.25 2848.32 1392.89 2837.2 1380.17 2830.1C1381.82 2819.04 1384.24 2808.21 1387.63 2796.85C1470.35 2843.04 1582.9 2883.3 1692.64 2921.89C1689.77 2925.98 1687.65 2930.3 1685 2933.63C1662.92 2963.33 1634.4 2986.98 1601.86 3002Z" fill="#5B4DFF" fill-opacity="0.2"/>
<path d="M759.19 1247.07L842.553 1224.9L836.082 1200.56C835.02 1196.57 837.397 1192.48 841.384 1191.42L873.728 1182.81C877.715 1181.75 881.809 1184.13 882.871 1188.12L889.342 1212.46L907.363 1207.66C928.271 1202.1 949.893 1214.65 955.456 1235.56L992.387 1374.44C997.949 1395.35 985.413 1416.98 964.505 1422.54L751.523 1479.18C730.614 1484.74 708.992 1472.19 703.43 1451.28L666.499 1312.4C660.936 1291.49 673.472 1269.86 694.381 1264.3L712.401 1259.51L705.93 1235.18C704.868 1231.18 707.242 1227.09 711.232 1226.03L743.572 1217.43C747.563 1216.37 751.657 1218.74 752.719 1222.73L759.19 1247.07ZM717.678 1343.99L737.795 1338.64L743.147 1358.76L723.029 1364.11L717.678 1343.99ZM735.042 1409.28L755.159 1403.93L760.509 1424.05L740.392 1429.4L735.042 1409.28ZM885.9 1369.16L906.017 1363.81L911.368 1383.93L891.251 1389.28L885.9 1369.16ZM835.613 1382.53L855.73 1377.19L861.081 1397.3L840.963 1402.65L835.613 1382.53ZM785.329 1395.91L805.443 1390.56L810.793 1410.68L790.68 1416.03L785.329 1395.91ZM726.36 1376.63L746.477 1371.28L751.828 1391.41L731.711 1396.76L726.36 1376.63ZM877.218 1336.52L897.335 1331.17L902.687 1351.29L882.57 1356.64L877.218 1336.52ZM826.931 1349.89L847.048 1344.54L852.4 1364.66L832.283 1370.01L826.931 1349.89ZM776.647 1363.26L796.761 1357.91L802.112 1378.03L781.999 1383.38L776.647 1363.26ZM868.537 1303.87L888.654 1298.52L894.005 1318.64L873.888 1323.99L868.537 1303.87ZM818.249 1317.24L838.366 1311.89L843.718 1332.01L823.601 1337.36L818.249 1317.24ZM767.965 1330.61L788.079 1325.26L793.43 1345.39L773.317 1350.74L767.965 1330.61ZM683.956 1319.87L897.597 1263.06C907.099 1260.53 910.942 1274.99 901.44 1277.51L687.799 1334.33L717.878 1447.44C721.318 1460.37 734.748 1468.16 747.679 1464.72L960.661 1408.08C973.592 1404.65 981.378 1391.21 977.938 1378.28L941.007 1239.4C937.567 1226.47 924.137 1218.68 911.206 1222.12L893.186 1226.91L896.3 1238.62C897.36 1242.61 894.988 1246.71 891.001 1247.77L858.657 1256.37C854.67 1257.43 850.572 1255.05 849.511 1251.06L846.397 1239.35L763.034 1261.52L766.148 1273.23C767.208 1277.22 764.836 1281.32 760.845 1282.38L728.505 1290.98C724.515 1292.04 720.42 1289.66 719.359 1285.67L716.245 1273.96L698.224 1278.76C685.293 1282.19 677.507 1295.63 680.947 1308.56L683.956 1319.87ZM740.192 1233.8L722.3 1238.56L731.886 1274.6L749.777 1269.85L740.192 1233.8ZM870.347 1199.19L852.452 1203.95L862.038 1239.99L879.933 1235.23L870.347 1199.19Z" fill="#FF4D9C" fill-opacity="0.2"/>
<path d="M885.769 119.789C804.996 90.5217 731.635 124.863 703.341 202.949C665.292 307.962 714.9 473.675 731.21 508.522C732.068 510.357 734.273 512.678 736.965 513.654C739.658 514.63 742.838 514.259 745.16 512.054C763.988 502.122 928.544 409.44 968.545 299.042C1003.06 207.981 951.733 143.69 885.769 119.789ZM746.234 488.074C728.442 440.505 691.338 299.123 723.534 210.266C748.413 141.604 808.448 114.619 878.451 139.983C929.607 158.519 979.455 210.088 949.698 292.213C920.917 371.646 812.864 451.294 746.234 488.074ZM856.129 197.387C826.512 186.656 793.5 202.109 782.768 231.728C772.036 261.347 787.487 294.361 817.104 305.092C846.72 315.823 879.733 300.37 890.465 270.751C901.197 241.132 885.746 208.118 856.129 197.387ZM824.421 284.897C805.574 278.069 796.132 257.894 802.961 239.045C809.79 220.197 829.965 210.753 848.812 217.582C867.659 224.411 877.101 244.586 870.272 263.434C863.442 282.283 843.268 291.726 824.421 284.897Z" fill="#FF4D9C" fill-opacity="0.2"/>
<path d="M89.1677 45.3187C36.1169 73.3378 19.4306 127.387 46.5178 178.673C82.9453 247.645 191.907 299.794 217.58 307.722C218.931 308.139 221.167 308.089 222.935 307.155C224.703 306.221 226.005 304.403 225.955 302.167C229.659 287.771 258.997 159.186 220.701 86.6774C189.828 26.0816 132.492 22.4365 89.1677 45.3187ZM214.062 290.354C181.116 277.22 90.6038 230.029 59.7804 171.669C35.9624 126.572 50.1957 82.8656 96.173 58.5824C129.772 40.837 179.834 39.2761 208.323 93.2152C235.877 145.386 226.327 238.64 214.062 290.354ZM115.371 97.072C95.9187 107.346 88.4099 131.668 98.6843 151.121C108.959 170.575 133.28 178.085 152.732 167.812C172.184 157.538 179.693 133.216 169.419 113.762C159.144 94.3091 134.823 86.7983 115.371 97.072ZM145.727 154.548C133.348 161.086 118.485 156.496 111.947 144.116C105.409 131.737 109.997 116.873 122.376 110.336C134.754 103.798 149.618 108.388 156.156 120.767C162.694 133.147 158.105 148.01 145.727 154.548Z" fill="#5B4DFF" fill-opacity="0.2"/>
</svg>
