<svg width="1532" height="3056" viewBox="0 0 1532 3056" fill="none" xmlns="http://www.w3.org/2000/svg">
<path d="M1219.29 1329.88H1359.01V1289.11C1359.01 1282.42 1364.44 1277 1371.12 1277H1425.33C1432.01 1277 1437.43 1282.42 1437.43 1289.11V1329.88H1467.63C1502.68 1329.88 1531.3 1358.51 1531.3 1393.55V1626.23C1531.3 1661.28 1502.68 1689.9 1467.63 1689.9H1110.67C1075.62 1689.9 1047 1661.28 1047 1626.23V1393.55C1047 1358.51 1075.62 1329.88 1110.67 1329.88H1140.87V1289.11C1140.87 1282.42 1146.29 1277 1152.98 1277H1207.18C1213.87 1277 1219.29 1282.42 1219.29 1289.11V1329.88ZM1113.97 1464.27H1147.68V1497.99H1113.97V1464.27ZM1113.97 1573.67H1147.68V1607.38H1113.97V1573.67ZM1366.81 1573.67H1400.53V1607.38H1366.81V1573.67ZM1282.53 1573.67H1316.24V1607.38H1282.53V1573.67ZM1198.25 1573.67H1231.96V1607.38H1198.25V1573.67ZM1113.97 1518.97H1147.68V1552.69H1113.97V1518.97ZM1366.81 1518.97H1400.53V1552.69H1366.81V1518.97ZM1282.53 1518.97H1316.24V1552.69H1282.53V1518.97ZM1198.25 1518.97H1231.96V1552.69H1198.25V1518.97ZM1366.81 1464.27H1400.53V1497.99H1366.81V1464.27ZM1282.53 1464.27H1316.24V1497.99H1282.53V1464.27ZM1198.25 1464.27H1231.96V1497.99H1198.25V1464.27ZM1071.22 1412.5H1429.29C1445.21 1412.5 1445.21 1436.72 1429.29 1436.72H1071.22V1626.23C1071.22 1647.91 1089 1665.69 1110.67 1665.69H1467.63C1489.31 1665.69 1507.08 1647.91 1507.08 1626.23V1393.55C1507.08 1371.88 1489.31 1354.1 1467.63 1354.1H1437.43V1373.72C1437.43 1380.4 1432.01 1385.83 1425.33 1385.83H1371.12C1364.44 1385.83 1359.01 1380.4 1359.01 1373.72V1354.1H1219.29V1373.72C1219.29 1380.4 1213.87 1385.83 1207.18 1385.83H1152.98C1146.29 1385.83 1140.87 1380.4 1140.87 1373.72V1354.1H1110.67C1089 1354.1 1071.22 1371.88 1071.22 1393.55V1412.5ZM1195.07 1301.22H1165.09V1361.61H1195.07V1301.22ZM1413.22 1301.22H1383.23V1361.61H1413.22V1301.22Z" fill="#5B4DFF" fill-opacity="0.3"/>
<path d="M66.8104 2286.75C92.2082 2247.43 135.181 2221.63 181.193 2218.08C214.059 2215.55 247.939 2224.01 275.248 2241.57C315.201 2266.59 341 2309.56 344.931 2356.2C346.2 2372.64 344.814 2388.94 340.773 2405.13C336.732 2421.31 330.289 2436.35 321.444 2450.26C296.047 2489.58 253.58 2515.51 207.062 2518.93C190.629 2520.2 174.322 2518.81 158.14 2514.77C141.958 2510.73 126.914 2504.29 113.006 2495.44C73.686 2470.05 47.7604 2427.58 44.3348 2381.06C43.0663 2364.63 44.4524 2348.32 48.4932 2332.14C52.5339 2315.96 57.9654 2300.66 66.8104 2286.75ZM53.81 2360.33C130.545 2375.73 208.923 2391 271.371 2392.63C273.896 2382.52 275.41 2372.15 276.039 2361.03C272.879 2360.77 269.213 2360.4 266.179 2359.64C255.56 2356.99 245.824 2350.8 236.467 2340.94C186.268 2288.11 134.562 2271.44 78.3146 2290.16C77.5564 2291.05 77.3038 2292.06 76.6719 2292.44C68.0795 2305.34 62.3949 2319.5 58.6066 2334.67C55.4487 2343.01 54.4396 2351.35 53.81 2360.33ZM88.2972 2276C143.661 2262.97 194.357 2281.54 243.797 2333.1C253.913 2344.22 264.912 2349.65 276.163 2349.78C275.9 2312.11 262.995 2271.28 227.336 2231.22C212.672 2227.55 197.881 2226.55 183.092 2227.69C146.181 2231.36 111.802 2248.57 88.2972 2276ZM270.447 2250.04C262.608 2244.86 254.011 2240.56 245.162 2237.28C274.878 2275.32 285.76 2313.49 286.149 2348.51C308.522 2342.81 324.696 2318.92 324.822 2318.41C324.822 2318.41 324.948 2317.91 325.454 2318.03C315.081 2290.73 295.86 2266.59 270.447 2250.04ZM329.376 2330.29C322.299 2339.27 306.376 2355.71 286.025 2359.76C285.396 2370.88 283.756 2381.76 281.61 2392.5C299.939 2392.24 316.878 2391.1 331.667 2387.81C332.173 2387.94 332.804 2387.56 333.31 2387.68C334.824 2377.32 335.201 2367.2 333.934 2357.22C333.552 2347.99 332.033 2339.02 329.376 2330.29ZM331.796 2398.05C315.996 2401.09 298.425 2402.61 279.59 2402.74C277.696 2410.33 275.296 2417.78 272.391 2425.12C292.238 2429.54 304.883 2443.44 309.183 2449.88C310.193 2447.99 311.584 2446.72 312.594 2444.83C320.681 2431.8 326.871 2417.77 330.66 2402.6C331.038 2401.08 331.417 2399.57 331.796 2398.05ZM302.232 2458.36C301.474 2457.09 289.46 2438.51 267.842 2434.73C253.82 2467.22 235.244 2492.12 224.376 2505.53C254.966 2499.2 282.772 2482.5 302.232 2458.36ZM117.808 2486.97C143.221 2503.53 175.078 2511.48 205.795 2508.95C206.933 2508.69 207.944 2508.94 208.576 2508.57C212.873 2504.27 238.273 2475.69 256.592 2434.6C249.513 2434.98 241.423 2437.26 232.829 2441.56C227.899 2444.09 223.602 2446.24 219.305 2448.39C184.167 2466.48 157.625 2480.26 106.552 2467.51C100.99 2466.12 95.0477 2464.1 88.9796 2462.58C97.4515 2471.68 107.187 2480.02 117.808 2486.97ZM77.3456 2446.79C77.8513 2446.91 77.8513 2446.91 78.3569 2447.04C146.878 2473.82 174.053 2459.65 214.751 2438.66C219.049 2436.51 223.472 2433.85 228.275 2431.83C240.535 2425.76 251.28 2423.61 260.887 2423.86C263.666 2417.03 265.94 2410.08 267.834 2402.49C205.387 2400.86 128.02 2385.84 52.8015 2370.82C53.0552 2374.11 52.8033 2377.27 53.1832 2380.05C55.718 2404.32 63.9409 2427.32 77.3456 2446.79Z" fill="#FF4D9C" fill-opacity="0.2"/>
<path d="M424.353 2879.66C423.053 2845.53 437.918 2812.11 463.92 2790.71C482.492 2775.42 506.278 2766.28 529.953 2765.34C564.304 2763.54 597.721 2778.41 619.612 2804.63C627.255 2813.92 633.259 2824.24 637.625 2835.6C641.99 2846.96 644.444 2858.65 644.986 2870.66C646.286 2904.8 631.776 2938.08 605.42 2959.61C596.133 2967.26 585.81 2973.26 574.449 2977.62C563.089 2981.99 551.401 2984.44 539.387 2984.99C505.254 2986.29 471.973 2971.78 450.437 2945.42C442.794 2936.13 436.79 2925.81 432.425 2914.45C428.059 2903.09 424.896 2891.67 424.353 2879.66ZM447.411 2929.06C499.709 2906.11 552.935 2882.4 590.925 2857.21C588.197 2850.11 584.758 2843.28 580.473 2836.37C578.48 2837.55 576.131 2838.86 574.001 2839.68C566.546 2842.54 558.135 2842.92 548.415 2840.95C496.292 2830.42 458.415 2842.12 432.655 2876.88C432.573 2877.72 432.846 2878.43 432.627 2878.92C432.897 2890.23 435.433 2901.07 439.525 2911.72C441.134 2918.03 444.027 2923.44 447.411 2929.06ZM432.686 2864.23C460.302 2833.25 498.369 2823.11 549.51 2833.2C560.213 2835.6 569.06 2834.24 575.834 2829.6C559.894 2807.21 535.079 2788.22 496.99 2779.22C486.695 2783.18 477.436 2788.78 469.079 2795.65C448.567 2813.31 435.234 2837.99 432.686 2864.23ZM530.633 2772.41C523.779 2772.6 516.843 2773.63 510.18 2775.38C543.872 2785.66 566.366 2803.9 581.269 2824.66C592.25 2811.88 591.901 2790.83 591.765 2790.48C591.765 2790.48 591.629 2790.12 591.984 2789.99C574.348 2778.02 552.751 2771.65 530.633 2772.41ZM599.464 2795.67C598.997 2804 596.37 2820.49 585.909 2831.43C590.194 2838.34 593.768 2845.53 596.988 2852.84C607.831 2845.01 617.472 2837.23 624.929 2829.07C625.284 2828.93 625.503 2828.44 625.858 2828.31C622.42 2821.48 618.408 2815.28 613.467 2809.84C609.373 2804.49 604.705 2799.76 599.464 2795.67ZM629.296 2835.13C621.129 2843.57 611.269 2851.84 600.072 2859.81C602.118 2865.13 603.809 2870.6 605.145 2876.19C618.855 2870.52 632.233 2873.53 637.503 2875.58C637.312 2874.02 637.613 2872.68 637.422 2871.12C636.798 2859.96 634.617 2848.98 630.524 2838.33C630.115 2837.26 629.706 2836.2 629.296 2835.13ZM636.9 2883.55C635.917 2883.11 620.955 2877.04 606.454 2883.84C611.688 2909.13 611.026 2931.79 610.148 2944.35C625.772 2927.75 635.391 2906.13 636.9 2883.55ZM538.706 2977.91C560.824 2977.16 583.19 2968.56 600.479 2954.18C601.053 2953.55 601.763 2953.28 601.981 2952.78C602.747 2948.42 605.951 2920.7 599.68 2888.48C595.611 2891.67 591.732 2896.42 588.399 2902.59C586.514 2906.17 584.847 2909.25 583.18 2912.34C569.765 2937.87 559.683 2957.22 523.827 2971C519.922 2972.5 515.525 2973.78 511.265 2975.42C520.138 2977.31 529.449 2978.21 538.706 2977.91ZM497.695 2970.86C498.05 2970.72 498.05 2970.72 498.405 2970.58C550.563 2957.88 560.864 2938.03 576.382 2908.43C578.049 2905.35 579.579 2901.91 581.601 2898.69C586.382 2889.92 591.9 2884.14 597.744 2880.26C596.544 2875.02 594.99 2869.91 592.943 2864.58C554.953 2889.78 502.437 2913.22 451.205 2935.75C452.733 2937.61 453.907 2939.6 455.299 2941.11C466.981 2954.55 481.532 2964.84 497.695 2970.86Z" fill="#FF4D9C" fill-opacity="0.2"/>
<path d="M1430.4 2763.39C1427.68 2692.45 1391.59 2625.55 1334.31 2585.32C1293.4 2556.59 1242.66 2541.41 1193.45 2543.2C1121.98 2544.93 1055.08 2581.03 1013.87 2638.83C999.502 2659.29 988.695 2681.63 981.448 2705.87C974.201 2730.1 970.968 2754.71 971.747 2779.7C974.46 2850.64 1009.8 2917.31 1067.83 2957.76C1088.29 2972.13 1110.63 2982.94 1134.87 2990.18C1159.1 2997.43 1183.71 3000.66 1208.7 2999.88C1279.64 2997.17 1346.31 2961.83 1386.76 2903.8C1401.13 2883.34 1411.94 2861 1419.18 2836.76C1426.43 2812.53 1431.18 2788.37 1430.4 2763.39ZM1390.44 2869.42C1278.43 2830.15 1164.37 2789.44 1081.65 2743.26C1086.18 2728.11 1092.22 2713.42 1100.01 2698.42C1104.32 2700.53 1109.4 2702.88 1113.94 2704.23C1129.85 2708.99 1147.34 2708.45 1167.17 2702.82C1273.52 2672.75 1353.86 2691 1412.75 2758.94C1413.06 2760.68 1412.6 2762.19 1413.14 2763.18C1414.37 2786.65 1410.83 2809.51 1404.04 2832.23C1401.7 2845.56 1396.56 2857.23 1390.44 2869.42ZM1410.69 2732.74C1348.55 2672.91 1268.05 2657.91 1163.67 2686.93C1141.87 2693.61 1123.32 2692.19 1108.55 2683.65C1138.03 2634.71 1186.45 2591.43 1263.96 2566.76C1285.92 2573.33 1305.99 2583.45 1324.4 2596.38C1369.71 2629.73 1401.25 2678.77 1410.69 2732.74ZM1193.16 2557.96C1207.39 2557.27 1221.93 2558.32 1236.02 2560.88C1167.82 2587.51 1124.1 2628.89 1096.5 2674.27C1071.72 2649.53 1069.11 2605.85 1069.34 2605.09C1069.34 2605.09 1069.56 2604.33 1068.81 2604.11C1103.46 2576.52 1147.2 2559.9 1193.16 2557.96ZM1054.2 2617.07C1056.49 2634.25 1064.55 2668.01 1087.96 2689.04C1080.18 2704.04 1073.91 2719.49 1068.39 2735.17C1044.68 2720.65 1023.47 2706.06 1006.72 2690.32C1005.96 2690.1 1005.43 2689.11 1004.68 2688.89C1010.72 2674.19 1018.05 2660.71 1027.43 2648.66C1035.07 2636.92 1043.99 2626.39 1054.2 2617.07ZM998.633 2703.58C1016.89 2719.77 1038.64 2735.34 1063.11 2750.09C1059.71 2761.45 1057.07 2773.03 1055.19 2784.85C1025.88 2775.26 998.628 2783.61 988.033 2788.69C988.182 2785.43 987.346 2782.71 987.495 2779.45C987.02 2756.21 989.801 2733.12 996.595 2710.4C997.274 2708.12 997.953 2705.85 998.633 2703.58ZM990.546 2805.12C992.514 2804.06 1022.56 2789.11 1053.69 2800.9C1046.84 2854.13 1051.81 2900.99 1055.62 2926.88C1020.61 2894.96 997.25 2851.67 990.546 2805.12ZM1208.98 2985.12C1163.03 2987.05 1115.32 2972.79 1077.21 2945.71C1075.92 2944.5 1074.41 2944.05 1073.88 2943.07C1071.6 2934.14 1060.57 2877.21 1068.46 2809.44C1077.4 2815.41 1086.19 2824.64 1094.07 2836.9C1098.55 2844.01 1102.49 2850.14 1106.43 2856.27C1138.28 2907.05 1162.24 2945.56 1238.72 2968.44C1247.06 2970.93 1256.37 2972.89 1265.46 2975.6C1247.37 2980.92 1228.21 2984.27 1208.98 2985.12ZM1292.86 2964C1292.1 2963.77 1292.1 2963.77 1291.34 2963.54C1181.24 2945.47 1156.75 2905.97 1119.9 2847.1C1115.96 2840.97 1112.24 2834.08 1107.54 2827.73C1096.25 2810.32 1083.89 2799.2 1071.17 2792.1C1072.82 2781.04 1075.24 2770.21 1078.63 2758.85C1161.35 2805.04 1273.9 2845.3 1383.64 2883.89C1380.77 2887.98 1378.65 2892.3 1376 2895.63C1353.92 2925.33 1325.4 2948.98 1292.86 2964Z" fill="#5B4DFF" fill-opacity="0.2"/>
<path d="M542.19 1252.07L625.553 1229.9L619.082 1205.56C618.02 1201.57 620.397 1197.48 624.384 1196.42L656.728 1187.81C660.715 1186.75 664.809 1189.13 665.871 1193.12L672.342 1217.46L690.363 1212.66C711.271 1207.1 732.893 1219.65 738.456 1240.56L775.387 1379.44C780.949 1400.35 768.413 1421.98 747.505 1427.54L534.523 1484.18C513.614 1489.74 491.992 1477.19 486.43 1456.28L449.499 1317.4C443.936 1296.49 456.472 1274.86 477.381 1269.3L495.401 1264.51L488.93 1240.18C487.868 1236.18 490.242 1232.09 494.232 1231.03L526.572 1222.43C530.563 1221.37 534.657 1223.74 535.719 1227.73L542.19 1252.07ZM500.678 1348.99L520.795 1343.64L526.147 1363.76L506.029 1369.11L500.678 1348.99ZM518.042 1414.28L538.159 1408.93L543.509 1429.05L523.392 1434.4L518.042 1414.28ZM668.9 1374.16L689.017 1368.81L694.368 1388.93L674.251 1394.28L668.9 1374.16ZM618.613 1387.53L638.73 1382.19L644.081 1402.3L623.963 1407.65L618.613 1387.53ZM568.329 1400.91L588.443 1395.56L593.793 1415.68L573.68 1421.03L568.329 1400.91ZM509.36 1381.63L529.477 1376.28L534.828 1396.41L514.711 1401.76L509.36 1381.63ZM660.218 1341.52L680.335 1336.17L685.687 1356.29L665.57 1361.64L660.218 1341.52ZM609.931 1354.89L630.048 1349.54L635.4 1369.66L615.283 1375.01L609.931 1354.89ZM559.647 1368.26L579.761 1362.91L585.112 1383.03L564.999 1388.38L559.647 1368.26ZM651.537 1308.87L671.654 1303.52L677.005 1323.64L656.888 1328.99L651.537 1308.87ZM601.249 1322.24L621.366 1316.89L626.718 1337.01L606.601 1342.36L601.249 1322.24ZM550.965 1335.61L571.079 1330.26L576.43 1350.39L556.317 1355.74L550.965 1335.61ZM466.956 1324.87L680.597 1268.06C690.099 1265.53 693.942 1279.99 684.44 1282.51L470.799 1339.33L500.878 1452.44C504.318 1465.37 517.748 1473.16 530.679 1469.72L743.661 1413.08C756.592 1409.65 764.378 1396.21 760.938 1383.28L724.007 1244.4C720.567 1231.47 707.137 1223.68 694.206 1227.12L676.186 1231.91L679.3 1243.62C680.36 1247.61 677.988 1251.71 674.001 1252.77L641.657 1261.37C637.67 1262.43 633.572 1260.05 632.511 1256.06L629.397 1244.35L546.034 1266.52L549.148 1278.23C550.208 1282.22 547.836 1286.32 543.845 1287.38L511.505 1295.98C507.515 1297.04 503.42 1294.66 502.359 1290.67L499.245 1278.96L481.224 1283.76C468.293 1287.19 460.507 1300.63 463.947 1313.56L466.956 1324.87ZM523.192 1238.8L505.3 1243.56L514.886 1279.6L532.777 1274.85L523.192 1238.8ZM653.347 1204.19L635.452 1208.95L645.038 1244.99L662.933 1240.23L653.347 1204.19Z" fill="#FF4D9C" fill-opacity="0.2"/>
<path d="M885.769 119.789C804.996 90.5217 731.635 124.863 703.341 202.949C665.292 307.962 714.9 473.675 731.21 508.522C732.068 510.357 734.273 512.678 736.965 513.654C739.658 514.63 742.838 514.259 745.16 512.054C763.988 502.122 928.544 409.44 968.545 299.042C1003.06 207.981 951.733 143.69 885.769 119.789ZM746.234 488.074C728.442 440.505 691.338 299.123 723.534 210.266C748.413 141.604 808.448 114.619 878.451 139.983C929.607 158.519 979.455 210.088 949.698 292.213C920.917 371.646 812.864 451.294 746.234 488.074ZM856.129 197.387C826.512 186.656 793.5 202.109 782.768 231.728C772.036 261.347 787.487 294.361 817.104 305.092C846.72 315.823 879.733 300.37 890.465 270.751C901.197 241.132 885.746 208.118 856.129 197.387ZM824.421 284.897C805.574 278.069 796.132 257.894 802.961 239.045C809.79 220.197 829.965 210.753 848.812 217.582C867.659 224.411 877.101 244.586 870.272 263.434C863.442 282.283 843.268 291.726 824.421 284.897Z" fill="#FF4D9C" fill-opacity="0.2"/>
<path d="M89.1677 45.3187C36.1169 73.3378 19.4306 127.387 46.5178 178.673C82.9453 247.645 191.907 299.794 217.58 307.722C218.931 308.139 221.167 308.089 222.935 307.155C224.703 306.221 226.005 304.403 225.955 302.167C229.659 287.771 258.997 159.186 220.701 86.6774C189.828 26.0816 132.492 22.4365 89.1677 45.3187ZM214.062 290.354C181.116 277.22 90.6038 230.029 59.7804 171.669C35.9624 126.572 50.1957 82.8656 96.173 58.5824C129.772 40.837 179.834 39.2761 208.323 93.2152C235.877 145.386 226.327 238.64 214.062 290.354ZM115.371 97.072C95.9187 107.346 88.4099 131.668 98.6843 151.121C108.959 170.575 133.28 178.085 152.732 167.812C172.184 157.538 179.693 133.216 169.419 113.762C159.144 94.3091 134.823 86.7983 115.371 97.072ZM145.727 154.548C133.348 161.086 118.485 156.496 111.947 144.116C105.409 131.737 109.997 116.873 122.376 110.336C134.754 103.798 149.618 108.388 156.156 120.767C162.694 133.147 158.105 148.01 145.727 154.548Z" fill="#5B4DFF" fill-opacity="0.2"/>
</svg>
