<svg width="1920" height="542" viewBox="0 0 1920 542" fill="none" xmlns="http://www.w3.org/2000/svg">
<path fill-rule="evenodd" clip-rule="evenodd" d="M0 138.528L80 176.528C160 215.528 320 291.528 480 263.528C640 234.528 800 99.528 960 109.528C1120 119.528 1280 272.528 1440 349.528C1600 426.528 1760 426.528 1840 426.528H1920V541.528H1840C1760 541.528 1600 541.528 1440 541.528C1280 541.528 1120 541.528 960 541.528C800 541.528 640 541.528 480 541.528C320 541.528 160 541.528 80 541.528H0V138.528Z" fill="#7E9AFF" fill-opacity="0.75"/>
<path fill-rule="evenodd" clip-rule="evenodd" d="M0 37.0015L80 84.6192C160 133.49 320 228.726 480 193.639C640 157.299 800 -11.8693 960 0.661665C1120 13.1926 1280 204.917 1440 301.405C1600 397.894 1760 397.894 1840 397.894H1920V542H1840C1760 542 1600 542 1440 542C1280 542 1120 542 960 542C800 542 640 542 480 542C320 542 160 542 80 542H0V37.0015Z" fill="#7E9AFF" fill-opacity="0.5"/>
</svg>
