<svg width="324" height="65" viewBox="0 0 324 65" fill="none" xmlns="http://www.w3.org/2000/svg">
<path d="M10.5293 25.4805C10.5293 24.8242 10.752 24.2734 11.1973 23.8281C11.666 23.3594 12.2285 23.125 12.8848 23.125H18.2637L17.3496 20.5234C16.9746 19.5625 16.5996 18.6602 16.2246 17.8164C15.873 16.9492 15.4629 16.1641 14.9941 15.4609C14.5723 14.7578 14.0918 14.3828 13.5527 14.3359C12.9902 14.3828 12.4863 14.7578 12.041 15.4609C11.5957 16.1641 11.1855 16.9492 10.8105 17.8164C10.459 18.6602 10.0957 19.5625 9.7207 20.5234L6.38086 29.6641C6.14648 30.1562 5.8418 30.5664 5.4668 30.8945C5.11523 31.1992 4.57617 31.3516 3.84961 31.3516C3.16992 31.3516 2.60742 31.1172 2.16211 30.6484C1.74023 30.1797 1.55273 29.6172 1.59961 28.9609C1.62305 28.6562 1.69336 28.375 1.81055 28.1172L5.67773 18.1328C6.75586 15.5078 7.83398 13.3867 8.91211 11.7695C9.9668 10.1758 11.5137 9.36719 13.5527 9.34375C15.5684 9.36719 17.1035 10.1758 18.1582 11.7695C19.2363 13.3398 20.3145 15.4609 21.3926 18.1328L25.2598 28.1172C25.377 28.375 25.4473 28.6562 25.4707 28.9609C25.5176 29.6172 25.3184 30.1797 24.873 30.6484C24.4512 31.1172 23.9004 31.3516 23.2207 31.3516C22.4473 31.3516 21.873 31.1992 21.498 30.8945C21.1465 30.5664 20.8535 30.1562 20.6191 29.6641L19.9512 27.8359H12.8848C12.2285 27.8359 11.6777 27.6016 11.2324 27.1328C10.7637 26.6875 10.5293 26.1367 10.5293 25.4805ZM40.602 14.8984C39.7113 14.9453 38.9613 15.2852 38.352 15.918C37.766 16.5508 37.3441 17.2773 37.0863 18.0977C36.8285 18.8945 36.6996 19.7148 36.6996 20.5586C36.6996 21.4023 36.8168 22.2344 37.0512 23.0547C37.309 23.875 37.7426 24.6016 38.352 25.2344C38.9613 25.8438 39.7113 26.1719 40.602 26.2188H52.2035C53.6801 26.3594 54.4887 27.168 54.6293 28.6445C54.6059 29.3008 54.3598 29.8516 53.891 30.2969C53.4223 30.7188 52.8598 30.9297 52.2035 30.9297H40.9887H39.3715C37.7309 30.8359 36.3832 30.2148 35.3285 29.0664C34.2738 27.8945 33.5121 26.5703 33.0434 25.0938C32.598 23.6172 32.3754 22.1055 32.3754 20.5586C32.3754 19.4102 32.5043 18.2734 32.7621 17.1484C33.0199 16.0234 33.4184 14.957 33.9574 13.9492C34.5199 12.918 35.2582 12.0391 36.1723 11.3125C37.1098 10.5859 38.1762 10.2109 39.3715 10.1875H40.0395H52.2035C53.6801 10.3281 54.4887 11.1367 54.6293 12.6133C54.6293 13.2695 54.3832 13.8203 53.891 14.2656C53.4223 14.6875 52.8598 14.8984 52.2035 14.8984H40.602ZM60.7957 12.543C60.7957 11.8867 61.0184 11.3359 61.4637 10.8906C61.9324 10.4219 62.4949 10.1875 63.1512 10.1875H83.6121C84.2684 10.1875 84.8309 10.4102 85.2996 10.8555C85.7449 11.3242 85.9676 11.8867 85.9676 12.543C85.9676 13.1992 85.7332 13.7617 85.2645 14.2305C84.8191 14.6758 84.2684 14.8984 83.6121 14.8984H75.7723V29.1367C75.6316 30.543 74.8582 31.3047 73.452 31.4219C72.7957 31.4219 72.2215 31.2109 71.7293 30.7891C71.2605 30.3438 71.0262 29.793 71.0262 29.1367V14.8984H63.1512C62.4949 14.8984 61.9441 14.6641 61.4988 14.1953C61.0301 13.75 60.7957 13.1992 60.7957 12.543ZM92.5207 28.5742C92.5207 27.918 92.7434 27.3672 93.1887 26.9219C93.6574 26.4531 94.2199 26.2188 94.8762 26.2188H101.626V14.8984H94.8762C94.2199 14.8984 93.6691 14.6641 93.2238 14.1953C92.7551 13.75 92.5207 13.1992 92.5207 12.543C92.5207 11.8867 92.7434 11.3359 93.1887 10.8906C93.6574 10.4219 94.2199 10.1875 94.8762 10.1875H113.087C113.743 10.1875 114.306 10.4102 114.775 10.8555C115.22 11.3242 115.443 11.8867 115.443 12.543C115.443 13.1992 115.208 13.7617 114.739 14.2305C114.294 14.6758 113.743 14.8984 113.087 14.8984H106.372V26.2188H113.087C113.743 26.2188 114.306 26.4414 114.775 26.8867C115.22 27.3555 115.443 27.918 115.443 28.5742C115.443 29.2305 115.208 29.793 114.739 30.2617C114.294 30.707 113.743 30.9297 113.087 30.9297H94.8762C94.2199 30.9297 93.6691 30.6953 93.2238 30.2266C92.7551 29.7812 92.5207 29.2305 92.5207 28.5742ZM129.379 29.0664C128.3 27.4492 127.222 25.3281 126.144 22.7031L122.277 12.7188C122.16 12.4609 122.089 12.1797 122.066 11.875C122.019 11.2188 122.207 10.6563 122.629 10.1875C123.074 9.71875 123.636 9.48438 124.316 9.48438C125.043 9.48438 125.582 9.64844 125.933 9.97656C126.308 10.2812 126.613 10.6797 126.847 11.1719L130.187 20.3125C130.562 21.2734 130.925 22.1875 131.277 23.0547C131.652 23.8984 132.062 24.6719 132.507 25.375C132.953 26.0781 133.457 26.4531 134.019 26.5C134.558 26.4531 135.039 26.0781 135.461 25.375C135.929 24.6719 136.339 23.8984 136.691 23.0547C137.066 22.1875 137.441 21.2734 137.816 20.3125L141.086 11.1719C141.32 10.6797 141.613 10.2812 141.964 9.97656C142.339 9.64844 142.914 9.48438 143.687 9.48438C144.367 9.48438 144.918 9.71875 145.339 10.1875C145.785 10.6563 145.984 11.2188 145.937 11.875C145.914 12.1797 145.843 12.4609 145.726 12.7188L141.859 22.7031C140.781 25.375 139.703 27.5078 138.625 29.1016C137.57 30.6719 136.035 31.4688 134.019 31.4922C131.98 31.4688 130.433 30.6602 129.379 29.0664ZM159.697 10.1875H161.314H173.268C173.924 10.2109 174.463 10.457 174.885 10.9258C175.33 11.3945 175.553 11.957 175.553 12.6133C175.436 14.0195 174.674 14.7812 173.268 14.8984H160.893C160.002 14.9453 159.264 15.2852 158.678 15.918C158.092 16.5508 157.658 17.2773 157.377 18.0977C157.119 18.8945 156.99 19.7148 156.99 20.5586C156.99 21.4023 157.119 22.2344 157.377 23.0547C157.658 23.8516 158.092 24.5664 158.678 25.1992C159.264 25.832 160.002 26.1719 160.893 26.2188H173.268C173.924 26.2422 174.463 26.4883 174.885 26.957C175.33 27.4258 175.553 27.9883 175.553 28.6445C175.529 29.2773 175.295 29.8164 174.85 30.2617C174.428 30.6836 173.9 30.9062 173.268 30.9297H160.365H159.697C158.057 30.8359 156.697 30.2148 155.619 29.0664C154.564 27.8945 153.803 26.5703 153.334 25.0938C152.889 23.6172 152.666 22.1055 152.666 20.5586C152.666 19.0117 152.9 17.5 153.369 16.0234C153.838 14.5469 154.6 13.2344 155.654 12.0859C156.709 10.9141 158.057 10.2812 159.697 10.1875ZM175.482 20.418C175.482 21.0742 175.248 21.625 174.779 22.0703C174.334 22.5391 173.783 22.7734 173.127 22.7734H162.51C161.854 22.7734 161.291 22.5508 160.822 22.1055C160.377 21.6367 160.154 21.0742 160.154 20.418C160.154 19.7617 160.377 19.1992 160.822 18.7305C161.291 18.2852 161.854 18.0625 162.51 18.0625H173.127C173.783 18.0625 174.334 18.2969 174.779 18.7656C175.248 19.2109 175.482 19.7617 175.482 20.418ZM203.53 12.543C203.53 11.8867 203.753 11.3359 204.198 10.8906C204.667 10.4219 205.229 10.1875 205.886 10.1875H226.346C227.003 10.1875 227.565 10.4102 228.034 10.8555C228.479 11.3242 228.702 11.8867 228.702 12.543C228.702 13.1992 228.479 13.75 228.034 14.1953C227.893 14.3359 227.753 14.4531 227.612 14.5469L212.706 26.1484H226.346C227.003 26.1484 227.565 26.3711 228.034 26.8164C228.479 27.2852 228.702 27.8477 228.702 28.5039C228.702 29.1602 228.468 29.7227 227.999 30.1914C227.554 30.6367 227.003 30.8594 226.346 30.8594H205.886C205.229 30.8594 204.679 30.625 204.233 30.1562C203.764 29.7109 203.53 29.1602 203.53 28.5039C203.53 27.8945 203.729 27.3672 204.128 26.9219H204.093L204.233 26.8164C204.374 26.6758 204.526 26.5586 204.69 26.4648L219.772 14.8984H205.886C205.229 14.8984 204.679 14.6641 204.233 14.1953C203.764 13.75 203.53 13.1992 203.53 12.543ZM254.837 10.1875C256.032 10.2109 257.099 10.5859 258.036 11.3125C258.974 12.0391 259.724 12.9063 260.286 13.9141C260.872 14.9219 261.306 15.9883 261.587 17.1133C261.868 18.2383 262.009 19.3867 262.009 20.5586C262.009 22.1055 261.763 23.6289 261.271 25.1289C260.802 26.6055 260.017 27.918 258.915 29.0664C257.837 30.2148 256.478 30.8359 254.837 30.9297H242.568C240.927 30.8594 239.556 30.25 238.454 29.1016C237.353 27.9531 236.568 26.6289 236.099 25.1289C235.654 23.6289 235.431 22.1055 235.431 20.5586C235.431 19.0117 235.665 17.5 236.134 16.0234C236.603 14.5234 237.376 13.1992 238.454 12.0508C239.556 10.8789 240.927 10.2578 242.568 10.1875H243.236H254.169H254.837ZM253.642 26.2188C254.532 26.1719 255.271 25.8438 255.857 25.2344C256.466 24.6016 256.9 23.875 257.157 23.0547C257.415 22.2344 257.544 21.4023 257.544 20.5586C257.544 19.7148 257.404 18.8945 257.122 18.0977C256.864 17.2773 256.443 16.5508 255.857 15.918C255.271 15.2852 254.532 14.9453 253.642 14.8984H243.657C242.767 14.9453 242.029 15.2852 241.443 15.918C240.857 16.5508 240.423 17.2773 240.142 18.0977C239.884 18.8945 239.755 19.7148 239.755 20.5586C239.755 21.4023 239.884 22.2344 240.142 23.0547C240.4 23.875 240.821 24.6016 241.407 25.2344C242.017 25.8438 242.767 26.1719 243.657 26.2188H253.642ZM280.656 9.23828C281.875 9.23828 283.07 9.37891 284.242 9.66016C285.437 9.94141 286.574 10.3633 287.652 10.9258C288.73 11.4648 289.679 12.1914 290.5 13.1055C291.343 14.0195 291.8 15.1094 291.871 16.375V17.8516V29.0664C291.73 30.4727 290.957 31.2344 289.55 31.3516C288.894 31.3516 288.32 31.1406 287.828 30.7188C287.359 30.2734 287.125 29.7227 287.125 29.0664V17.4648C287.078 16.7383 286.796 16.1406 286.281 15.6719C285.789 15.1797 285.226 14.793 284.593 14.5117C283.984 14.2305 283.339 14.0195 282.66 13.8789C282.004 13.7383 281.336 13.668 280.656 13.668C279.976 13.668 279.296 13.7383 278.617 13.8789C277.961 14.0195 277.316 14.2305 276.683 14.5117C276.074 14.793 275.511 15.1797 274.996 15.6719C274.504 16.1406 274.234 16.7383 274.187 17.4648V29.0664C274.07 30.4727 273.308 31.2344 271.902 31.3516C271.246 31.3516 270.671 31.1406 270.179 30.7188C269.711 30.2734 269.476 29.7227 269.476 29.0664V17.8516V16.375C269.546 15.1094 269.992 14.0195 270.812 13.1055C271.632 12.1914 272.582 11.4648 273.66 10.9258C274.738 10.3633 275.863 9.94141 277.035 9.66016C278.23 9.37891 279.437 9.23828 280.656 9.23828ZM306.439 10.1875H308.057H320.01C320.666 10.2109 321.205 10.457 321.627 10.9258C322.072 11.3945 322.295 11.957 322.295 12.6133C322.178 14.0195 321.416 14.7812 320.01 14.8984H307.635C306.744 14.9453 306.006 15.2852 305.42 15.918C304.834 16.5508 304.4 17.2773 304.119 18.0977C303.861 18.8945 303.732 19.7148 303.732 20.5586C303.732 21.4023 303.861 22.2344 304.119 23.0547C304.4 23.8516 304.834 24.5664 305.42 25.1992C306.006 25.832 306.744 26.1719 307.635 26.2188H320.01C320.666 26.2422 321.205 26.4883 321.627 26.957C322.072 27.4258 322.295 27.9883 322.295 28.6445C322.271 29.2773 322.037 29.8164 321.592 30.2617C321.17 30.6836 320.643 30.9062 320.01 30.9297H307.107H306.439C304.799 30.8359 303.439 30.2148 302.361 29.0664C301.307 27.8945 300.545 26.5703 300.076 25.0938C299.631 23.6172 299.408 22.1055 299.408 20.5586C299.408 19.0117 299.643 17.5 300.111 16.0234C300.58 14.5469 301.342 13.2344 302.396 12.0859C303.451 10.9141 304.799 10.2812 306.439 10.1875ZM322.225 20.418C322.225 21.0742 321.99 21.625 321.521 22.0703C321.076 22.5391 320.525 22.7734 319.869 22.7734H309.252C308.596 22.7734 308.033 22.5508 307.564 22.1055C307.119 21.6367 306.896 21.0742 306.896 20.418C306.896 19.7617 307.119 19.1992 307.564 18.7305C308.033 18.2852 308.596 18.0625 309.252 18.0625H319.869C320.525 18.0625 321.076 18.2969 321.521 18.7656C321.99 19.2109 322.225 19.7617 322.225 20.418Z" fill="white"/>
<path d="M249.82 51.2656C249.227 51.2969 248.727 51.5234 248.32 51.9453C247.93 52.3672 247.648 52.8516 247.477 53.3984C247.305 53.9297 247.219 54.4766 247.219 55.0391C247.219 55.6016 247.297 56.1562 247.453 56.7031C247.625 57.25 247.914 57.7344 248.32 58.1562C248.727 58.5625 249.227 58.7812 249.82 58.8125H257.555C258.539 58.9062 259.078 59.4453 259.172 60.4297C259.156 60.8672 258.992 61.2344 258.68 61.5312C258.367 61.8125 257.992 61.9531 257.555 61.9531H250.078H249C247.906 61.8906 247.008 61.4766 246.305 60.7109C245.602 59.9297 245.094 59.0469 244.781 58.0625C244.484 57.0781 244.336 56.0703 244.336 55.0391C244.336 54.2734 244.422 53.5156 244.594 52.7656C244.766 52.0156 245.031 51.3047 245.391 50.6328C245.766 49.9453 246.258 49.3594 246.867 48.875C247.492 48.3906 248.203 48.1406 249 48.125H249.445H257.555C258.539 48.2188 259.078 48.7578 259.172 49.7422C259.172 50.1797 259.008 50.5469 258.68 50.8438C258.367 51.125 257.992 51.2656 257.555 51.2656H249.82ZM269.002 58.3203C269.002 57.8828 269.15 57.5156 269.447 57.2188C269.759 56.9062 270.134 56.75 270.572 56.75H274.158L273.548 55.0156C273.298 54.375 273.048 53.7734 272.798 53.2109C272.564 52.6328 272.291 52.1094 271.978 51.6406C271.697 51.1719 271.377 50.9219 271.017 50.8906C270.642 50.9219 270.306 51.1719 270.009 51.6406C269.712 52.1094 269.439 52.6328 269.189 53.2109C268.955 53.7734 268.712 54.375 268.462 55.0156L266.236 61.1094C266.08 61.4375 265.877 61.7109 265.627 61.9297C265.392 62.1328 265.033 62.2344 264.548 62.2344C264.095 62.2344 263.72 62.0781 263.423 61.7656C263.142 61.4531 263.017 61.0781 263.048 60.6406C263.064 60.4375 263.111 60.25 263.189 60.0781L265.767 53.4219C266.486 51.6719 267.205 50.2578 267.923 49.1797C268.627 48.1172 269.658 47.5781 271.017 47.5625C272.361 47.5781 273.384 48.1172 274.087 49.1797C274.806 50.2266 275.525 51.6406 276.244 53.4219L278.822 60.0781C278.9 60.25 278.947 60.4375 278.962 60.6406C278.994 61.0781 278.861 61.4531 278.564 61.7656C278.283 62.0781 277.916 62.2344 277.462 62.2344C276.947 62.2344 276.564 62.1328 276.314 61.9297C276.08 61.7109 275.884 61.4375 275.728 61.1094L275.283 59.8906H270.572C270.134 59.8906 269.767 59.7344 269.47 59.4219C269.158 59.125 269.002 58.7578 269.002 58.3203ZM288.675 47.4922C289.222 47.4922 289.753 47.5859 290.269 47.7734C290.8 47.9609 291.308 48.2344 291.792 48.5938C291.87 48.6719 291.956 48.75 292.05 48.8281C292.128 48.75 292.214 48.6719 292.308 48.5938C292.792 48.2344 293.292 47.9609 293.808 47.7734C294.339 47.5859 294.87 47.4922 295.402 47.4922C295.948 47.4922 296.48 47.5859 296.995 47.7734C297.527 47.9609 298.027 48.2422 298.495 48.6172C298.98 48.9766 299.402 49.4609 299.761 50.0703C300.136 50.6797 300.323 51.4062 300.323 52.25V60.7109C300.23 61.6484 299.714 62.1562 298.777 62.2344C298.339 62.2344 297.956 62.0938 297.628 61.8125C297.316 61.5156 297.159 61.1484 297.159 60.7109V52.4375C297.159 52.0625 297.089 51.75 296.948 51.5C296.808 51.2344 296.652 51.0312 296.48 50.8906C296.308 50.7344 296.128 50.625 295.941 50.5625C295.753 50.4844 295.566 50.4453 295.378 50.4453C295.191 50.4453 295.003 50.4844 294.816 50.5625C294.644 50.625 294.472 50.7344 294.3 50.8906C294.128 51.0312 293.972 51.2344 293.831 51.5C293.691 51.75 293.612 52.0625 293.597 52.4375V60.7109C293.503 61.6484 292.987 62.1562 292.05 62.2344C291.612 62.2344 291.23 62.0938 290.902 61.8125C290.589 61.5156 290.433 61.1484 290.433 60.7109V52.4375C290.433 52.0625 290.362 51.75 290.222 51.5C290.081 51.2344 289.925 51.0312 289.753 50.8906C289.581 50.7344 289.402 50.625 289.214 50.5625C289.027 50.4844 288.839 50.4453 288.652 50.4453C288.464 50.4453 288.277 50.4844 288.089 50.5625C287.917 50.625 287.745 50.7344 287.573 50.8906C287.402 51.0312 287.245 51.2344 287.105 51.5C286.964 51.75 286.886 52.0625 286.87 52.4375V60.7109C286.792 61.6484 286.284 62.1562 285.347 62.2344C284.909 62.2344 284.527 62.0938 284.198 61.8125C283.886 61.5156 283.73 61.1484 283.73 60.7109V52.25C283.761 51.4062 283.956 50.6797 284.316 50.0703C284.675 49.4609 285.097 48.9766 285.581 48.6172C286.066 48.2422 286.566 47.9609 287.081 47.7734C287.612 47.5859 288.144 47.4922 288.675 47.4922ZM308.841 60.7109C308.747 61.6484 308.231 62.1562 307.294 62.2344C306.856 62.2344 306.473 62.0938 306.145 61.8125C305.833 61.5156 305.677 61.1484 305.677 60.7109V49.6484C305.692 49.2109 305.856 48.8516 306.169 48.5703C306.481 48.2734 306.856 48.125 307.294 48.125H317.138C318.513 48.1719 319.552 48.4766 320.255 49.0391C320.958 49.5859 321.466 50.2109 321.778 50.9141C322.091 51.6172 322.247 52.3281 322.247 53.0469C322.247 53.7969 322.091 54.5234 321.778 55.2266C321.481 55.9297 320.973 56.5625 320.255 57.125C319.552 57.6719 318.653 57.9375 317.559 57.9219H311.653C311.216 57.9219 310.848 57.7656 310.552 57.4531C310.239 57.1562 310.083 56.7891 310.083 56.3516C310.083 55.9141 310.231 55.5469 310.528 55.25C310.841 54.9375 311.216 54.7812 311.653 54.7812H317.7C317.997 54.7812 318.239 54.6875 318.427 54.5C318.63 54.2969 318.778 54.0703 318.872 53.8203C318.966 53.5547 319.013 53.2891 319.013 53.0234C319.013 52.7734 318.966 52.5234 318.872 52.2734C318.778 52.0078 318.63 51.7812 318.427 51.5938C318.239 51.3906 317.997 51.2812 317.7 51.2656H309.45C309.044 51.2812 308.841 51.4844 308.841 51.875V60.7109Z" fill="#A30DFF"/>
</svg>
