<svg width="324" height="65" viewBox="0 0 324 65" fill="none" xmlns="http://www.w3.org/2000/svg">
<path d="M10.5293 25.4805C10.5293 24.8242 10.752 24.2734 11.1973 23.8281C11.666 23.3594 12.2285 23.125 12.8848 23.125H18.2637L17.3496 20.5234C16.9746 19.5625 16.5996 18.6602 16.2246 17.8164C15.873 16.9492 15.4629 16.1641 14.9941 15.4609C14.5723 14.7578 14.0918 14.3828 13.5527 14.3359C12.9902 14.3828 12.4863 14.7578 12.041 15.4609C11.5957 16.1641 11.1855 16.9492 10.8105 17.8164C10.459 18.6602 10.0957 19.5625 9.7207 20.5234L6.38086 29.6641C6.14648 30.1562 5.8418 30.5664 5.4668 30.8945C5.11523 31.1992 4.57617 31.3516 3.84961 31.3516C3.16992 31.3516 2.60742 31.1172 2.16211 30.6484C1.74023 30.1797 1.55273 29.6172 1.59961 28.9609C1.62305 28.6562 1.69336 28.375 1.81055 28.1172L5.67773 18.1328C6.75586 15.5078 7.83398 13.3867 8.91211 11.7695C9.9668 10.1758 11.5137 9.36719 13.5527 9.34375C15.5684 9.36719 17.1035 10.1758 18.1582 11.7695C19.2363 13.3398 20.3145 15.4609 21.3926 18.1328L25.2598 28.1172C25.377 28.375 25.4473 28.6562 25.4707 28.9609C25.5176 29.6172 25.3184 30.1797 24.873 30.6484C24.4512 31.1172 23.9004 31.3516 23.2207 31.3516C22.4473 31.3516 21.873 31.1992 21.498 30.8945C21.1465 30.5664 20.8535 30.1562 20.6191 29.6641L19.9512 27.8359H12.8848C12.2285 27.8359 11.6777 27.6016 11.2324 27.1328C10.7637 26.6875 10.5293 26.1367 10.5293 25.4805ZM40.602 14.8984C39.7113 14.9453 38.9613 15.2852 38.352 15.918C37.766 16.5508 37.3441 17.2773 37.0863 18.0977C36.8285 18.8945 36.6996 19.7148 36.6996 20.5586C36.6996 21.4023 36.8168 22.2344 37.0512 23.0547C37.309 23.875 37.7426 24.6016 38.352 25.2344C38.9613 25.8438 39.7113 26.1719 40.602 26.2188H52.2035C53.6801 26.3594 54.4887 27.168 54.6293 28.6445C54.6059 29.3008 54.3598 29.8516 53.891 30.2969C53.4223 30.7188 52.8598 30.9297 52.2035 30.9297H40.9887H39.3715C37.7309 30.8359 36.3832 30.2148 35.3285 29.0664C34.2738 27.8945 33.5121 26.5703 33.0434 25.0938C32.598 23.6172 32.3754 22.1055 32.3754 20.5586C32.3754 19.4102 32.5043 18.2734 32.7621 17.1484C33.0199 16.0234 33.4184 14.957 33.9574 13.9492C34.5199 12.918 35.2582 12.0391 36.1723 11.3125C37.1098 10.5859 38.1762 10.2109 39.3715 10.1875H40.0395H52.2035C53.6801 10.3281 54.4887 11.1367 54.6293 12.6133C54.6293 13.2695 54.3832 13.8203 53.891 14.2656C53.4223 14.6875 52.8598 14.8984 52.2035 14.8984H40.602ZM60.7957 12.543C60.7957 11.8867 61.0184 11.3359 61.4637 10.8906C61.9324 10.4219 62.4949 10.1875 63.1512 10.1875H83.6121C84.2684 10.1875 84.8309 10.4102 85.2996 10.8555C85.7449 11.3242 85.9676 11.8867 85.9676 12.543C85.9676 13.1992 85.7332 13.7617 85.2645 14.2305C84.8191 14.6758 84.2684 14.8984 83.6121 14.8984H75.7723V29.1367C75.6316 30.543 74.8582 31.3047 73.452 31.4219C72.7957 31.4219 72.2215 31.2109 71.7293 30.7891C71.2605 30.3438 71.0262 29.793 71.0262 29.1367V14.8984H63.1512C62.4949 14.8984 61.9441 14.6641 61.4988 14.1953C61.0301 13.75 60.7957 13.1992 60.7957 12.543ZM92.5207 28.5742C92.5207 27.918 92.7434 27.3672 93.1887 26.9219C93.6574 26.4531 94.2199 26.2188 94.8762 26.2188H101.626V14.8984H94.8762C94.2199 14.8984 93.6691 14.6641 93.2238 14.1953C92.7551 13.75 92.5207 13.1992 92.5207 12.543C92.5207 11.8867 92.7434 11.3359 93.1887 10.8906C93.6574 10.4219 94.2199 10.1875 94.8762 10.1875H113.087C113.743 10.1875 114.306 10.4102 114.775 10.8555C115.22 11.3242 115.443 11.8867 115.443 12.543C115.443 13.1992 115.208 13.7617 114.739 14.2305C114.294 14.6758 113.743 14.8984 113.087 14.8984H106.372V26.2188H113.087C113.743 26.2188 114.306 26.4414 114.775 26.8867C115.22 27.3555 115.443 27.918 115.443 28.5742C115.443 29.2305 115.208 29.793 114.739 30.2617C114.294 30.707 113.743 30.9297 113.087 30.9297H94.8762C94.2199 30.9297 93.6691 30.6953 93.2238 30.2266C92.7551 29.7812 92.5207 29.2305 92.5207 28.5742ZM129.379 29.0664C128.3 27.4492 127.222 25.3281 126.144 22.7031L122.277 12.7188C122.16 12.4609 122.089 12.1797 122.066 11.875C122.019 11.2188 122.207 10.6563 122.629 10.1875C123.074 9.71875 123.636 9.48438 124.316 9.48438C125.043 9.48438 125.582 9.64844 125.933 9.97656C126.308 10.2812 126.613 10.6797 126.847 11.1719L130.187 20.3125C130.562 21.2734 130.925 22.1875 131.277 23.0547C131.652 23.8984 132.062 24.6719 132.507 25.375C132.953 26.0781 133.457 26.4531 134.019 26.5C134.558 26.4531 135.039 26.0781 135.461 25.375C135.929 24.6719 136.339 23.8984 136.691 23.0547C137.066 22.1875 137.441 21.2734 137.816 20.3125L141.086 11.1719C141.32 10.6797 141.613 10.2812 141.964 9.97656C142.339 9.64844 142.914 9.48438 143.687 9.48438C144.367 9.48438 144.918 9.71875 145.339 10.1875C145.785 10.6563 145.984 11.2188 145.937 11.875C145.914 12.1797 145.843 12.4609 145.726 12.7188L141.859 22.7031C140.781 25.375 139.703 27.5078 138.625 29.1016C137.57 30.6719 136.035 31.4688 134.019 31.4922C131.98 31.4688 130.433 30.6602 129.379 29.0664ZM159.697 10.1875H161.314H173.268C173.924 10.2109 174.463 10.457 174.885 10.9258C175.33 11.3945 175.553 11.957 175.553 12.6133C175.436 14.0195 174.674 14.7812 173.268 14.8984H160.893C160.002 14.9453 159.264 15.2852 158.678 15.918C158.092 16.5508 157.658 17.2773 157.377 18.0977C157.119 18.8945 156.99 19.7148 156.99 20.5586C156.99 21.4023 157.119 22.2344 157.377 23.0547C157.658 23.8516 158.092 24.5664 158.678 25.1992C159.264 25.832 160.002 26.1719 160.893 26.2188H173.268C173.924 26.2422 174.463 26.4883 174.885 26.957C175.33 27.4258 175.553 27.9883 175.553 28.6445C175.529 29.2773 175.295 29.8164 174.85 30.2617C174.428 30.6836 173.9 30.9062 173.268 30.9297H160.365H159.697C158.057 30.8359 156.697 30.2148 155.619 29.0664C154.564 27.8945 153.803 26.5703 153.334 25.0938C152.889 23.6172 152.666 22.1055 152.666 20.5586C152.666 19.0117 152.9 17.5 153.369 16.0234C153.838 14.5469 154.6 13.2344 155.654 12.0859C156.709 10.9141 158.057 10.2812 159.697 10.1875ZM175.482 20.418C175.482 21.0742 175.248 21.625 174.779 22.0703C174.334 22.5391 173.783 22.7734 173.127 22.7734H162.51C161.854 22.7734 161.291 22.5508 160.822 22.1055C160.377 21.6367 160.154 21.0742 160.154 20.418C160.154 19.7617 160.377 19.1992 160.822 18.7305C161.291 18.2852 161.854 18.0625 162.51 18.0625H173.127C173.783 18.0625 174.334 18.2969 174.779 18.7656C175.248 19.2109 175.482 19.7617 175.482 20.418ZM203.53 12.543C203.53 11.8867 203.753 11.3359 204.198 10.8906C204.667 10.4219 205.229 10.1875 205.886 10.1875H226.346C227.003 10.1875 227.565 10.4102 228.034 10.8555C228.479 11.3242 228.702 11.8867 228.702 12.543C228.702 13.1992 228.479 13.75 228.034 14.1953C227.893 14.3359 227.753 14.4531 227.612 14.5469L212.706 26.1484H226.346C227.003 26.1484 227.565 26.3711 228.034 26.8164C228.479 27.2852 228.702 27.8477 228.702 28.5039C228.702 29.1602 228.468 29.7227 227.999 30.1914C227.554 30.6367 227.003 30.8594 226.346 30.8594H205.886C205.229 30.8594 204.679 30.625 204.233 30.1562C203.764 29.7109 203.53 29.1602 203.53 28.5039C203.53 27.8945 203.729 27.3672 204.128 26.9219H204.093L204.233 26.8164C204.374 26.6758 204.526 26.5586 204.69 26.4648L219.772 14.8984H205.886C205.229 14.8984 204.679 14.6641 204.233 14.1953C203.764 13.75 203.53 13.1992 203.53 12.543ZM254.837 10.1875C256.032 10.2109 257.099 10.5859 258.036 11.3125C258.974 12.0391 259.724 12.9063 260.286 13.9141C260.872 14.9219 261.306 15.9883 261.587 17.1133C261.868 18.2383 262.009 19.3867 262.009 20.5586C262.009 22.1055 261.763 23.6289 261.271 25.1289C260.802 26.6055 260.017 27.918 258.915 29.0664C257.837 30.2148 256.478 30.8359 254.837 30.9297H242.568C240.927 30.8594 239.556 30.25 238.454 29.1016C237.353 27.9531 236.568 26.6289 236.099 25.1289C235.654 23.6289 235.431 22.1055 235.431 20.5586C235.431 19.0117 235.665 17.5 236.134 16.0234C236.603 14.5234 237.376 13.1992 238.454 12.0508C239.556 10.8789 240.927 10.2578 242.568 10.1875H243.236H254.169H254.837ZM253.642 26.2188C254.532 26.1719 255.271 25.8438 255.857 25.2344C256.466 24.6016 256.9 23.875 257.157 23.0547C257.415 22.2344 257.544 21.4023 257.544 20.5586C257.544 19.7148 257.404 18.8945 257.122 18.0977C256.864 17.2773 256.443 16.5508 255.857 15.918C255.271 15.2852 254.532 14.9453 253.642 14.8984H243.657C242.767 14.9453 242.029 15.2852 241.443 15.918C240.857 16.5508 240.423 17.2773 240.142 18.0977C239.884 18.8945 239.755 19.7148 239.755 20.5586C239.755 21.4023 239.884 22.2344 240.142 23.0547C240.4 23.875 240.821 24.6016 241.407 25.2344C242.017 25.8438 242.767 26.1719 243.657 26.2188H253.642ZM280.656 9.23828C281.875 9.23828 283.07 9.37891 284.242 9.66016C285.437 9.94141 286.574 10.3633 287.652 10.9258C288.73 11.4648 289.679 12.1914 290.5 13.1055C291.343 14.0195 291.8 15.1094 291.871 16.375V17.8516V29.0664C291.73 30.4727 290.957 31.2344 289.55 31.3516C288.894 31.3516 288.32 31.1406 287.828 30.7188C287.359 30.2734 287.125 29.7227 287.125 29.0664V17.4648C287.078 16.7383 286.796 16.1406 286.281 15.6719C285.789 15.1797 285.226 14.793 284.593 14.5117C283.984 14.2305 283.339 14.0195 282.66 13.8789C282.004 13.7383 281.336 13.668 280.656 13.668C279.976 13.668 279.296 13.7383 278.617 13.8789C277.961 14.0195 277.316 14.2305 276.683 14.5117C276.074 14.793 275.511 15.1797 274.996 15.6719C274.504 16.1406 274.234 16.7383 274.187 17.4648V29.0664C274.07 30.4727 273.308 31.2344 271.902 31.3516C271.246 31.3516 270.671 31.1406 270.179 30.7188C269.711 30.2734 269.476 29.7227 269.476 29.0664V17.8516V16.375C269.546 15.1094 269.992 14.0195 270.812 13.1055C271.632 12.1914 272.582 11.4648 273.66 10.9258C274.738 10.3633 275.863 9.94141 277.035 9.66016C278.23 9.37891 279.437 9.23828 280.656 9.23828ZM306.439 10.1875H308.057H320.01C320.666 10.2109 321.205 10.457 321.627 10.9258C322.072 11.3945 322.295 11.957 322.295 12.6133C322.178 14.0195 321.416 14.7812 320.01 14.8984H307.635C306.744 14.9453 306.006 15.2852 305.42 15.918C304.834 16.5508 304.4 17.2773 304.119 18.0977C303.861 18.8945 303.732 19.7148 303.732 20.5586C303.732 21.4023 303.861 22.2344 304.119 23.0547C304.4 23.8516 304.834 24.5664 305.42 25.1992C306.006 25.832 306.744 26.1719 307.635 26.2188H320.01C320.666 26.2422 321.205 26.4883 321.627 26.957C322.072 27.4258 322.295 27.9883 322.295 28.6445C322.271 29.2773 322.037 29.8164 321.592 30.2617C321.17 30.6836 320.643 30.9062 320.01 30.9297H307.107H306.439C304.799 30.8359 303.439 30.2148 302.361 29.0664C301.307 27.8945 300.545 26.5703 300.076 25.0938C299.631 23.6172 299.408 22.1055 299.408 20.5586C299.408 19.0117 299.643 17.5 300.111 16.0234C300.58 14.5469 301.342 13.2344 302.396 12.0859C303.451 10.9141 304.799 10.2812 306.439 10.1875ZM322.225 20.418C322.225 21.0742 321.99 21.625 321.521 22.0703C321.076 22.5391 320.525 22.7734 319.869 22.7734H309.252C308.596 22.7734 308.033 22.5508 307.564 22.1055C307.119 21.6367 306.896 21.0742 306.896 20.418C306.896 19.7617 307.119 19.1992 307.564 18.7305C308.033 18.2852 308.596 18.0625 309.252 18.0625H319.869C320.525 18.0625 321.076 18.2969 321.521 18.7656C321.99 19.2109 322.225 19.7617 322.225 20.418Z" fill="white"/>
<path d="M6.82031 51.2656C6.22656 51.2969 5.72656 51.5234 5.32031 51.9453C4.92969 52.3672 4.64844 52.8516 4.47656 53.3984C4.30469 53.9297 4.21875 54.4766 4.21875 55.0391C4.21875 55.6016 4.29688 56.1562 4.45312 56.7031C4.625 57.25 4.91406 57.7344 5.32031 58.1562C5.72656 58.5625 6.22656 58.7812 6.82031 58.8125H14.5547C15.5391 58.9062 16.0781 59.4453 16.1719 60.4297C16.1562 60.8672 15.9922 61.2344 15.6797 61.5312C15.3672 61.8125 14.9922 61.9531 14.5547 61.9531H7.07812H6C4.90625 61.8906 4.00781 61.4766 3.30469 60.7109C2.60156 59.9297 2.09375 59.0469 1.78125 58.0625C1.48438 57.0781 1.33594 56.0703 1.33594 55.0391C1.33594 54.2734 1.42188 53.5156 1.59375 52.7656C1.76562 52.0156 2.03125 51.3047 2.39062 50.6328C2.76562 49.9453 3.25781 49.3594 3.86719 48.875C4.49219 48.3906 5.20312 48.1406 6 48.125H6.44531H14.5547C15.5391 48.2188 16.0781 48.7578 16.1719 49.7422C16.1719 50.1797 16.0078 50.5469 15.6797 50.8438C15.3672 51.125 14.9922 51.2656 14.5547 51.2656H6.82031ZM26.0016 58.3203C26.0016 57.8828 26.15 57.5156 26.4469 57.2188C26.7594 56.9062 27.1344 56.75 27.5719 56.75H31.1578L30.5484 55.0156C30.2984 54.375 30.0484 53.7734 29.7984 53.2109C29.5641 52.6328 29.2906 52.1094 28.9781 51.6406C28.6969 51.1719 28.3766 50.9219 28.0172 50.8906C27.6422 50.9219 27.3062 51.1719 27.0094 51.6406C26.7125 52.1094 26.4391 52.6328 26.1891 53.2109C25.9547 53.7734 25.7125 54.375 25.4625 55.0156L23.2359 61.1094C23.0797 61.4375 22.8766 61.7109 22.6266 61.9297C22.3922 62.1328 22.0328 62.2344 21.5484 62.2344C21.0953 62.2344 20.7203 62.0781 20.4234 61.7656C20.1422 61.4531 20.0172 61.0781 20.0484 60.6406C20.0641 60.4375 20.1109 60.25 20.1891 60.0781L22.7672 53.4219C23.4859 51.6719 24.2047 50.2578 24.9234 49.1797C25.6266 48.1172 26.6578 47.5781 28.0172 47.5625C29.3609 47.5781 30.3844 48.1172 31.0875 49.1797C31.8062 50.2266 32.525 51.6406 33.2437 53.4219L35.8219 60.0781C35.9 60.25 35.9469 60.4375 35.9625 60.6406C35.9937 61.0781 35.8609 61.4531 35.5641 61.7656C35.2828 62.0781 34.9156 62.2344 34.4625 62.2344C33.9469 62.2344 33.5641 62.1328 33.3141 61.9297C33.0797 61.7109 32.8844 61.4375 32.7281 61.1094L32.2828 59.8906H27.5719C27.1344 59.8906 26.7672 59.7344 26.4703 59.4219C26.1578 59.125 26.0016 58.7578 26.0016 58.3203ZM45.675 47.4922C46.2219 47.4922 46.7531 47.5859 47.2687 47.7734C47.8 47.9609 48.3078 48.2344 48.7922 48.5938C48.8703 48.6719 48.9562 48.75 49.05 48.8281C49.1281 48.75 49.2141 48.6719 49.3078 48.5938C49.7922 48.2344 50.2922 47.9609 50.8078 47.7734C51.3391 47.5859 51.8703 47.4922 52.4016 47.4922C52.9484 47.4922 53.4797 47.5859 53.9953 47.7734C54.5266 47.9609 55.0266 48.2422 55.4953 48.6172C55.9797 48.9766 56.4016 49.4609 56.7609 50.0703C57.1359 50.6797 57.3234 51.4062 57.3234 52.25V60.7109C57.2297 61.6484 56.7141 62.1562 55.7766 62.2344C55.3391 62.2344 54.9562 62.0938 54.6281 61.8125C54.3156 61.5156 54.1594 61.1484 54.1594 60.7109V52.4375C54.1594 52.0625 54.0891 51.75 53.9484 51.5C53.8078 51.2344 53.6516 51.0312 53.4797 50.8906C53.3078 50.7344 53.1281 50.625 52.9406 50.5625C52.7531 50.4844 52.5656 50.4453 52.3781 50.4453C52.1906 50.4453 52.0031 50.4844 51.8156 50.5625C51.6437 50.625 51.4719 50.7344 51.3 50.8906C51.1281 51.0312 50.9719 51.2344 50.8312 51.5C50.6906 51.75 50.6125 52.0625 50.5969 52.4375V60.7109C50.5031 61.6484 49.9875 62.1562 49.05 62.2344C48.6125 62.2344 48.2297 62.0938 47.9016 61.8125C47.5891 61.5156 47.4328 61.1484 47.4328 60.7109V52.4375C47.4328 52.0625 47.3625 51.75 47.2219 51.5C47.0812 51.2344 46.925 51.0312 46.7531 50.8906C46.5812 50.7344 46.4016 50.625 46.2141 50.5625C46.0266 50.4844 45.8391 50.4453 45.6516 50.4453C45.4641 50.4453 45.2766 50.4844 45.0891 50.5625C44.9172 50.625 44.7453 50.7344 44.5734 50.8906C44.4016 51.0312 44.2453 51.2344 44.1047 51.5C43.9641 51.75 43.8859 52.0625 43.8703 52.4375V60.7109C43.7922 61.6484 43.2844 62.1562 42.3469 62.2344C41.9094 62.2344 41.5266 62.0938 41.1984 61.8125C40.8859 61.5156 40.7297 61.1484 40.7297 60.7109V52.25C40.7609 51.4062 40.9562 50.6797 41.3156 50.0703C41.675 49.4609 42.0969 48.9766 42.5812 48.6172C43.0656 48.2422 43.5656 47.9609 44.0812 47.7734C44.6125 47.5859 45.1437 47.4922 45.675 47.4922ZM65.8406 60.7109C65.7469 61.6484 65.2313 62.1562 64.2938 62.2344C63.8563 62.2344 63.4734 62.0938 63.1453 61.8125C62.8328 61.5156 62.6766 61.1484 62.6766 60.7109V49.6484C62.6922 49.2109 62.8563 48.8516 63.1688 48.5703C63.4813 48.2734 63.8563 48.125 64.2938 48.125H74.1375C75.5125 48.1719 76.5516 48.4766 77.2547 49.0391C77.9578 49.5859 78.4656 50.2109 78.7781 50.9141C79.0906 51.6172 79.2469 52.3281 79.2469 53.0469C79.2469 53.7969 79.0906 54.5234 78.7781 55.2266C78.4813 55.9297 77.9734 56.5625 77.2547 57.125C76.5516 57.6719 75.6531 57.9375 74.5594 57.9219H68.6531C68.2156 57.9219 67.8484 57.7656 67.5516 57.4531C67.2391 57.1562 67.0828 56.7891 67.0828 56.3516C67.0828 55.9141 67.2313 55.5469 67.5281 55.25C67.8406 54.9375 68.2156 54.7812 68.6531 54.7812H74.7C74.9969 54.7812 75.2391 54.6875 75.4266 54.5C75.6297 54.2969 75.7781 54.0703 75.8719 53.8203C75.9656 53.5547 76.0125 53.2891 76.0125 53.0234C76.0125 52.7734 75.9656 52.5234 75.8719 52.2734C75.7781 52.0078 75.6297 51.7812 75.4266 51.5938C75.2391 51.3906 74.9969 51.2812 74.7 51.2656H66.45C66.0438 51.2812 65.8406 51.4844 65.8406 51.875V60.7109Z" fill="#A30DFF"/>
</svg>
