<svg width="150" height="150" viewBox="0 0 150 150" fill="none" xmlns="http://www.w3.org/2000/svg">
<path d="M110.277 69.453C115.55 62.2269 118.701 53.36 118.701 43.75C118.701 19.6259 99.0753 0 74.9512 0C50.827 0 31.2012 19.6259 31.2012 43.75C31.2012 53.4027 34.3811 62.3051 39.6961 69.5484C37.3917 77.8046 25 123.044 25 140.625C25 141.888 25.7599 143.03 26.9287 143.512C28.0914 144 29.4434 143.732 30.3345 142.834C36.2122 136.96 45.0928 133.228 48.9838 131.787L63.2233 148.877C63.8306 149.603 64.7156 150 65.625 150C65.9729 150 66.3269 149.942 66.6687 149.82C67.8986 149.384 68.7317 148.227 68.75 146.921C69.0037 129.473 70.9267 101.772 75 90.6723C79.0733 101.772 80.9963 129.473 81.25 146.921C81.2683 148.227 82.1014 149.384 83.3313 149.82C83.6731 149.942 84.0271 150 84.375 150C85.2844 150 86.1694 149.603 86.7767 148.877L101.019 131.784C104.901 133.218 113.77 136.938 119.666 142.834C120.566 143.732 121.906 144.006 123.071 143.512C124.24 143.03 125 141.888 125 140.625C125 122.987 112.523 77.496 110.277 69.453Z" fill="#303C42"/>
<path d="M75.054 81.25C95.7646 81.25 112.554 64.4607 112.554 43.75C112.554 23.0393 95.7646 6.25 75.054 6.25C54.3433 6.25 37.554 23.0393 37.554 43.75C37.554 64.4607 54.3433 81.25 75.054 81.25Z" fill="url(#paint0_linear_46_36)"/>
<path d="M62.7136 138.501L52.4017 126.123C51.593 125.156 50.2899 124.777 49.0814 125.137C48.6176 125.281 39.7583 128.052 31.7352 133.615C33.7391 116.398 41.4082 87.0739 44.6251 75.2129C51.3287 81.6761 60.0712 86.0192 69.7926 87.1682C64.8186 99.0643 63.2183 124.416 62.7136 138.501Z" fill="#303C42"/>
<path d="M100.919 125.138C99.7253 124.774 98.4069 125.159 97.5982 126.123L87.2863 138.501C86.7813 124.41 85.1799 99.0442 80.2013 87.1542C89.9223 85.9842 98.6637 81.6248 105.355 75.1421C108.561 86.9577 116.257 116.364 118.265 133.615C110.242 128.052 101.382 125.281 100.919 125.138Z" fill="#303C42"/>
<path d="M56.9489 66.7207C56.6681 67.9841 57.1961 69.2903 58.2764 70.0044C58.7982 70.3492 59.3994 70.5232 60.0006 70.5232C60.6384 70.5232 61.2732 70.3279 61.8164 69.9403L75.0031 60.5226L88.1867 69.9403C89.2365 70.6971 90.6525 70.7185 91.7267 70.0044C92.807 69.2903 93.335 67.9841 93.0542 66.7207L89.1571 49.1945L103.574 36.8318C104.52 36.0231 104.895 34.7291 104.529 33.5389C104.16 32.3518 103.122 31.4912 101.886 31.3539L83.4809 29.3123L77.9297 14.5021C77.4719 13.2814 76.3062 12.4727 75.0031 12.4727C73.7 12.4727 72.5342 13.2814 72.0764 14.499L66.5222 29.3123L48.1171 31.3539C46.8811 31.4912 45.8435 32.3518 45.4743 33.5389C45.108 34.7291 45.4834 36.0231 46.4295 36.8318L60.846 49.1945L56.9489 66.7207Z" fill="#303C42"/>
<path d="M55.9601 36.7706L69.1193 35.3119C70.2881 35.1807 71.286 34.4055 71.701 33.3038L75.003 24.4995L78.302 33.3008C78.717 34.4055 79.715 35.1807 80.8838 35.3119L94.043 36.7706L83.667 45.6696C82.7881 46.4203 82.3975 47.5922 82.6477 48.7183L85.1807 60.1135L76.8188 54.1382C75.7324 53.363 74.2737 53.363 73.1873 54.1382L64.8224 60.1135L67.3553 48.7183C67.6056 47.5922 67.215 46.4203 66.3361 45.6696L55.9601 36.7706Z" fill="#FFCB29"/>
<path opacity="0.2" d="M72.7589 38.9515C73.9277 38.8203 74.9256 38.0451 75.3407 36.9434L77.5047 31.1733L75.0031 24.4995L71.701 33.3038C71.286 34.4055 70.2881 35.1807 69.1193 35.3119L55.9601 36.7706L60.1345 40.3511L72.7589 38.9515Z" fill="white"/>
<path d="M62.7676 138.501L52.4557 126.123C51.65 125.156 50.3378 124.777 49.1354 125.137C48.6715 125.281 39.8123 128.052 31.7892 133.615C33.793 116.398 41.4621 87.0739 44.679 75.2129C51.3826 81.6761 60.1251 86.0192 69.8465 87.1682C64.8725 99.0643 63.2723 124.416 62.7676 138.501Z" fill="#7CB342"/>
<path d="M100.973 125.138C99.7763 124.774 98.461 125.159 97.6523 126.123L87.3404 138.501C86.8353 124.41 85.2339 99.0442 80.2554 87.1542C89.9764 85.9842 98.7177 81.6248 105.409 75.1421C108.615 86.9577 116.311 116.364 118.319 133.615C110.296 128.052 101.436 125.281 100.973 125.138Z" fill="#7CB342"/>
<path d="M105.409 75.1421C98.7176 81.6248 89.9763 85.9842 80.2553 87.1542C83.0587 93.8494 84.7665 104.812 85.8358 115.634L97.0491 126.847L97.6522 126.123C98.4609 125.159 99.7762 124.774 100.973 125.138C101.436 125.281 110.296 128.052 118.319 133.615C116.311 116.364 108.615 86.9577 105.409 75.1421ZM67.0412 96.8393C67.8358 93.1593 68.7463 89.7993 69.8465 87.1683C61.9859 86.2394 54.8292 83.1457 48.8092 78.6077L67.0412 96.8393Z" fill="url(#paint1_linear_46_36)"/>
<path d="M83.4806 29.3119L94.2869 30.5105L77.5045 13.7285L77.4854 13.9315C77.6231 14.134 77.8409 14.2652 77.9294 14.5018L83.4806 29.3119ZM60.8457 49.1941L46.4292 36.8315L60.4722 50.8741L60.8457 49.1941ZM112.438 41.4476L104.529 33.5386C104.895 34.7288 104.519 36.0228 103.573 36.8315L89.1569 49.1941L93.0539 66.7204C93.3347 67.9838 92.8068 69.29 91.7264 70.0041C90.6522 70.7182 89.2362 70.6968 88.1864 69.94L75.0028 60.5223L61.8162 69.94C61.2729 70.3276 60.6382 70.5229 60.0004 70.5229C59.3992 70.5229 58.798 70.3489 58.2761 70.0041L68.9851 80.7131C70.9653 81.0373 72.9833 81.2498 75.0539 81.2498C95.7326 81.2498 112.554 64.4285 112.554 43.7498C112.554 42.9727 112.484 42.2132 112.438 41.4476Z" fill="url(#paint2_linear_46_36)"/>
<path d="M110.277 69.453C115.55 62.2269 118.701 53.36 118.701 43.75C118.701 19.6259 99.0753 0 74.9512 0C50.827 0 31.2012 19.6259 31.2012 43.75C31.2012 53.4027 34.3811 62.3051 39.6961 69.5484C37.3917 77.8046 25 123.044 25 140.625C25 141.888 25.7599 143.03 26.9287 143.512C28.0914 144 29.4434 143.732 30.3345 142.834C36.2122 136.96 45.0928 133.228 48.9838 131.787L63.2233 148.877C63.8306 149.603 64.7156 150 65.625 150C65.9729 150 66.3269 149.942 66.6687 149.82C67.8986 149.384 68.7317 148.227 68.75 146.921C69.0037 129.473 70.9267 101.772 75 90.6723C79.0733 101.772 80.9963 129.473 81.25 146.921C81.2683 148.227 82.1014 149.384 83.3313 149.82C83.6731 149.942 84.0271 150 84.375 150C85.2844 150 86.1694 149.603 86.7767 148.877L101.019 131.784C104.901 133.218 113.77 136.938 119.666 142.834C120.566 143.732 121.906 144.006 123.071 143.512C124.24 143.03 125 141.888 125 140.625C125 122.987 112.523 77.496 110.277 69.453Z" fill="url(#paint3_linear_46_36)"/>
<defs>
<linearGradient id="paint0_linear_46_36" x1="75.054" y1="6.25" x2="75.054" y2="81.25" gradientUnits="userSpaceOnUse">
<stop stop-color="#FFBA57"/>
<stop offset="1" stop-color="#FFCB29"/>
</linearGradient>
<linearGradient id="paint1_linear_46_36" x1="63.8257" y1="63.5913" x2="126.084" y2="125.85" gradientUnits="userSpaceOnUse">
<stop stop-color="#010101" stop-opacity="0.1"/>
<stop offset="1" stop-color="#010101" stop-opacity="0"/>
</linearGradient>
<linearGradient id="paint2_linear_46_36" x1="56.4458" y1="26.8148" x2="100.722" y2="71.0909" gradientUnits="userSpaceOnUse">
<stop stop-color="#010101" stop-opacity="0.1"/>
<stop offset="1" stop-color="#010101" stop-opacity="0"/>
</linearGradient>
<linearGradient id="paint3_linear_46_36" x1="21.1518" y1="55.6071" x2="139.282" y2="110.692" gradientUnits="userSpaceOnUse">
<stop stop-color="white" stop-opacity="0.2"/>
<stop offset="1" stop-color="white" stop-opacity="0"/>
</linearGradient>
</defs>
</svg>
