<svg width="608" height="638" viewBox="0 0 608 638" fill="none" xmlns="http://www.w3.org/2000/svg">
<g filter="url(#filter0_d_65_43)">
<rect y="30" width="600" height="600" rx="60" fill="url(#paint0_linear_65_43)"/>
</g>
<path d="M150.561 85.4219C150.373 87.2969 149.342 88.3125 147.467 88.4688C146.592 88.4688 145.827 88.1875 145.17 87.625C144.545 87.0312 144.233 86.2969 144.233 85.4219V63.2969C144.264 62.4219 144.592 61.7031 145.217 61.1406C145.842 60.5469 146.592 60.25 147.467 60.25H167.155C169.905 60.3438 171.983 60.9531 173.389 62.0781C174.795 63.1719 175.811 64.4219 176.436 65.8281C177.061 67.2344 177.373 68.6562 177.373 70.0938C177.373 71.5938 177.061 73.0469 176.436 74.4531C175.842 75.8594 174.827 77.125 173.389 78.25C171.983 79.3438 170.186 79.875 167.998 79.8438H156.186C155.311 79.8438 154.577 79.5312 153.983 78.9062C153.358 78.3125 153.045 77.5781 153.045 76.7031C153.045 75.8281 153.342 75.0938 153.936 74.5C154.561 73.875 155.311 73.5625 156.186 73.5625H168.28C168.873 73.5625 169.358 73.375 169.733 73C170.139 72.5938 170.436 72.1406 170.623 71.6406C170.811 71.1094 170.905 70.5781 170.905 70.0469C170.905 69.5469 170.811 69.0469 170.623 68.5469C170.436 68.0156 170.139 67.5625 169.733 67.1875C169.358 66.7812 168.873 66.5625 168.28 66.5312H151.78C150.967 66.5625 150.561 66.9688 150.561 67.75V85.4219ZM193.47 85.5156C193.283 87.3906 192.252 88.4062 190.377 88.5625C189.502 88.5625 188.736 88.2812 188.08 87.7188C187.455 87.125 187.142 86.3906 187.142 85.5156V63.2969C187.173 62.4219 187.502 61.7031 188.127 61.1406C188.752 60.5469 189.502 60.25 190.377 60.25H192.673H198.439H210.017C210.205 60.25 210.392 60.2656 210.58 60.2969H210.861C213.048 60.3594 214.845 60.8594 216.252 61.7969C217.658 62.7344 218.673 63.8125 219.298 65.0312C219.923 66.2188 220.236 67.4219 220.236 68.6406C220.236 69.8906 219.923 71.125 219.298 72.3438C218.705 73.5312 217.689 74.5938 216.252 75.5312C214.845 76.4688 213.048 76.9688 210.861 77.0312H202.611C202.861 78.5938 203.377 79.75 204.158 80.5C204.908 81.25 205.861 81.625 207.017 81.625H217.142C218.017 81.6562 218.736 81.9844 219.298 82.6094C219.892 83.2344 220.189 83.9844 220.189 84.8594C220.158 85.7031 219.845 86.4219 219.252 87.0156C218.689 87.5781 217.986 87.875 217.142 87.9062H206.173C203.861 87.9375 201.767 87.0312 199.892 85.1875C198.017 83.3438 196.877 81.1562 196.47 78.625C195.908 75.8125 195.627 74.2344 195.627 73.8906C195.627 73.0156 195.923 72.2812 196.517 71.6875C197.142 71.0625 197.892 70.75 198.767 70.75H211.142C211.736 70.7188 212.22 70.5938 212.595 70.375C213.002 70.125 213.298 69.8594 213.486 69.5781C213.673 69.2656 213.767 68.9531 213.767 68.6406C213.767 68.3281 213.673 68.0312 213.486 67.75C213.298 67.4375 213.002 67.1719 212.595 66.9531C212.22 66.7031 211.736 66.5625 211.142 66.5312H198.439H194.689C193.877 66.5625 193.47 66.9688 193.47 67.75V85.5156ZM238.817 60.25H240.973H256.911C257.786 60.2812 258.505 60.6094 259.067 61.2344C259.661 61.8594 259.958 62.6094 259.958 63.4844C259.802 65.3594 258.786 66.375 256.911 66.5312H240.411C239.223 66.5938 238.239 67.0469 237.458 67.8906C236.677 68.7344 236.098 69.7031 235.723 70.7969C235.38 71.8594 235.208 72.9531 235.208 74.0781C235.208 75.2031 235.38 76.3125 235.723 77.4062C236.098 78.4688 236.677 79.4219 237.458 80.2656C238.239 81.1094 239.223 81.5625 240.411 81.625H256.911C257.786 81.6562 258.505 81.9844 259.067 82.6094C259.661 83.2344 259.958 83.9844 259.958 84.8594C259.927 85.7031 259.614 86.4219 259.02 87.0156C258.458 87.5781 257.755 87.875 256.911 87.9062H239.708H238.817C236.63 87.7812 234.817 86.9531 233.38 85.4219C231.973 83.8594 230.958 82.0938 230.333 80.125C229.739 78.1562 229.442 76.1406 229.442 74.0781C229.442 72.0156 229.755 70 230.38 68.0312C231.005 66.0625 232.02 64.3125 233.427 62.7812C234.833 61.2188 236.63 60.375 238.817 60.25ZM259.864 73.8906C259.864 74.7656 259.552 75.5 258.927 76.0938C258.333 76.7188 257.598 77.0312 256.723 77.0312H242.567C241.692 77.0312 240.942 76.7344 240.317 76.1406C239.723 75.5156 239.427 74.7656 239.427 73.8906C239.427 73.0156 239.723 72.2656 240.317 71.6406C240.942 71.0469 241.692 70.75 242.567 70.75H256.723C257.598 70.75 258.333 71.0625 258.927 71.6875C259.552 72.2812 259.864 73.0156 259.864 73.8906ZM279.383 58.9844C280.477 58.9844 281.539 59.1719 282.57 59.5469C283.633 59.9219 284.648 60.4688 285.617 61.1875C285.773 61.3438 285.945 61.5 286.133 61.6562C286.289 61.5 286.461 61.3438 286.648 61.1875C287.617 60.4688 288.617 59.9219 289.648 59.5469C290.711 59.1719 291.773 58.9844 292.836 58.9844C293.93 58.9844 294.992 59.1719 296.023 59.5469C297.086 59.9219 298.086 60.4844 299.023 61.2344C299.992 61.9531 300.836 62.9219 301.555 64.1406C302.305 65.3594 302.68 66.8125 302.68 68.5V85.4219C302.492 87.2969 301.461 88.3125 299.586 88.4688C298.711 88.4688 297.945 88.1875 297.289 87.625C296.664 87.0312 296.352 86.2969 296.352 85.4219V68.875C296.352 68.125 296.211 67.5 295.93 67C295.648 66.4688 295.336 66.0625 294.992 65.7812C294.648 65.4688 294.289 65.25 293.914 65.125C293.539 64.9688 293.164 64.8906 292.789 64.8906C292.414 64.8906 292.039 64.9688 291.664 65.125C291.32 65.25 290.977 65.4688 290.633 65.7812C290.289 66.0625 289.977 66.4688 289.695 67C289.414 67.5 289.258 68.125 289.227 68.875V85.4219C289.039 87.2969 288.008 88.3125 286.133 88.4688C285.258 88.4688 284.492 88.1875 283.836 87.625C283.211 87.0312 282.898 86.2969 282.898 85.4219V68.875C282.898 68.125 282.758 67.5 282.477 67C282.195 66.4688 281.883 66.0625 281.539 65.7812C281.195 65.4688 280.836 65.25 280.461 65.125C280.086 64.9688 279.711 64.8906 279.336 64.8906C278.961 64.8906 278.586 64.9688 278.211 65.125C277.867 65.25 277.523 65.4688 277.18 65.7812C276.836 66.0625 276.523 66.4688 276.242 67C275.961 67.5 275.805 68.125 275.773 68.875V85.4219C275.617 87.2969 274.602 88.3125 272.727 88.4688C271.852 88.4688 271.086 88.1875 270.43 87.625C269.805 87.0312 269.492 86.2969 269.492 85.4219V68.5C269.555 66.8125 269.945 65.3594 270.664 64.1406C271.383 62.9219 272.227 61.9531 273.195 61.2344C274.164 60.4844 275.164 59.9219 276.195 59.5469C277.258 59.1719 278.32 58.9844 279.383 58.9844ZM312.402 84.7656C312.402 83.8906 312.698 83.1562 313.292 82.5625C313.917 81.9375 314.667 81.625 315.542 81.625H324.542V66.5312H315.542C314.667 66.5312 313.933 66.2188 313.339 65.5938C312.714 65 312.402 64.2656 312.402 63.3906C312.402 62.5156 312.698 61.7812 313.292 61.1875C313.917 60.5625 314.667 60.25 315.542 60.25H339.823C340.698 60.25 341.448 60.5469 342.073 61.1406C342.667 61.7656 342.964 62.5156 342.964 63.3906C342.964 64.2656 342.652 65.0156 342.027 65.6406C341.433 66.2344 340.698 66.5312 339.823 66.5312H330.87V81.625H339.823C340.698 81.625 341.448 81.9219 342.073 82.5156C342.667 83.1406 342.964 83.8906 342.964 84.7656C342.964 85.6406 342.652 86.3906 342.027 87.0156C341.433 87.6094 340.698 87.9062 339.823 87.9062H315.542C314.667 87.9062 313.933 87.5938 313.339 86.9688C312.714 86.375 312.402 85.6406 312.402 84.7656ZM367.545 88.9844C365.92 88.9844 364.311 88.7969 362.717 88.4219C361.155 88.0469 359.655 87.5 358.217 86.7812C356.78 86.0312 355.514 85.0469 354.42 83.8281C353.327 82.6094 352.733 81.1562 352.639 79.4688V77.5V62.5469C352.639 61.6719 352.952 60.9531 353.577 60.3906C354.233 59.7969 354.998 59.5 355.873 59.5C357.748 59.6562 358.764 60.6719 358.92 62.5469V78.0156C358.983 78.9844 359.342 79.7969 359.998 80.4531C360.686 81.0781 361.436 81.5781 362.248 81.9531C363.092 82.3281 363.952 82.6094 364.827 82.7969C365.733 82.9844 366.639 83.0781 367.545 83.0781C368.452 83.0781 369.342 82.9844 370.217 82.7969C371.123 82.6094 371.983 82.3281 372.795 81.9531C373.639 81.5781 374.389 81.0781 375.045 80.4531C375.733 79.7969 376.108 78.9844 376.17 78.0156V62.5469C376.17 61.6719 376.483 60.9531 377.108 60.3906C377.764 59.7969 378.53 59.5 379.405 59.5C381.28 59.6562 382.311 60.6719 382.498 62.5469V77.5V79.4688C382.405 81.1562 381.795 82.6094 380.67 83.8281C379.577 85.0469 378.311 86.0312 376.873 86.7812C375.436 87.5 373.92 88.0469 372.327 88.4219C370.764 88.7969 369.17 88.9844 367.545 88.9844ZM403.47 58.9844C404.564 58.9844 405.627 59.1719 406.658 59.5469C407.72 59.9219 408.736 60.4688 409.705 61.1875C409.861 61.3438 410.033 61.5 410.22 61.6562C410.377 61.5 410.548 61.3438 410.736 61.1875C411.705 60.4688 412.705 59.9219 413.736 59.5469C414.798 59.1719 415.861 58.9844 416.923 58.9844C418.017 58.9844 419.08 59.1719 420.111 59.5469C421.173 59.9219 422.173 60.4844 423.111 61.2344C424.08 61.9531 424.923 62.9219 425.642 64.1406C426.392 65.3594 426.767 66.8125 426.767 68.5V85.4219C426.58 87.2969 425.548 88.3125 423.673 88.4688C422.798 88.4688 422.033 88.1875 421.377 87.625C420.752 87.0312 420.439 86.2969 420.439 85.4219V68.875C420.439 68.125 420.298 67.5 420.017 67C419.736 66.4688 419.423 66.0625 419.08 65.7812C418.736 65.4688 418.377 65.25 418.002 65.125C417.627 64.9688 417.252 64.8906 416.877 64.8906C416.502 64.8906 416.127 64.9688 415.752 65.125C415.408 65.25 415.064 65.4688 414.72 65.7812C414.377 66.0625 414.064 66.4688 413.783 67C413.502 67.5 413.345 68.125 413.314 68.875V85.4219C413.127 87.2969 412.095 88.3125 410.22 88.4688C409.345 88.4688 408.58 88.1875 407.923 87.625C407.298 87.0312 406.986 86.2969 406.986 85.4219V68.875C406.986 68.125 406.845 67.5 406.564 67C406.283 66.4688 405.97 66.0625 405.627 65.7812C405.283 65.4688 404.923 65.25 404.548 65.125C404.173 64.9688 403.798 64.8906 403.423 64.8906C403.048 64.8906 402.673 64.9688 402.298 65.125C401.955 65.25 401.611 65.4688 401.267 65.7812C400.923 66.0625 400.611 66.4688 400.33 67C400.048 67.5 399.892 68.125 399.861 68.875V85.4219C399.705 87.2969 398.689 88.3125 396.814 88.4688C395.939 88.4688 395.173 88.1875 394.517 87.625C393.892 87.0312 393.58 86.2969 393.58 85.4219V68.5C393.642 66.8125 394.033 65.3594 394.752 64.1406C395.47 62.9219 396.314 61.9531 397.283 61.2344C398.252 60.4844 399.252 59.9219 400.283 59.5469C401.345 59.1719 402.408 58.9844 403.47 58.9844Z" fill="white"/>
<path d="M197.188 542C198.312 542.042 199.271 542.458 200.062 543.25C200.854 544 201.271 544.938 201.312 546.062V562.25H204.875C206.042 562.292 207 562.729 207.75 563.562C208.542 564.396 208.938 565.396 208.938 566.562C208.896 567.688 208.479 568.646 207.688 569.438C206.938 570.188 206 570.583 204.875 570.625H201.312V576.688C201.062 579.188 199.688 580.542 197.188 580.75C196.021 580.75 195 580.375 194.125 579.625C193.292 578.833 192.875 577.854 192.875 576.688V570.625H179.625C176.708 570.458 174.292 569.479 172.375 567.688C170.5 565.854 169.146 563.625 168.312 561C167.521 558.375 167.104 555.583 167.062 552.625V546.062C167.104 544.938 167.521 544 168.312 543.25C169.104 542.458 170.062 542.042 171.188 542C172.354 542 173.354 542.396 174.188 543.188C175.021 543.938 175.458 544.896 175.5 546.062V551.875C175.458 553.583 175.562 555.167 175.812 556.625C176.104 558.042 176.771 559.312 177.812 560.438C178.854 561.562 180.167 562.167 181.75 562.25H192.875V546.062C192.917 544.896 193.354 543.938 194.188 543.188C195.021 542.396 196.021 542 197.188 542ZM252.775 579.75H228.275C227.108 579.708 226.129 579.271 225.338 578.438C224.588 577.604 224.213 576.604 224.213 575.438C224.421 572.938 225.775 571.583 228.275 571.375H250.65C252.233 571.292 253.546 570.688 254.588 569.562C255.629 568.438 256.379 567.167 256.838 565.75C257.338 564.292 257.588 562.812 257.588 561.312C257.588 559.812 257.338 558.375 256.838 557C256.379 555.583 255.629 554.312 254.588 553.188C253.546 552.062 252.233 551.458 250.65 551.375H234.025C233.233 551.333 232.567 551.479 232.025 551.812C231.525 552.146 231.15 552.542 230.9 553C230.65 553.417 230.525 553.854 230.525 554.312C230.525 554.604 230.65 555.021 230.9 555.562C231.15 556.062 231.525 556.479 232.025 556.812C232.567 557.146 233.233 557.333 234.025 557.375H250.025C251.192 557.375 252.171 557.792 252.963 558.625C253.796 559.417 254.213 560.396 254.213 561.562C254.213 562.729 253.817 563.729 253.025 564.562C252.192 565.354 251.192 565.75 250.025 565.75H234.4C231.483 565.667 229.067 565 227.15 563.75C225.275 562.458 223.921 561 223.088 559.375C222.296 557.708 221.9 556.021 221.9 554.312C221.9 552.646 222.317 551 223.15 549.375C223.983 547.708 225.338 546.25 227.213 545C229.088 543.708 231.483 543.062 234.4 543.062H234.775C235.025 543.021 235.275 543 235.525 543H252.775C255.692 543.167 258.088 544.292 259.963 546.375C261.879 548.417 263.233 550.729 264.025 553.312C264.858 555.896 265.275 558.562 265.275 561.312C265.275 564.062 264.858 566.75 264.025 569.375C263.192 572 261.838 574.354 259.963 576.438C258.088 578.479 255.692 579.583 252.775 579.75ZM309.175 579.75H284.675C283.508 579.708 282.529 579.271 281.738 578.438C280.988 577.604 280.613 576.604 280.613 575.438C280.821 572.938 282.175 571.583 284.675 571.375H307.05C308.633 571.292 309.946 570.688 310.988 569.562C312.029 568.438 312.779 567.167 313.238 565.75C313.738 564.292 313.988 562.812 313.988 561.312C313.988 559.812 313.738 558.375 313.238 557C312.779 555.583 312.029 554.312 310.988 553.188C309.946 552.062 308.633 551.458 307.05 551.375H290.425C289.633 551.333 288.967 551.479 288.425 551.812C287.925 552.146 287.55 552.542 287.3 553C287.05 553.417 286.925 553.854 286.925 554.312C286.925 554.604 287.05 555.021 287.3 555.562C287.55 556.062 287.925 556.479 288.425 556.812C288.967 557.146 289.633 557.333 290.425 557.375H306.425C307.592 557.375 308.571 557.792 309.363 558.625C310.196 559.417 310.613 560.396 310.613 561.562C310.613 562.729 310.217 563.729 309.425 564.562C308.592 565.354 307.592 565.75 306.425 565.75H290.8C287.883 565.667 285.467 565 283.55 563.75C281.675 562.458 280.321 561 279.488 559.375C278.696 557.708 278.3 556.021 278.3 554.312C278.3 552.646 278.717 551 279.55 549.375C280.383 547.708 281.738 546.25 283.613 545C285.488 543.708 287.883 543.062 290.8 543.062H291.175C291.425 543.021 291.675 543 291.925 543H309.175C312.092 543.167 314.488 544.292 316.363 546.375C318.279 548.417 319.633 550.729 320.425 553.312C321.258 555.896 321.675 558.562 321.675 561.312C321.675 564.062 321.258 566.75 320.425 569.375C319.592 572 318.238 574.354 316.363 576.438C314.488 578.479 312.092 579.583 309.175 579.75ZM365.575 579.75H341.075C339.908 579.708 338.929 579.271 338.137 578.438C337.387 577.604 337.012 576.604 337.012 575.438C337.221 572.938 338.575 571.583 341.075 571.375H363.45C365.033 571.292 366.346 570.688 367.387 569.562C368.429 568.438 369.179 567.167 369.637 565.75C370.137 564.292 370.387 562.812 370.387 561.312C370.387 559.812 370.137 558.375 369.637 557C369.179 555.583 368.429 554.312 367.387 553.188C366.346 552.062 365.033 551.458 363.45 551.375H346.825C346.033 551.333 345.367 551.479 344.825 551.812C344.325 552.146 343.95 552.542 343.7 553C343.45 553.417 343.325 553.854 343.325 554.312C343.325 554.604 343.45 555.021 343.7 555.562C343.95 556.062 344.325 556.479 344.825 556.812C345.367 557.146 346.033 557.333 346.825 557.375H362.825C363.992 557.375 364.971 557.792 365.762 558.625C366.596 559.417 367.012 560.396 367.012 561.562C367.012 562.729 366.617 563.729 365.825 564.562C364.992 565.354 363.992 565.75 362.825 565.75H347.2C344.283 565.667 341.867 565 339.95 563.75C338.075 562.458 336.721 561 335.887 559.375C335.096 557.708 334.7 556.021 334.7 554.312C334.7 552.646 335.117 551 335.95 549.375C336.783 547.708 338.137 546.25 340.012 545C341.887 543.708 344.283 543.062 347.2 543.062H347.575C347.825 543.021 348.075 543 348.325 543H365.575C368.492 543.167 370.887 544.292 372.762 546.375C374.679 548.417 376.033 550.729 376.825 553.312C377.658 555.896 378.075 558.562 378.075 561.312C378.075 564.062 377.658 566.75 376.825 569.375C375.992 572 374.637 574.354 372.762 576.438C370.887 578.479 368.492 579.583 365.575 579.75ZM398.288 580.875C396.621 580.875 395.225 580.292 394.1 579.125C393.017 577.958 392.475 576.5 392.475 574.75C392.475 573 393.017 571.542 394.1 570.375C395.225 569.208 396.621 568.625 398.288 568.625C399.954 568.625 401.35 569.208 402.475 570.375C403.6 571.542 404.163 573 404.163 574.75C404.163 576.5 403.6 577.958 402.475 579.125C401.35 580.292 399.954 580.875 398.288 580.875ZM421.562 565C420.646 565 419.854 564.688 419.188 564.062C418.521 563.396 418.188 562.604 418.188 561.688C418.188 560.729 418.521 559.938 419.188 559.312C419.854 558.646 420.646 558.312 421.562 558.312H432.312C433.229 558.312 434.021 558.646 434.688 559.312C435.354 559.938 435.688 560.729 435.688 561.688C435.688 562.604 435.354 563.396 434.688 564.062C434.021 564.688 433.229 565 432.312 565H421.562Z" fill="white"/>
<path d="M123.58 165.295H120.035C119.898 164.538 119.645 163.871 119.273 163.295C118.902 162.72 118.448 162.231 117.91 161.83C117.372 161.428 116.77 161.125 116.103 160.92C115.444 160.716 114.743 160.614 114.001 160.614C112.66 160.614 111.459 160.951 110.398 161.625C109.345 162.299 108.512 163.288 107.898 164.591C107.292 165.894 106.989 167.485 106.989 169.364C106.989 171.258 107.292 172.856 107.898 174.159C108.512 175.462 109.349 176.447 110.41 177.114C111.47 177.78 112.663 178.114 113.989 178.114C114.724 178.114 115.421 178.015 116.08 177.818C116.747 177.614 117.349 177.314 117.887 176.92C118.425 176.527 118.879 176.045 119.251 175.477C119.629 174.902 119.891 174.242 120.035 173.5L123.58 173.511C123.391 174.655 123.023 175.708 122.478 176.67C121.94 177.625 121.247 178.451 120.398 179.148C119.557 179.837 118.595 180.371 117.512 180.75C116.429 181.129 115.247 181.318 113.966 181.318C111.951 181.318 110.156 180.841 108.58 179.886C107.004 178.924 105.762 177.549 104.853 175.761C103.951 173.973 103.501 171.841 103.501 169.364C103.501 166.879 103.955 164.746 104.864 162.966C105.773 161.178 107.016 159.807 108.591 158.852C110.167 157.89 111.959 157.409 113.966 157.409C115.201 157.409 116.353 157.587 117.421 157.943C118.497 158.292 119.463 158.807 120.319 159.489C121.175 160.163 121.883 160.989 122.444 161.966C123.004 162.936 123.383 164.045 123.58 165.295ZM140.505 176.795L146.141 163.545H149.073L141.766 181H139.243L132.084 163.545H134.982L140.505 176.795ZM134.039 163.545V181H130.709V163.545H134.039ZM147.061 181V163.545H150.368V181H147.061ZM165.619 181.352C163.9 181.352 162.419 180.985 161.176 180.25C159.941 179.508 158.987 178.466 158.312 177.125C157.646 175.777 157.312 174.197 157.312 172.386C157.312 170.598 157.646 169.023 158.312 167.659C158.987 166.295 159.926 165.231 161.131 164.466C162.343 163.701 163.759 163.318 165.381 163.318C166.366 163.318 167.32 163.481 168.244 163.807C169.169 164.133 169.998 164.644 170.733 165.341C171.468 166.038 172.047 166.943 172.472 168.057C172.896 169.163 173.108 170.508 173.108 172.091V173.295H159.233V170.75H169.778C169.778 169.856 169.597 169.064 169.233 168.375C168.869 167.678 168.358 167.129 167.699 166.727C167.047 166.326 166.282 166.125 165.403 166.125C164.449 166.125 163.616 166.36 162.903 166.83C162.199 167.292 161.653 167.898 161.267 168.648C160.888 169.39 160.699 170.197 160.699 171.068V173.057C160.699 174.223 160.903 175.216 161.312 176.034C161.729 176.852 162.309 177.477 163.051 177.909C163.794 178.333 164.661 178.545 165.653 178.545C166.297 178.545 166.884 178.455 167.415 178.273C167.945 178.083 168.403 177.803 168.79 177.432C169.176 177.061 169.472 176.602 169.676 176.057L172.892 176.636C172.634 177.583 172.172 178.413 171.506 179.125C170.847 179.83 170.017 180.379 169.017 180.773C168.025 181.159 166.892 181.352 165.619 181.352ZM191.907 170.807V173.75H182.453V170.807H191.907ZM183.407 163.545V181H180.078V163.545H183.407ZM194.282 163.545V181H190.964V163.545H194.282ZM207.107 181.386C206.001 181.386 205.001 181.182 204.107 180.773C203.213 180.356 202.505 179.754 201.982 178.966C201.467 178.178 201.21 177.212 201.21 176.068C201.21 175.083 201.399 174.273 201.778 173.636C202.157 173 202.668 172.496 203.312 172.125C203.956 171.754 204.676 171.473 205.471 171.284C206.266 171.095 207.077 170.951 207.903 170.852C208.948 170.731 209.797 170.633 210.448 170.557C211.1 170.473 211.573 170.341 211.869 170.159C212.164 169.977 212.312 169.682 212.312 169.273V169.193C212.312 168.201 212.032 167.432 211.471 166.886C210.918 166.341 210.092 166.068 208.994 166.068C207.85 166.068 206.948 166.322 206.289 166.83C205.638 167.33 205.187 167.886 204.937 168.5L201.744 167.773C202.123 166.712 202.676 165.856 203.403 165.205C204.138 164.545 204.982 164.068 205.937 163.773C206.891 163.47 207.895 163.318 208.948 163.318C209.645 163.318 210.384 163.402 211.164 163.568C211.952 163.727 212.687 164.023 213.369 164.455C214.058 164.886 214.623 165.504 215.062 166.307C215.501 167.102 215.721 168.136 215.721 169.409V181H212.403V178.614H212.266C212.047 179.053 211.717 179.485 211.278 179.909C210.838 180.333 210.274 180.686 209.585 180.966C208.895 181.246 208.07 181.386 207.107 181.386ZM207.846 178.659C208.785 178.659 209.588 178.473 210.255 178.102C210.929 177.731 211.441 177.246 211.789 176.648C212.145 176.042 212.323 175.394 212.323 174.705V172.455C212.202 172.576 211.967 172.689 211.619 172.795C211.278 172.894 210.888 172.981 210.448 173.057C210.009 173.125 209.581 173.189 209.164 173.25C208.748 173.303 208.399 173.348 208.119 173.386C207.46 173.47 206.857 173.61 206.312 173.807C205.774 174.004 205.342 174.288 205.016 174.659C204.698 175.023 204.539 175.508 204.539 176.114C204.539 176.955 204.85 177.591 205.471 178.023C206.092 178.447 206.884 178.659 207.846 178.659ZM242.468 181.352C240.778 181.352 239.324 180.97 238.104 180.205C236.892 179.432 235.96 178.367 235.309 177.011C234.657 175.655 234.331 174.102 234.331 172.352C234.331 170.58 234.665 169.015 235.331 167.659C235.998 166.295 236.937 165.231 238.149 164.466C239.362 163.701 240.79 163.318 242.434 163.318C243.759 163.318 244.941 163.564 245.979 164.057C247.017 164.542 247.854 165.223 248.49 166.102C249.134 166.981 249.517 168.008 249.638 169.182H246.331C246.149 168.364 245.733 167.659 245.081 167.068C244.437 166.477 243.574 166.182 242.49 166.182C241.543 166.182 240.714 166.432 240.002 166.932C239.297 167.424 238.748 168.129 238.354 169.045C237.96 169.955 237.763 171.03 237.763 172.273C237.763 173.545 237.956 174.644 238.343 175.568C238.729 176.492 239.274 177.208 239.979 177.716C240.691 178.223 241.528 178.477 242.49 178.477C243.134 178.477 243.718 178.36 244.24 178.125C244.771 177.883 245.214 177.538 245.57 177.091C245.934 176.644 246.187 176.106 246.331 175.477H249.638C249.517 176.606 249.149 177.614 248.536 178.5C247.922 179.386 247.1 180.083 246.07 180.591C245.047 181.098 243.846 181.352 242.468 181.352ZM276.924 157.727V181H273.402V161.25H273.265L267.697 164.886V161.523L273.504 157.727H276.924ZM298.134 181V163.545H312.373V181H309.043V166.477H301.441V181H298.134ZM327.468 181.352C325.831 181.352 324.403 180.977 323.184 180.227C321.964 179.477 321.017 178.428 320.343 177.08C319.668 175.731 319.331 174.155 319.331 172.352C319.331 170.542 319.668 168.958 320.343 167.602C321.017 166.246 321.964 165.193 323.184 164.443C324.403 163.693 325.831 163.318 327.468 163.318C329.104 163.318 330.532 163.693 331.752 164.443C332.971 165.193 333.918 166.246 334.593 167.602C335.267 168.958 335.604 170.542 335.604 172.352C335.604 174.155 335.267 175.731 334.593 177.08C333.918 178.428 332.971 179.477 331.752 180.227C330.532 180.977 329.104 181.352 327.468 181.352ZM327.479 178.5C328.54 178.5 329.418 178.22 330.115 177.659C330.812 177.098 331.327 176.352 331.661 175.42C332.002 174.489 332.172 173.462 332.172 172.341C332.172 171.227 332.002 170.205 331.661 169.273C331.327 168.333 330.812 167.58 330.115 167.011C329.418 166.443 328.54 166.159 327.479 166.159C326.411 166.159 325.524 166.443 324.82 167.011C324.123 167.58 323.604 168.333 323.263 169.273C322.93 170.205 322.763 171.227 322.763 172.341C322.763 173.462 322.93 174.489 323.263 175.42C323.604 176.352 324.123 177.098 324.82 177.659C325.524 178.22 326.411 178.5 327.479 178.5ZM363.049 157.727V181H359.527V161.25H359.39L353.822 164.886V161.523L359.629 157.727H363.049ZM372.056 176.455V173.614L382.113 157.727H384.352V161.909H382.931L375.738 173.295V173.477H389.522V176.455H372.056ZM383.09 181V175.591L383.113 174.295V157.727H386.443V181H383.09ZM411.726 176.239L419.419 163.545H423.078V181H419.749V168.295L412.09 181H408.397V163.545H411.726V176.239ZM439.631 170.932V173.886H430.324V170.932H439.631ZM433.085 163.545V181H429.688V163.545H433.085ZM444.949 181.352C443.328 181.352 441.911 180.973 440.699 180.216C439.487 179.458 438.547 178.405 437.881 177.057C437.214 175.701 436.881 174.129 436.881 172.341C436.881 170.538 437.214 168.962 437.881 167.614C438.547 166.258 439.487 165.205 440.699 164.455C441.911 163.697 443.328 163.318 444.949 163.318C446.578 163.318 447.994 163.697 449.199 164.455C450.411 165.205 451.35 166.258 452.017 167.614C452.691 168.962 453.028 170.538 453.028 172.341C453.028 174.129 452.691 175.701 452.017 177.057C451.35 178.405 450.411 179.458 449.199 180.216C447.994 180.973 446.578 181.352 444.949 181.352ZM444.949 178.443C446.047 178.443 446.945 178.167 447.642 177.614C448.347 177.053 448.866 176.311 449.199 175.386C449.532 174.462 449.699 173.447 449.699 172.341C449.699 171.227 449.532 170.208 449.199 169.284C448.866 168.352 448.347 167.606 447.642 167.045C446.945 166.485 446.047 166.205 444.949 166.205C443.858 166.205 442.96 166.485 442.256 167.045C441.551 167.606 441.032 168.352 440.699 169.284C440.366 170.208 440.199 171.227 440.199 172.341C440.199 173.447 440.366 174.462 440.699 175.386C441.032 176.311 441.551 177.053 442.256 177.614C442.96 178.167 443.858 178.443 444.949 178.443ZM458.859 181L458.848 178.057H459.473C459.958 178.057 460.363 177.955 460.689 177.75C461.022 177.538 461.295 177.182 461.507 176.682C461.719 176.182 461.882 175.492 461.995 174.614C462.109 173.727 462.192 172.614 462.245 171.273L462.552 163.545H474.734V181H471.405V166.477H465.7L465.427 172.409C465.359 173.848 465.211 175.106 464.984 176.182C464.764 177.258 464.442 178.155 464.018 178.875C463.594 179.587 463.048 180.121 462.382 180.477C461.715 180.826 460.905 181 459.95 181H458.859ZM492.874 181V166.443H488.693C487.7 166.443 486.927 166.674 486.374 167.136C485.821 167.598 485.545 168.205 485.545 168.955C485.545 169.697 485.799 170.295 486.306 170.75C486.821 171.197 487.541 171.42 488.465 171.42H493.863V174.17H488.465C487.177 174.17 486.064 173.958 485.124 173.534C484.193 173.102 483.473 172.492 482.965 171.705C482.465 170.917 482.215 169.985 482.215 168.909C482.215 167.811 482.473 166.864 482.988 166.068C483.511 165.265 484.257 164.644 485.227 164.205C486.204 163.765 487.359 163.545 488.693 163.545H496.068V181H492.874ZM481.42 181L486.34 172.182H489.818L484.897 181H481.42Z" fill="white"/>
<path d="M79.7395 324.295H76.194C76.0577 323.538 75.8039 322.871 75.4327 322.295C75.0615 321.72 74.6069 321.231 74.069 320.83C73.5311 320.428 72.9289 320.125 72.2622 319.92C71.6031 319.716 70.9024 319.614 70.1599 319.614C68.819 319.614 67.6183 319.951 66.5577 320.625C65.5046 321.299 64.6713 322.288 64.0577 323.591C63.4516 324.894 63.1486 326.485 63.1486 328.364C63.1486 330.258 63.4516 331.856 64.0577 333.159C64.6713 334.462 65.5084 335.447 66.569 336.114C67.6296 336.78 68.8228 337.114 70.1486 337.114C70.8834 337.114 71.5804 337.015 72.2395 336.818C72.9061 336.614 73.5084 336.314 74.0463 335.92C74.5842 335.527 75.0387 335.045 75.4099 334.477C75.7887 333.902 76.0501 333.242 76.194 332.5L79.7395 332.511C79.5501 333.655 79.1827 334.708 78.6372 335.67C78.0993 336.625 77.4062 337.451 76.5577 338.148C75.7168 338.837 74.7546 339.371 73.6713 339.75C72.588 340.129 71.4061 340.318 70.1258 340.318C68.1107 340.318 66.3152 339.841 64.7395 338.886C63.1637 337.924 61.9213 336.549 61.0122 334.761C60.1107 332.973 59.6599 330.841 59.6599 328.364C59.6599 325.879 60.1145 323.746 61.0236 321.966C61.9327 320.178 63.1751 318.807 64.7508 317.852C66.3266 316.89 68.1183 316.409 70.1258 316.409C71.3607 316.409 72.5122 316.587 73.5804 316.943C74.6561 317.292 75.6221 317.807 76.4781 318.489C77.3342 319.163 78.0425 319.989 78.6031 320.966C79.1637 321.936 79.5425 323.045 79.7395 324.295ZM86.8685 340V322.545H101.107V340H97.7775V325.477H90.1753V340H86.8685ZM116.202 340.352C114.566 340.352 113.138 339.977 111.918 339.227C110.698 338.477 109.751 337.428 109.077 336.08C108.403 334.731 108.066 333.155 108.066 331.352C108.066 329.542 108.403 327.958 109.077 326.602C109.751 325.246 110.698 324.193 111.918 323.443C113.138 322.693 114.566 322.318 116.202 322.318C117.838 322.318 119.266 322.693 120.486 323.443C121.706 324.193 122.653 325.246 123.327 326.602C124.001 327.958 124.338 329.542 124.338 331.352C124.338 333.155 124.001 334.731 123.327 336.08C122.653 337.428 121.706 338.477 120.486 339.227C119.266 339.977 117.838 340.352 116.202 340.352ZM116.213 337.5C117.274 337.5 118.153 337.22 118.85 336.659C119.547 336.098 120.062 335.352 120.395 334.42C120.736 333.489 120.907 332.462 120.907 331.341C120.907 330.227 120.736 329.205 120.395 328.273C120.062 327.333 119.547 326.58 118.85 326.011C118.153 325.443 117.274 325.159 116.213 325.159C115.145 325.159 114.259 325.443 113.554 326.011C112.857 326.58 112.338 327.333 111.997 328.273C111.664 329.205 111.497 330.227 111.497 331.341C111.497 332.462 111.664 333.489 111.997 334.42C112.338 335.352 112.857 336.098 113.554 336.659C114.259 337.22 115.145 337.5 116.213 337.5ZM131.331 346.545V322.545H134.649V325.375H134.933C135.13 325.011 135.414 324.591 135.786 324.114C136.157 323.636 136.672 323.22 137.331 322.864C137.99 322.5 138.861 322.318 139.945 322.318C141.354 322.318 142.611 322.674 143.717 323.386C144.823 324.098 145.691 325.125 146.32 326.466C146.956 327.807 147.274 329.42 147.274 331.307C147.274 333.193 146.96 334.811 146.331 336.159C145.702 337.5 144.839 338.534 143.74 339.261C142.642 339.981 141.388 340.341 139.979 340.341C138.918 340.341 138.051 340.163 137.376 339.807C136.71 339.451 136.187 339.034 135.808 338.557C135.429 338.08 135.138 337.655 134.933 337.284H134.729V346.545H131.331ZM134.661 331.273C134.661 332.5 134.839 333.576 135.195 334.5C135.551 335.424 136.066 336.148 136.74 336.67C137.414 337.186 138.24 337.443 139.217 337.443C140.232 337.443 141.081 337.174 141.763 336.636C142.445 336.091 142.96 335.352 143.308 334.42C143.664 333.489 143.842 332.439 143.842 331.273C143.842 330.121 143.668 329.087 143.32 328.17C142.979 327.254 142.464 326.53 141.774 326C141.092 325.47 140.24 325.205 139.217 325.205C138.232 325.205 137.399 325.458 136.717 325.966C136.043 326.473 135.532 327.182 135.183 328.091C134.835 329 134.661 330.061 134.661 331.273ZM152.179 325.477V322.545H166.906V325.477H161.213V340H157.895V325.477H152.179ZM177.029 335.239L184.722 322.545H188.382V340H185.052V327.295L177.393 340H173.7V322.545H177.029V335.239ZM196.15 340V322.545H203.388C205.358 322.545 206.919 322.966 208.07 323.807C209.222 324.64 209.797 325.773 209.797 327.205C209.797 328.227 209.472 329.038 208.82 329.636C208.169 330.235 207.305 330.636 206.229 330.841C207.01 330.932 207.725 331.167 208.377 331.545C209.028 331.917 209.551 332.417 209.945 333.045C210.347 333.674 210.547 334.424 210.547 335.295C210.547 336.22 210.309 337.038 209.832 337.75C209.354 338.455 208.661 339.008 207.752 339.409C206.85 339.803 205.763 340 204.491 340H196.15ZM199.343 337.159H204.491C205.332 337.159 205.991 336.958 206.468 336.557C206.945 336.155 207.184 335.61 207.184 334.92C207.184 334.11 206.945 333.473 206.468 333.011C205.991 332.542 205.332 332.307 204.491 332.307H199.343V337.159ZM199.343 329.818H203.422C204.059 329.818 204.604 329.727 205.059 329.545C205.521 329.364 205.873 329.106 206.116 328.773C206.366 328.432 206.491 328.03 206.491 327.568C206.491 326.894 206.214 326.367 205.661 325.989C205.108 325.61 204.35 325.42 203.388 325.42H199.343V329.818ZM229.304 329.807V332.75H219.85V329.807H229.304ZM220.804 322.545V340H217.475V322.545H220.804ZM231.679 322.545V340H228.361V322.545H231.679ZM241.982 328.545H247.05C249.186 328.545 250.83 329.076 251.982 330.136C253.133 331.197 253.709 332.564 253.709 334.239C253.709 335.33 253.451 336.311 252.936 337.182C252.421 338.053 251.667 338.742 250.675 339.25C249.682 339.75 248.474 340 247.05 340H239.425V322.545H242.754V337.068H247.05C248.027 337.068 248.83 336.814 249.459 336.307C250.088 335.792 250.402 335.136 250.402 334.341C250.402 333.5 250.088 332.814 249.459 332.284C248.83 331.746 248.027 331.477 247.05 331.477H241.982V328.545ZM256.186 340V322.545H259.584V340H256.186ZM274.866 340.352C273.147 340.352 271.665 339.985 270.423 339.25C269.188 338.508 268.234 337.466 267.559 336.125C266.893 334.777 266.559 333.197 266.559 331.386C266.559 329.598 266.893 328.023 267.559 326.659C268.234 325.295 269.173 324.231 270.378 323.466C271.59 322.701 273.006 322.318 274.628 322.318C275.612 322.318 276.567 322.481 277.491 322.807C278.415 323.133 279.245 323.644 279.98 324.341C280.715 325.038 281.294 325.943 281.718 327.057C282.143 328.163 282.355 329.508 282.355 331.091V332.295H268.48V329.75H279.025C279.025 328.856 278.843 328.064 278.48 327.375C278.116 326.678 277.605 326.129 276.946 325.727C276.294 325.326 275.529 325.125 274.65 325.125C273.696 325.125 272.862 325.36 272.15 325.83C271.446 326.292 270.9 326.898 270.514 327.648C270.135 328.39 269.946 329.197 269.946 330.068V332.057C269.946 333.223 270.15 334.216 270.559 335.034C270.976 335.852 271.556 336.477 272.298 336.909C273.04 337.333 273.908 337.545 274.9 337.545C275.544 337.545 276.131 337.455 276.662 337.273C277.192 337.083 277.65 336.803 278.037 336.432C278.423 336.061 278.718 335.602 278.923 335.057L282.139 335.636C281.881 336.583 281.419 337.413 280.753 338.125C280.093 338.83 279.264 339.379 278.264 339.773C277.272 340.159 276.139 340.352 274.866 340.352ZM310.789 335.795L316.425 322.545H319.357L312.05 340H309.528L302.368 322.545H305.266L310.789 335.795ZM304.323 322.545V340H300.993V322.545H304.323ZM317.346 340V322.545H320.653V340H317.346ZM335.904 340.352C334.184 340.352 332.703 339.985 331.46 339.25C330.226 338.508 329.271 337.466 328.597 336.125C327.93 334.777 327.597 333.197 327.597 331.386C327.597 329.598 327.93 328.023 328.597 326.659C329.271 325.295 330.21 324.231 331.415 323.466C332.627 322.701 334.044 322.318 335.665 322.318C336.65 322.318 337.604 322.481 338.529 322.807C339.453 323.133 340.282 323.644 341.017 324.341C341.752 325.038 342.332 325.943 342.756 327.057C343.18 328.163 343.392 329.508 343.392 331.091V332.295H329.517V329.75H340.063C340.063 328.856 339.881 328.064 339.517 327.375C339.154 326.678 338.642 326.129 337.983 325.727C337.332 325.326 336.567 325.125 335.688 325.125C334.733 325.125 333.9 325.36 333.188 325.83C332.483 326.292 331.938 326.898 331.551 327.648C331.173 328.39 330.983 329.197 330.983 330.068V332.057C330.983 333.223 331.188 334.216 331.597 335.034C332.014 335.852 332.593 336.477 333.335 336.909C334.078 337.333 334.945 337.545 335.938 337.545C336.582 337.545 337.169 337.455 337.699 337.273C338.229 337.083 338.688 336.803 339.074 336.432C339.46 336.061 339.756 335.602 339.96 335.057L343.176 335.636C342.919 336.583 342.457 337.413 341.79 338.125C341.131 338.83 340.301 339.379 339.301 339.773C338.309 340.159 337.176 340.352 335.904 340.352ZM350.362 346.545V322.545H353.68V325.375H353.964C354.161 325.011 354.446 324.591 354.817 324.114C355.188 323.636 355.703 323.22 356.362 322.864C357.021 322.5 357.893 322.318 358.976 322.318C360.385 322.318 361.643 322.674 362.749 323.386C363.855 324.098 364.722 325.125 365.351 326.466C365.987 327.807 366.305 329.42 366.305 331.307C366.305 333.193 365.991 334.811 365.362 336.159C364.733 337.5 363.87 338.534 362.771 339.261C361.673 339.981 360.419 340.341 359.01 340.341C357.949 340.341 357.082 340.163 356.408 339.807C355.741 339.451 355.218 339.034 354.839 338.557C354.461 338.08 354.169 337.655 353.964 337.284H353.76V346.545H350.362ZM353.692 331.273C353.692 332.5 353.87 333.576 354.226 334.5C354.582 335.424 355.097 336.148 355.771 336.67C356.446 337.186 357.271 337.443 358.249 337.443C359.264 337.443 360.112 337.174 360.794 336.636C361.476 336.091 361.991 335.352 362.339 334.42C362.696 333.489 362.874 332.439 362.874 331.273C362.874 330.121 362.699 329.087 362.351 328.17C362.01 327.254 361.495 326.53 360.805 326C360.124 325.47 359.271 325.205 358.249 325.205C357.264 325.205 356.43 325.458 355.749 325.966C355.074 326.473 354.563 327.182 354.214 328.091C353.866 329 353.692 330.061 353.692 331.273ZM380.664 340.352C379.028 340.352 377.6 339.977 376.38 339.227C375.161 338.477 374.214 337.428 373.539 336.08C372.865 334.731 372.528 333.155 372.528 331.352C372.528 329.542 372.865 327.958 373.539 326.602C374.214 325.246 375.161 324.193 376.38 323.443C377.6 322.693 379.028 322.318 380.664 322.318C382.301 322.318 383.729 322.693 384.949 323.443C386.168 324.193 387.115 325.246 387.789 326.602C388.464 327.958 388.801 329.542 388.801 331.352C388.801 333.155 388.464 334.731 387.789 336.08C387.115 337.428 386.168 338.477 384.949 339.227C383.729 339.977 382.301 340.352 380.664 340.352ZM380.676 337.5C381.736 337.5 382.615 337.22 383.312 336.659C384.009 336.098 384.524 335.352 384.858 334.42C385.199 333.489 385.369 332.462 385.369 331.341C385.369 330.227 385.199 329.205 384.858 328.273C384.524 327.333 384.009 326.58 383.312 326.011C382.615 325.443 381.736 325.159 380.676 325.159C379.608 325.159 378.721 325.443 378.017 326.011C377.32 326.58 376.801 327.333 376.46 328.273C376.127 329.205 375.96 330.227 375.96 331.341C375.96 332.462 376.127 333.489 376.46 334.42C376.801 335.352 377.32 336.098 378.017 336.659C378.721 337.22 379.608 337.5 380.676 337.5ZM395.793 340V322.545H410.032V340H406.703V325.477H399.1V340H395.793ZM417.775 346.545V322.545H421.093V325.375H421.377C421.574 325.011 421.858 324.591 422.229 324.114C422.6 323.636 423.116 323.22 423.775 322.864C424.434 322.5 425.305 322.318 426.388 322.318C427.797 322.318 429.055 322.674 430.161 323.386C431.267 324.098 432.135 325.125 432.763 326.466C433.4 327.807 433.718 329.42 433.718 331.307C433.718 333.193 433.404 334.811 432.775 336.159C432.146 337.5 431.282 338.534 430.184 339.261C429.085 339.981 427.832 340.341 426.422 340.341C425.362 340.341 424.494 340.163 423.82 339.807C423.154 339.451 422.631 339.034 422.252 338.557C421.873 338.08 421.582 337.655 421.377 337.284H421.172V346.545H417.775ZM421.104 331.273C421.104 332.5 421.282 333.576 421.638 334.5C421.994 335.424 422.51 336.148 423.184 336.67C423.858 337.186 424.684 337.443 425.661 337.443C426.676 337.443 427.525 337.174 428.207 336.636C428.888 336.091 429.404 335.352 429.752 334.42C430.108 333.489 430.286 332.439 430.286 331.273C430.286 330.121 430.112 329.087 429.763 328.17C429.422 327.254 428.907 326.53 428.218 326C427.536 325.47 426.684 325.205 425.661 325.205C424.676 325.205 423.843 325.458 423.161 325.966C422.487 326.473 421.975 327.182 421.627 328.091C421.279 329 421.104 330.061 421.104 331.273ZM444.054 335.239L451.747 322.545H455.407V340H452.077V327.295L444.418 340H440.725V322.545H444.054V335.239ZM473.584 340V325.443H469.402C468.41 325.443 467.637 325.674 467.084 326.136C466.531 326.598 466.254 327.205 466.254 327.955C466.254 328.697 466.508 329.295 467.016 329.75C467.531 330.197 468.25 330.42 469.175 330.42H474.572V333.17H469.175C467.887 333.17 466.773 332.958 465.834 332.534C464.902 332.102 464.182 331.492 463.675 330.705C463.175 329.917 462.925 328.985 462.925 327.909C462.925 326.811 463.182 325.864 463.697 325.068C464.22 324.265 464.966 323.644 465.936 323.205C466.913 322.765 468.069 322.545 469.402 322.545H476.777V340H473.584ZM462.129 340L467.05 331.182H470.527L465.607 340H462.129ZM482.335 325.477V322.545H497.062V325.477H491.369V340H488.051V325.477H482.335ZM507.186 335.239L514.879 322.545H518.538V340H515.208V327.295L507.549 340H503.856V322.545H507.186V335.239ZM536.715 340V325.443H532.533C531.541 325.443 530.768 325.674 530.215 326.136C529.662 326.598 529.385 327.205 529.385 327.955C529.385 328.697 529.639 329.295 530.147 329.75C530.662 330.197 531.382 330.42 532.306 330.42H537.704V333.17H532.306C531.018 333.17 529.904 332.958 528.965 332.534C528.033 332.102 527.314 331.492 526.806 330.705C526.306 329.917 526.056 328.985 526.056 327.909C526.056 326.811 526.314 325.864 526.829 325.068C527.351 324.265 528.098 323.644 529.067 323.205C530.045 322.765 531.2 322.545 532.533 322.545H539.908V340H536.715ZM525.26 340L530.181 331.182H533.658L528.738 340H525.26Z" fill="white"/>
<path d="M276.488 388.364C276.488 390.848 276.034 392.985 275.125 394.773C274.216 396.553 272.969 397.924 271.386 398.886C269.81 399.841 268.019 400.318 266.011 400.318C263.996 400.318 262.197 399.841 260.613 398.886C259.038 397.924 257.795 396.549 256.886 394.761C255.977 392.973 255.522 390.841 255.522 388.364C255.522 385.879 255.977 383.746 256.886 381.966C257.795 380.178 259.038 378.807 260.613 377.852C262.197 376.89 263.996 376.409 266.011 376.409C268.019 376.409 269.81 376.89 271.386 377.852C272.969 378.807 274.216 380.178 275.125 381.966C276.034 383.746 276.488 385.879 276.488 388.364ZM273.011 388.364C273.011 386.47 272.704 384.875 272.091 383.58C271.485 382.277 270.651 381.292 269.591 380.625C268.538 379.951 267.344 379.614 266.011 379.614C264.67 379.614 263.473 379.951 262.42 380.625C261.367 381.292 260.534 382.277 259.92 383.58C259.314 384.875 259.011 386.47 259.011 388.364C259.011 390.258 259.314 391.856 259.92 393.159C260.534 394.455 261.367 395.439 262.42 396.114C263.473 396.78 264.67 397.114 266.011 397.114C267.344 397.114 268.538 396.78 269.591 396.114C270.651 395.439 271.485 394.455 272.091 393.159C272.704 391.856 273.011 390.258 273.011 388.364ZM297.259 376.045L298.668 378.193C298.146 378.67 297.551 379.011 296.884 379.216C296.225 379.413 295.464 379.538 294.6 379.591C293.737 379.636 292.748 379.678 291.634 379.716C290.377 379.754 289.343 380.027 288.532 380.534C287.721 381.034 287.096 381.777 286.657 382.761C286.225 383.739 285.945 384.966 285.816 386.443H286.032C286.6 385.36 287.388 384.549 288.396 384.011C289.411 383.473 290.551 383.205 291.816 383.205C293.225 383.205 294.479 383.527 295.578 384.17C296.676 384.814 297.54 385.758 298.168 387C298.805 388.235 299.123 389.746 299.123 391.534C299.123 393.345 298.79 394.909 298.123 396.227C297.464 397.545 296.532 398.564 295.328 399.284C294.131 399.996 292.718 400.352 291.089 400.352C289.46 400.352 288.04 399.985 286.828 399.25C285.623 398.508 284.687 397.409 284.021 395.955C283.362 394.5 283.032 392.705 283.032 390.568V388.841C283.032 384.848 283.744 381.845 285.168 379.83C286.593 377.814 288.721 376.78 291.555 376.727C292.471 376.705 293.29 376.701 294.009 376.716C294.729 376.723 295.358 376.689 295.896 376.614C296.441 376.53 296.896 376.341 297.259 376.045ZM291.1 397.5C292.047 397.5 292.862 397.261 293.543 396.784C294.233 396.299 294.763 395.614 295.134 394.727C295.506 393.841 295.691 392.795 295.691 391.591C295.691 390.409 295.506 389.405 295.134 388.58C294.763 387.754 294.233 387.125 293.543 386.693C292.854 386.254 292.028 386.034 291.066 386.034C290.354 386.034 289.718 386.159 289.157 386.409C288.596 386.652 288.115 387.011 287.714 387.489C287.32 387.966 287.013 388.549 286.793 389.239C286.581 389.92 286.468 390.705 286.453 391.591C286.453 393.394 286.865 394.83 287.691 395.898C288.525 396.966 289.661 397.5 291.1 397.5ZM313.641 400.352C311.922 400.352 310.44 399.985 309.198 399.25C307.963 398.508 307.009 397.466 306.334 396.125C305.668 394.777 305.334 393.197 305.334 391.386C305.334 389.598 305.668 388.023 306.334 386.659C307.009 385.295 307.948 384.231 309.153 383.466C310.365 382.701 311.781 382.318 313.403 382.318C314.387 382.318 315.342 382.481 316.266 382.807C317.19 383.133 318.02 383.644 318.755 384.341C319.49 385.038 320.069 385.943 320.493 387.057C320.918 388.163 321.13 389.508 321.13 391.091V392.295H307.255V389.75H317.8C317.8 388.856 317.618 388.064 317.255 387.375C316.891 386.678 316.38 386.129 315.721 385.727C315.069 385.326 314.304 385.125 313.425 385.125C312.471 385.125 311.637 385.36 310.925 385.83C310.221 386.292 309.675 386.898 309.289 387.648C308.91 388.39 308.721 389.197 308.721 390.068V392.057C308.721 393.223 308.925 394.216 309.334 395.034C309.751 395.852 310.331 396.477 311.073 396.909C311.815 397.333 312.683 397.545 313.675 397.545C314.319 397.545 314.906 397.455 315.437 397.273C315.967 397.083 316.425 396.803 316.812 396.432C317.198 396.061 317.493 395.602 317.698 395.057L320.914 395.636C320.656 396.583 320.194 397.413 319.528 398.125C318.868 398.83 318.039 399.379 317.039 399.773C316.047 400.159 314.914 400.352 313.641 400.352ZM326.395 405.034V397.057H327.816C328.179 396.723 328.486 396.326 328.736 395.864C328.994 395.402 329.21 394.852 329.384 394.216C329.566 393.58 329.717 392.837 329.838 391.989C329.96 391.133 330.066 390.155 330.157 389.057L330.702 382.545H342.566V397.057H345.247V405.034H341.929V400H329.759V405.034H326.395ZM331.452 397.057H339.247V385.455H333.747L333.384 389.057C333.21 390.89 332.99 392.481 332.725 393.83C332.46 395.17 332.035 396.246 331.452 397.057Z" fill="white"/>
<path d="M51.9503 241.318C50.3897 241.318 48.9957 241.049 47.7685 240.511C46.5488 239.973 45.5829 239.227 44.8707 238.273C44.1662 237.311 43.7874 236.197 43.7344 234.932H47.3026C47.348 235.621 47.5791 236.22 47.9957 236.727C48.42 237.227 48.973 237.614 49.6548 237.886C50.3366 238.159 51.0942 238.295 51.9276 238.295C52.8442 238.295 53.6548 238.136 54.3594 237.818C55.0715 237.5 55.6283 237.057 56.0298 236.489C56.4313 235.913 56.6321 235.25 56.6321 234.5C56.6321 233.72 56.4313 233.034 56.0298 232.443C55.6359 231.845 55.0563 231.375 54.2912 231.034C53.5336 230.693 52.617 230.523 51.5412 230.523H49.5753V227.659H51.5412C52.4048 227.659 53.1624 227.504 53.8139 227.193C54.473 226.883 54.9882 226.451 55.3594 225.898C55.7306 225.337 55.9162 224.682 55.9162 223.932C55.9162 223.212 55.7533 222.587 55.4276 222.057C55.1094 221.519 54.6548 221.098 54.0639 220.795C53.4806 220.492 52.7912 220.341 51.9957 220.341C51.2382 220.341 50.5298 220.481 49.8707 220.761C49.2192 221.034 48.6889 221.428 48.2798 221.943C47.8707 222.451 47.651 223.061 47.6207 223.773H44.223C44.2609 222.515 44.6321 221.409 45.3366 220.455C46.0488 219.5 46.9882 218.754 48.1548 218.216C49.3215 217.678 50.617 217.409 52.0412 217.409C53.5336 217.409 54.8215 217.701 55.9048 218.284C56.9957 218.86 57.8366 219.629 58.4276 220.591C59.026 221.553 59.3215 222.606 59.3139 223.75C59.3215 225.053 58.9579 226.159 58.223 227.068C57.4957 227.977 56.526 228.587 55.3139 228.898V229.08C56.8594 229.314 58.0563 229.928 58.9048 230.92C59.7609 231.913 60.1851 233.144 60.1776 234.614C60.1851 235.894 59.8291 237.042 59.1094 238.057C58.3973 239.072 57.4238 239.871 56.1889 240.455C54.9541 241.03 53.5412 241.318 51.9503 241.318ZM72.798 241.386C71.6919 241.386 70.6919 241.182 69.798 240.773C68.9041 240.356 68.1957 239.754 67.673 238.966C67.1579 238.178 66.9003 237.212 66.9003 236.068C66.9003 235.083 67.0897 234.273 67.4685 233.636C67.8473 233 68.3586 232.496 69.0026 232.125C69.6465 231.754 70.3662 231.473 71.1616 231.284C71.9571 231.095 72.7677 230.951 73.5935 230.852C74.6389 230.731 75.4874 230.633 76.1389 230.557C76.7904 230.473 77.2639 230.341 77.5594 230.159C77.8548 229.977 78.0026 229.682 78.0026 229.273V229.193C78.0026 228.201 77.7223 227.432 77.1616 226.886C76.6086 226.341 75.7829 226.068 74.6844 226.068C73.5404 226.068 72.6389 226.322 71.9798 226.83C71.3283 227.33 70.8776 227.886 70.6276 228.5L67.4344 227.773C67.8132 226.712 68.3662 225.856 69.0935 225.205C69.8283 224.545 70.673 224.068 71.6276 223.773C72.5821 223.47 73.5859 223.318 74.6389 223.318C75.3359 223.318 76.0745 223.402 76.8548 223.568C77.6427 223.727 78.3776 224.023 79.0594 224.455C79.7488 224.886 80.3132 225.504 80.7526 226.307C81.1919 227.102 81.4116 228.136 81.4116 229.409V241H78.0935V238.614H77.9571C77.7374 239.053 77.4079 239.485 76.9685 239.909C76.5291 240.333 75.9647 240.686 75.2753 240.966C74.5859 241.246 73.7601 241.386 72.798 241.386ZM73.5366 238.659C74.476 238.659 75.2791 238.473 75.9457 238.102C76.62 237.731 77.1313 237.246 77.4798 236.648C77.8359 236.042 78.0139 235.394 78.0139 234.705V232.455C77.8927 232.576 77.6579 232.689 77.3094 232.795C76.9685 232.894 76.5783 232.981 76.1389 233.057C75.6995 233.125 75.2715 233.189 74.8548 233.25C74.4382 233.303 74.0897 233.348 73.8094 233.386C73.1503 233.47 72.548 233.61 72.0026 233.807C71.4647 234.004 71.0329 234.288 70.7071 234.659C70.3889 235.023 70.2298 235.508 70.2298 236.114C70.2298 236.955 70.5404 237.591 71.1616 238.023C71.7829 238.447 72.5745 238.659 73.5366 238.659ZM100.967 230.807V233.75H91.5122V230.807H100.967ZM92.4668 223.545V241H89.1372V223.545H92.4668ZM103.342 223.545V241H100.024V223.545H103.342ZM121.496 241V226.443H117.314C116.322 226.443 115.549 226.674 114.996 227.136C114.443 227.598 114.167 228.205 114.167 228.955C114.167 229.697 114.421 230.295 114.928 230.75C115.443 231.197 116.163 231.42 117.087 231.42H122.485V234.17H117.087C115.799 234.17 114.686 233.958 113.746 233.534C112.814 233.102 112.095 232.492 111.587 231.705C111.087 230.917 110.837 229.985 110.837 228.909C110.837 227.811 111.095 226.864 111.61 226.068C112.133 225.265 112.879 224.644 113.849 224.205C114.826 223.765 115.981 223.545 117.314 223.545H124.689V241H121.496ZM110.042 241L114.962 232.182H118.439L113.519 241H110.042ZM130.247 226.477V223.545H144.975V226.477H139.282V241H135.963V226.477H130.247ZM155.098 236.239L162.791 223.545H166.45V241H163.121V228.295L155.462 241H151.768V223.545H155.098V236.239ZM184.628 241V226.443H180.446C179.453 226.443 178.681 226.674 178.128 227.136C177.575 227.598 177.298 228.205 177.298 228.955C177.298 229.697 177.552 230.295 178.059 230.75C178.575 231.197 179.294 231.42 180.218 231.42H185.616V234.17H180.218C178.931 234.17 177.817 233.958 176.878 233.534C175.946 233.102 175.226 232.492 174.718 231.705C174.218 230.917 173.968 229.985 173.968 228.909C173.968 227.811 174.226 226.864 174.741 226.068C175.264 225.265 176.01 224.644 176.98 224.205C177.957 223.765 179.112 223.545 180.446 223.545H187.821V241H184.628ZM173.173 241L178.093 232.182H181.571L176.65 241H173.173ZM214.564 241.352C212.875 241.352 211.421 240.97 210.201 240.205C208.989 239.432 208.057 238.367 207.405 237.011C206.754 235.655 206.428 234.102 206.428 232.352C206.428 230.58 206.761 229.015 207.428 227.659C208.095 226.295 209.034 225.231 210.246 224.466C211.458 223.701 212.886 223.318 214.53 223.318C215.856 223.318 217.038 223.564 218.076 224.057C219.114 224.542 219.951 225.223 220.587 226.102C221.231 226.981 221.614 228.008 221.735 229.182H218.428C218.246 228.364 217.83 227.659 217.178 227.068C216.534 226.477 215.671 226.182 214.587 226.182C213.64 226.182 212.811 226.432 212.099 226.932C211.394 227.424 210.845 228.129 210.451 229.045C210.057 229.955 209.86 231.03 209.86 232.273C209.86 233.545 210.053 234.644 210.439 235.568C210.826 236.492 211.371 237.208 212.076 237.716C212.788 238.223 213.625 238.477 214.587 238.477C215.231 238.477 215.814 238.36 216.337 238.125C216.868 237.883 217.311 237.538 217.667 237.091C218.03 236.644 218.284 236.106 218.428 235.477H221.735C221.614 236.606 221.246 237.614 220.633 238.5C220.019 239.386 219.197 240.083 218.167 240.591C217.144 241.098 215.943 241.352 214.564 241.352ZM240.237 241V223.545H254.476V241H251.146V226.477H243.544V241H240.237ZM269.571 241.352C267.934 241.352 266.506 240.977 265.287 240.227C264.067 239.477 263.12 238.428 262.446 237.08C261.772 235.731 261.434 234.155 261.434 232.352C261.434 230.542 261.772 228.958 262.446 227.602C263.12 226.246 264.067 225.193 265.287 224.443C266.506 223.693 267.934 223.318 269.571 223.318C271.207 223.318 272.635 223.693 273.855 224.443C275.075 225.193 276.022 226.246 276.696 227.602C277.37 228.958 277.707 230.542 277.707 232.352C277.707 234.155 277.37 235.731 276.696 237.08C276.022 238.428 275.075 239.477 273.855 240.227C272.635 240.977 271.207 241.352 269.571 241.352ZM269.582 238.5C270.643 238.5 271.522 238.22 272.218 237.659C272.915 237.098 273.431 236.352 273.764 235.42C274.105 234.489 274.275 233.462 274.275 232.341C274.275 231.227 274.105 230.205 273.764 229.273C273.431 228.333 272.915 227.58 272.218 227.011C271.522 226.443 270.643 226.159 269.582 226.159C268.514 226.159 267.628 226.443 266.923 227.011C266.226 227.58 265.707 228.333 265.366 229.273C265.033 230.205 264.866 231.227 264.866 232.341C264.866 233.462 265.033 234.489 265.366 235.42C265.707 236.352 266.226 237.098 266.923 237.659C267.628 238.22 268.514 238.5 269.582 238.5ZM296.529 230.807V233.75H287.075V230.807H296.529ZM288.029 223.545V241H284.7V223.545H288.029ZM298.904 223.545V241H295.586V223.545H298.904ZM314.172 241.352C312.453 241.352 310.972 240.985 309.729 240.25C308.494 239.508 307.54 238.466 306.866 237.125C306.199 235.777 305.866 234.197 305.866 232.386C305.866 230.598 306.199 229.023 306.866 227.659C307.54 226.295 308.479 225.231 309.684 224.466C310.896 223.701 312.313 223.318 313.934 223.318C314.919 223.318 315.873 223.481 316.797 223.807C317.722 224.133 318.551 224.644 319.286 225.341C320.021 226.038 320.6 226.943 321.025 228.057C321.449 229.163 321.661 230.508 321.661 232.091V233.295H307.786V230.75H318.332C318.332 229.856 318.15 229.064 317.786 228.375C317.422 227.678 316.911 227.129 316.252 226.727C315.6 226.326 314.835 226.125 313.957 226.125C313.002 226.125 312.169 226.36 311.457 226.83C310.752 227.292 310.207 227.898 309.82 228.648C309.441 229.39 309.252 230.197 309.252 231.068V233.057C309.252 234.223 309.457 235.216 309.866 236.034C310.282 236.852 310.862 237.477 311.604 237.909C312.347 238.333 313.214 238.545 314.207 238.545C314.85 238.545 315.438 238.455 315.968 238.273C316.498 238.083 316.957 237.803 317.343 237.432C317.729 237.061 318.025 236.602 318.229 236.057L321.445 236.636C321.188 237.583 320.725 238.413 320.059 239.125C319.4 239.83 318.57 240.379 317.57 240.773C316.578 241.159 315.445 241.352 314.172 241.352ZM326.926 246.034V238.057H328.347C328.71 237.723 329.017 237.326 329.267 236.864C329.525 236.402 329.741 235.852 329.915 235.216C330.097 234.58 330.248 233.837 330.37 232.989C330.491 232.133 330.597 231.155 330.688 230.057L331.233 223.545H343.097V238.057H345.779V246.034H342.46V241H330.29V246.034H326.926ZM331.983 238.057H339.779V226.455H334.279L333.915 230.057C333.741 231.89 333.521 233.481 333.256 234.83C332.991 236.17 332.567 237.246 331.983 238.057ZM359.822 241.352C358.103 241.352 356.622 240.985 355.379 240.25C354.144 239.508 353.19 238.466 352.516 237.125C351.849 235.777 351.516 234.197 351.516 232.386C351.516 230.598 351.849 229.023 352.516 227.659C353.19 226.295 354.129 225.231 355.334 224.466C356.546 223.701 357.963 223.318 359.584 223.318C360.569 223.318 361.523 223.481 362.447 223.807C363.372 224.133 364.201 224.644 364.936 225.341C365.671 226.038 366.25 226.943 366.675 228.057C367.099 229.163 367.311 230.508 367.311 232.091V233.295H353.436V230.75H363.982C363.982 229.856 363.8 229.064 363.436 228.375C363.072 227.678 362.561 227.129 361.902 226.727C361.25 226.326 360.485 226.125 359.607 226.125C358.652 226.125 357.819 226.36 357.107 226.83C356.402 227.292 355.857 227.898 355.47 228.648C355.091 229.39 354.902 230.197 354.902 231.068V233.057C354.902 234.223 355.107 235.216 355.516 236.034C355.932 236.852 356.512 237.477 357.254 237.909C357.997 238.333 358.864 238.545 359.857 238.545C360.5 238.545 361.088 238.455 361.618 238.273C362.148 238.083 362.607 237.803 362.993 237.432C363.379 237.061 363.675 236.602 363.879 236.057L367.095 236.636C366.838 237.583 366.375 238.413 365.709 239.125C365.05 239.83 364.22 240.379 363.22 240.773C362.228 241.159 361.095 241.352 359.822 241.352ZM372.906 241L372.895 238.057H373.52C374.004 238.057 374.41 237.955 374.736 237.75C375.069 237.538 375.342 237.182 375.554 236.682C375.766 236.182 375.929 235.492 376.042 234.614C376.156 233.727 376.239 232.614 376.292 231.273L376.599 223.545H388.781V241H385.451V226.477H379.747L379.474 232.409C379.406 233.848 379.258 235.106 379.031 236.182C378.811 237.258 378.489 238.155 378.065 238.875C377.641 239.587 377.095 240.121 376.429 240.477C375.762 240.826 374.951 241 373.997 241H372.906ZM399.069 229.545H404.137C406.274 229.545 407.918 230.076 409.069 231.136C410.221 232.197 410.796 233.564 410.796 235.239C410.796 236.33 410.539 237.311 410.024 238.182C409.508 239.053 408.755 239.742 407.762 240.25C406.77 240.75 405.561 241 404.137 241H396.512V223.545H399.842V238.068H404.137C405.114 238.068 405.918 237.814 406.546 237.307C407.175 236.792 407.489 236.136 407.489 235.341C407.489 234.5 407.175 233.814 406.546 233.284C405.918 232.746 405.114 232.477 404.137 232.477H399.069V229.545ZM429.636 230.807V233.75H420.181V230.807H429.636ZM421.136 223.545V241H417.806V223.545H421.136ZM432.011 223.545V241H428.692V223.545H432.011ZM443.085 236.239L450.779 223.545H454.438V241H451.108V228.295L443.449 241H439.756V223.545H443.085V236.239ZM462.206 241V223.545H465.604V230.864H467.24L473.001 223.545H477.206L470.445 232.034L477.286 241H473.07L467.808 234.023H465.604V241H462.206ZM488.204 241.386C487.098 241.386 486.098 241.182 485.204 240.773C484.31 240.356 483.602 239.754 483.079 238.966C482.564 238.178 482.307 237.212 482.307 236.068C482.307 235.083 482.496 234.273 482.875 233.636C483.254 233 483.765 232.496 484.409 232.125C485.053 231.754 485.772 231.473 486.568 231.284C487.363 231.095 488.174 230.951 489 230.852C490.045 230.731 490.894 230.633 491.545 230.557C492.197 230.473 492.67 230.341 492.966 230.159C493.261 229.977 493.409 229.682 493.409 229.273V229.193C493.409 228.201 493.129 227.432 492.568 226.886C492.015 226.341 491.189 226.068 490.091 226.068C488.947 226.068 488.045 226.322 487.386 226.83C486.735 227.33 486.284 227.886 486.034 228.5L482.841 227.773C483.219 226.712 483.772 225.856 484.5 225.205C485.235 224.545 486.079 224.068 487.034 223.773C487.988 223.47 488.992 223.318 490.045 223.318C490.742 223.318 491.481 223.402 492.261 223.568C493.049 223.727 493.784 224.023 494.466 224.455C495.155 224.886 495.719 225.504 496.159 226.307C496.598 227.102 496.818 228.136 496.818 229.409V241H493.5V238.614H493.363C493.144 239.053 492.814 239.485 492.375 239.909C491.935 240.333 491.371 240.686 490.682 240.966C489.992 241.246 489.166 241.386 488.204 241.386ZM488.943 238.659C489.882 238.659 490.685 238.473 491.352 238.102C492.026 237.731 492.538 237.246 492.886 236.648C493.242 236.042 493.42 235.394 493.42 234.705V232.455C493.299 232.576 493.064 232.689 492.716 232.795C492.375 232.894 491.985 232.981 491.545 233.057C491.106 233.125 490.678 233.189 490.261 233.25C489.844 233.303 489.496 233.348 489.216 233.386C488.557 233.47 487.954 233.61 487.409 233.807C486.871 234.004 486.439 234.288 486.113 234.659C485.795 235.023 485.636 235.508 485.636 236.114C485.636 236.955 485.947 237.591 486.568 238.023C487.189 238.447 487.981 238.659 488.943 238.659ZM516.212 241V223.545H530.451V241H527.121V226.477H519.519V241H516.212ZM545.546 241.352C543.909 241.352 542.481 240.977 541.262 240.227C540.042 239.477 539.095 238.428 538.421 237.08C537.746 235.731 537.409 234.155 537.409 232.352C537.409 230.542 537.746 228.958 538.421 227.602C539.095 226.246 540.042 225.193 541.262 224.443C542.481 223.693 543.909 223.318 545.546 223.318C547.182 223.318 548.61 223.693 549.83 224.443C551.05 225.193 551.996 226.246 552.671 227.602C553.345 228.958 553.682 230.542 553.682 232.352C553.682 234.155 553.345 235.731 552.671 237.08C551.996 238.428 551.05 239.477 549.83 240.227C548.61 240.977 547.182 241.352 545.546 241.352ZM545.557 238.5C546.618 238.5 547.496 238.22 548.193 237.659C548.89 237.098 549.406 236.352 549.739 235.42C550.08 234.489 550.25 233.462 550.25 232.341C550.25 231.227 550.08 230.205 549.739 229.273C549.406 228.333 548.89 227.58 548.193 227.011C547.496 226.443 546.618 226.159 545.557 226.159C544.489 226.159 543.603 226.443 542.898 227.011C542.201 227.58 541.682 228.333 541.341 229.273C541.008 230.205 540.841 231.227 540.841 232.341C540.841 233.462 541.008 234.489 541.341 235.42C541.682 236.352 542.201 237.098 542.898 237.659C543.603 238.22 544.489 238.5 545.557 238.5ZM227.809 280V262.545H242.048V280H238.718V265.477H231.116V280H227.809ZM260.199 280V265.443H256.018C255.025 265.443 254.252 265.674 253.699 266.136C253.146 266.598 252.87 267.205 252.87 267.955C252.87 268.697 253.124 269.295 253.631 269.75C254.146 270.197 254.866 270.42 255.79 270.42H261.188V273.17H255.79C254.502 273.17 253.389 272.958 252.449 272.534C251.518 272.102 250.798 271.492 250.29 270.705C249.79 269.917 249.54 268.985 249.54 267.909C249.54 266.811 249.798 265.864 250.313 265.068C250.836 264.265 251.582 263.644 252.552 263.205C253.529 262.765 254.684 262.545 256.018 262.545H263.393V280H260.199ZM248.745 280L253.665 271.182H257.143L252.222 280H248.745ZM268.951 265.477V262.545H283.678V265.477H277.985V280H274.666V265.477H268.951ZM302.301 269.807V272.75H292.847V269.807H302.301ZM293.801 262.545V280H290.472V262.545H293.801ZM304.676 262.545V280H301.358V262.545H304.676ZM315.751 275.239L323.444 262.545H327.103V280H323.774V267.295L316.115 280H312.422V262.545H315.751V275.239ZM349.11 262.545V277.216H351.667V285.625H348.315V280H334.872V262.545H338.201V277.068H345.792V262.545H349.11ZM360.782 286.545C360.274 286.545 359.812 286.504 359.395 286.42C358.979 286.345 358.668 286.261 358.464 286.17L359.282 283.386C359.903 283.553 360.456 283.625 360.941 283.602C361.426 283.58 361.854 283.398 362.225 283.057C362.604 282.716 362.937 282.159 363.225 281.386L363.645 280.227L357.259 262.545H360.895L365.316 276.091H365.498L369.918 262.545H373.566L366.373 282.33C366.039 283.239 365.615 284.008 365.1 284.636C364.585 285.273 363.971 285.75 363.259 286.068C362.547 286.386 361.721 286.545 360.782 286.545Z" fill="white"/>
<path d="M545.277 69.453C550.55 62.2269 553.701 53.36 553.701 43.75C553.701 19.6259 534.075 0 509.951 0C485.827 0 466.201 19.6259 466.201 43.75C466.201 53.4027 469.381 62.3051 474.696 69.5484C472.392 77.8046 460 123.044 460 140.625C460 141.888 460.76 143.03 461.929 143.512C463.091 144 464.443 143.732 465.334 142.834C471.212 136.96 480.093 133.228 483.984 131.787L498.223 148.877C498.831 149.603 499.716 150 500.625 150C500.973 150 501.327 149.942 501.669 149.82C502.899 149.384 503.732 148.227 503.75 146.921C504.004 129.473 505.927 101.772 510 90.6723C514.073 101.772 515.996 129.473 516.25 146.921C516.268 148.227 517.101 149.384 518.331 149.82C518.673 149.942 519.027 150 519.375 150C520.284 150 521.169 149.603 521.777 148.877L536.019 131.784C539.901 133.218 548.77 136.938 554.666 142.834C555.566 143.732 556.906 144.006 558.071 143.512C559.24 143.03 560 141.888 560 140.625C560 122.987 547.523 77.496 545.277 69.453Z" fill="#303C42"/>
<path d="M510.054 81.25C530.765 81.25 547.554 64.4607 547.554 43.75C547.554 23.0393 530.765 6.25 510.054 6.25C489.343 6.25 472.554 23.0393 472.554 43.75C472.554 64.4607 489.343 81.25 510.054 81.25Z" fill="url(#paint1_linear_65_43)"/>
<path d="M497.714 138.501L487.402 126.123C486.593 125.156 485.29 124.777 484.081 125.137C483.618 125.281 474.758 128.052 466.735 133.615C468.739 116.398 476.408 87.0739 479.625 75.2129C486.329 81.6761 495.071 86.0192 504.793 87.1682C499.819 99.0643 498.218 124.416 497.714 138.501Z" fill="#303C42"/>
<path d="M535.919 125.138C534.725 124.774 533.407 125.159 532.598 126.123L522.286 138.501C521.781 124.41 520.18 99.0442 515.201 87.1542C524.922 85.9842 533.664 81.6248 540.355 75.1421C543.561 86.9577 551.257 116.364 553.265 133.615C545.242 128.052 536.382 125.281 535.919 125.138Z" fill="#303C42"/>
<path d="M491.949 66.7207C491.668 67.9841 492.196 69.2903 493.276 70.0044C493.798 70.3492 494.399 70.5232 495.001 70.5232C495.638 70.5232 496.273 70.3279 496.816 69.9403L510.003 60.5226L523.187 69.9403C524.236 70.6971 525.652 70.7185 526.727 70.0044C527.807 69.2903 528.335 67.9841 528.054 66.7207L524.157 49.1945L538.574 36.8318C539.52 36.0231 539.895 34.7291 539.529 33.5389C539.16 32.3518 538.122 31.4912 536.886 31.3539L518.481 29.3123L512.93 14.5021C512.472 13.2814 511.306 12.4727 510.003 12.4727C508.7 12.4727 507.534 13.2814 507.076 14.499L501.522 29.3123L483.117 31.3539C481.881 31.4912 480.844 32.3518 480.474 33.5389C480.108 34.7291 480.483 36.0231 481.429 36.8318L495.846 49.1945L491.949 66.7207Z" fill="#303C42"/>
<path d="M490.96 36.7706L504.119 35.3119C505.288 35.1807 506.286 34.4055 506.701 33.3038L510.003 24.4995L513.302 33.3008C513.717 34.4055 514.715 35.1807 515.884 35.3119L529.043 36.7706L518.667 45.6696C517.788 46.4203 517.397 47.5922 517.648 48.7183L520.181 60.1135L511.819 54.1382C510.732 53.363 509.274 53.363 508.187 54.1382L499.822 60.1135L502.355 48.7183C502.606 47.5922 502.215 46.4203 501.336 45.6696L490.96 36.7706Z" fill="#FFCB29"/>
<path opacity="0.2" d="M507.759 38.9515C508.928 38.8203 509.926 38.0451 510.341 36.9434L512.505 31.1733L510.003 24.4995L506.701 33.3038C506.286 34.4055 505.288 35.1807 504.119 35.3119L490.96 36.7706L495.135 40.3511L507.759 38.9515Z" fill="white"/>
<path d="M497.768 138.501L487.456 126.123C486.65 125.156 485.338 124.777 484.135 125.137C483.672 125.281 474.812 128.052 466.789 133.615C468.793 116.398 476.462 87.0739 479.679 75.2129C486.383 81.6761 495.125 86.0192 504.847 87.1682C499.873 99.0643 498.272 124.416 497.768 138.501Z" fill="#7CB342"/>
<path d="M535.973 125.138C534.776 124.774 533.461 125.159 532.652 126.123L522.34 138.501C521.835 124.41 520.234 99.0442 515.255 87.1542C524.976 85.9842 533.718 81.6248 540.409 75.1421C543.615 86.9577 551.311 116.364 553.319 133.615C545.296 128.052 536.436 125.281 535.973 125.138Z" fill="#7CB342"/>
<path d="M540.409 75.1421C533.718 81.6248 524.976 85.9842 515.255 87.1542C518.059 93.8494 519.767 104.812 520.836 115.634L532.049 126.847L532.652 126.123C533.461 125.159 534.776 124.774 535.973 125.138C536.436 125.281 545.296 128.052 553.319 133.615C551.311 116.364 543.615 86.9577 540.409 75.1421ZM502.041 96.8393C502.836 93.1593 503.746 89.7993 504.846 87.1683C496.986 86.2394 489.829 83.1457 483.809 78.6077L502.041 96.8393Z" fill="url(#paint2_linear_65_43)"/>
<path d="M518.481 29.3119L529.287 30.5105L512.504 13.7285L512.485 13.9315C512.623 14.134 512.841 14.2652 512.929 14.5018L518.481 29.3119ZM495.846 49.1941L481.429 36.8315L495.472 50.8741L495.846 49.1941ZM547.438 41.4476L539.529 33.5386C539.895 34.7288 539.519 36.0228 538.573 36.8315L524.157 49.1941L528.054 66.7204C528.335 67.9838 527.807 69.29 526.726 70.0041C525.652 70.7182 524.236 70.6968 523.186 69.94L510.003 60.5223L496.816 69.94C496.273 70.3276 495.638 70.5229 495 70.5229C494.399 70.5229 493.798 70.3489 493.276 70.0041L503.985 80.7131C505.965 81.0373 507.983 81.2498 510.054 81.2498C530.733 81.2498 547.554 64.4285 547.554 43.7498C547.554 42.9727 547.484 42.2132 547.438 41.4476Z" fill="url(#paint3_linear_65_43)"/>
<path d="M545.277 69.453C550.55 62.2269 553.701 53.36 553.701 43.75C553.701 19.6259 534.075 0 509.951 0C485.827 0 466.201 19.6259 466.201 43.75C466.201 53.4027 469.381 62.3051 474.696 69.5484C472.392 77.8046 460 123.044 460 140.625C460 141.888 460.76 143.03 461.929 143.512C463.091 144 464.443 143.732 465.334 142.834C471.212 136.96 480.093 133.228 483.984 131.787L498.223 148.877C498.831 149.603 499.716 150 500.625 150C500.973 150 501.327 149.942 501.669 149.82C502.899 149.384 503.732 148.227 503.75 146.921C504.004 129.473 505.927 101.772 510 90.6723C514.073 101.772 515.996 129.473 516.25 146.921C516.268 148.227 517.101 149.384 518.331 149.82C518.673 149.942 519.027 150 519.375 150C520.284 150 521.169 149.603 521.777 148.877L536.019 131.784C539.901 133.218 548.77 136.938 554.666 142.834C555.566 143.732 556.906 144.006 558.071 143.512C559.24 143.03 560 141.888 560 140.625C560 122.987 547.523 77.496 545.277 69.453Z" fill="url(#paint4_linear_65_43)"/>
<defs>
<filter id="filter0_d_65_43" x="0" y="30" width="608" height="608" filterUnits="userSpaceOnUse" color-interpolation-filters="sRGB">
<feFlood flood-opacity="0" result="BackgroundImageFix"/>
<feColorMatrix in="SourceAlpha" type="matrix" values="0 0 0 0 0 0 0 0 0 0 0 0 0 0 0 0 0 0 127 0" result="hardAlpha"/>
<feOffset dx="8" dy="8"/>
<feComposite in2="hardAlpha" operator="out"/>
<feColorMatrix type="matrix" values="0 0 0 0 0 0 0 0 0 0 0 0 0 0 0 0 0 0 0.25 0"/>
<feBlend mode="normal" in2="BackgroundImageFix" result="effect1_dropShadow_65_43"/>
<feBlend mode="normal" in="SourceGraphic" in2="effect1_dropShadow_65_43" result="shape"/>
</filter>
<linearGradient id="paint0_linear_65_43" x1="-4.47035e-06" y1="630" x2="446.765" y2="-68.0704" gradientUnits="userSpaceOnUse">
<stop stop-color="#FFAA47"/>
<stop offset="1" stop-color="#FFF95D"/>
</linearGradient>
<linearGradient id="paint1_linear_65_43" x1="510.054" y1="6.25" x2="510.054" y2="81.25" gradientUnits="userSpaceOnUse">
<stop stop-color="#FFBA57"/>
<stop offset="1" stop-color="#FFCB29"/>
</linearGradient>
<linearGradient id="paint2_linear_65_43" x1="498.826" y1="63.5913" x2="561.084" y2="125.85" gradientUnits="userSpaceOnUse">
<stop stop-color="#010101" stop-opacity="0.1"/>
<stop offset="1" stop-color="#010101" stop-opacity="0"/>
</linearGradient>
<linearGradient id="paint3_linear_65_43" x1="491.446" y1="26.8148" x2="535.722" y2="71.0909" gradientUnits="userSpaceOnUse">
<stop stop-color="#010101" stop-opacity="0.1"/>
<stop offset="1" stop-color="#010101" stop-opacity="0"/>
</linearGradient>
<linearGradient id="paint4_linear_65_43" x1="456.152" y1="55.6071" x2="574.282" y2="110.692" gradientUnits="userSpaceOnUse">
<stop stop-color="white" stop-opacity="0.2"/>
<stop offset="1" stop-color="white" stop-opacity="0"/>
</linearGradient>
</defs>
</svg>
