<svg width="608" height="608" viewBox="0 0 608 608" fill="none" xmlns="http://www.w3.org/2000/svg">
<g filter="url(#filter0_d_65_44)">
<rect width="600" height="600" rx="60" fill="url(#paint0_linear_65_44)"/>
</g>
<path d="M187.645 37.3906C187.645 38.2656 187.333 39 186.708 39.5938C186.114 40.2188 185.38 40.5312 184.505 40.5312H165.755C165.161 40.5625 164.661 40.7031 164.255 40.9531C163.88 41.1719 163.598 41.4375 163.411 41.75C163.223 42.0312 163.13 42.3281 163.13 42.6406C163.13 42.9531 163.223 43.2656 163.411 43.5781C163.598 43.8594 163.88 44.125 164.255 44.375C164.661 44.5938 165.161 44.7188 165.755 44.75H179.067C181.255 44.8125 183.052 45.3281 184.458 46.2969C185.895 47.2344 186.911 48.3281 187.505 49.5781C188.13 50.7969 188.442 52.0469 188.442 53.3281C188.442 54.5781 188.13 55.8281 187.505 57.0781C186.88 58.2969 185.864 59.3906 184.458 60.3594C183.052 61.2969 181.255 61.7656 179.067 61.7656H178.786C178.598 61.7969 178.411 61.8125 178.223 61.8125H160.505C159.63 61.8125 158.88 61.5156 158.255 60.9219C157.661 60.2969 157.364 59.5469 157.364 58.6719C157.364 57.7969 157.677 57.0625 158.302 56.4688C158.895 55.8438 159.63 55.5312 160.505 55.5312H179.348C179.942 55.5625 180.427 55.4531 180.802 55.2031C181.208 54.9531 181.505 54.6719 181.692 54.3594C181.88 54.0156 181.973 53.6719 181.973 53.3281C181.973 53.1094 181.88 52.8125 181.692 52.4375C181.505 52.0312 181.208 51.7031 180.802 51.4531C180.427 51.2031 179.942 51.0625 179.348 51.0312H166.036C163.848 50.9688 162.036 50.4688 160.598 49.5312C159.192 48.5938 158.177 47.5312 157.552 46.3438C156.958 45.125 156.661 43.8906 156.661 42.6406C156.661 41.4219 156.973 40.2188 157.598 39.0312C158.223 37.8125 159.239 36.7344 160.645 35.7969C162.052 34.8594 163.848 34.3594 166.036 34.2969H166.317C166.505 34.2656 166.692 34.25 166.88 34.25H184.505C185.38 34.25 186.114 34.5625 186.708 35.1875C187.333 35.7812 187.645 36.5156 187.645 37.3906ZM197.602 37.3906C197.602 36.5156 197.898 35.7812 198.492 35.1875C199.117 34.5625 199.867 34.25 200.742 34.25H228.023C228.898 34.25 229.648 34.5469 230.273 35.1406C230.867 35.7656 231.164 36.5156 231.164 37.3906C231.164 38.2656 230.852 39.0156 230.227 39.6406C229.633 40.2344 228.898 40.5312 228.023 40.5312H217.57V59.5156C217.383 61.3906 216.352 62.4062 214.477 62.5625C213.602 62.5625 212.836 62.2812 212.18 61.7188C211.555 61.125 211.242 60.3906 211.242 59.5156V40.5312H200.742C199.867 40.5312 199.133 40.2188 198.539 39.5938C197.914 39 197.602 38.2656 197.602 37.3906ZM251.433 54.6406C251.433 53.7656 251.73 53.0312 252.323 52.4375C252.948 51.8125 253.698 51.5 254.573 51.5H261.745L260.527 48.0312C260.027 46.75 259.527 45.5469 259.027 44.4219C258.558 43.2656 258.011 42.2188 257.386 41.2812C256.823 40.3438 256.183 39.8438 255.464 39.7812C254.714 39.8438 254.042 40.3438 253.448 41.2812C252.855 42.2188 252.308 43.2656 251.808 44.4219C251.339 45.5469 250.855 46.75 250.355 48.0312L245.902 60.2188C245.589 60.875 245.183 61.4219 244.683 61.8594C244.214 62.2656 243.495 62.4688 242.527 62.4688C241.62 62.4688 240.87 62.1562 240.277 61.5312C239.714 60.9062 239.464 60.1562 239.527 59.2812C239.558 58.875 239.652 58.5 239.808 58.1562L244.964 44.8438C246.402 41.3438 247.839 38.5156 249.277 36.3594C250.683 34.2344 252.745 33.1562 255.464 33.125C258.152 33.1562 260.198 34.2344 261.605 36.3594C263.042 38.4531 264.48 41.2812 265.917 44.8438L271.073 58.1562C271.23 58.5 271.323 58.875 271.355 59.2812C271.417 60.1562 271.152 60.9062 270.558 61.5312C269.995 62.1562 269.261 62.4688 268.355 62.4688C267.323 62.4688 266.558 62.2656 266.058 61.8594C265.589 61.4219 265.198 60.875 264.886 60.2188L263.995 57.7812H254.573C253.698 57.7812 252.964 57.4688 252.37 56.8438C251.745 56.25 251.433 55.5156 251.433 54.6406ZM295.795 32.9844C297.42 32.9844 299.014 33.1719 300.577 33.5469C302.17 33.9219 303.686 34.4844 305.123 35.2344C306.561 35.9531 307.827 36.9219 308.92 38.1406C310.045 39.3594 310.655 40.8125 310.748 42.5V44.4688V59.4219C310.561 61.2969 309.53 62.3125 307.655 62.4688C306.78 62.4688 306.014 62.1875 305.358 61.625C304.733 61.0312 304.42 60.2969 304.42 59.4219V43.9531C304.358 42.9844 303.983 42.1875 303.295 41.5625C302.639 40.9062 301.889 40.3906 301.045 40.0156C300.233 39.6406 299.373 39.3594 298.467 39.1719C297.592 38.9844 296.702 38.8906 295.795 38.8906C294.889 38.8906 293.983 38.9844 293.077 39.1719C292.202 39.3594 291.342 39.6406 290.498 40.0156C289.686 40.3906 288.936 40.9062 288.248 41.5625C287.592 42.1875 287.233 42.9844 287.17 43.9531V59.4219C287.014 61.2969 285.998 62.3125 284.123 62.4688C283.248 62.4688 282.483 62.1875 281.827 61.625C281.202 61.0312 280.889 60.2969 280.889 59.4219V44.4688V42.5C280.983 40.8125 281.577 39.3594 282.67 38.1406C283.764 36.9219 285.03 35.9531 286.467 35.2344C287.905 34.4844 289.405 33.9219 290.967 33.5469C292.561 33.1719 294.17 32.9844 295.795 32.9844ZM341.798 34.25C343.986 34.375 345.783 35.2188 347.189 36.7812C348.595 38.3125 349.611 40.0625 350.236 42.0312C350.861 44 351.173 46.0156 351.173 48.0781C351.173 50.1406 350.861 52.1562 350.236 54.125C349.642 56.0938 348.627 57.8594 347.189 59.4219C345.783 60.9531 343.986 61.7812 341.798 61.9062H324.548C323.705 61.875 322.986 61.5781 322.392 61.0156C321.83 60.4219 321.533 59.7031 321.502 58.8594V47.2344C321.533 46.3594 321.861 45.6406 322.486 45.0781C323.111 44.4844 323.861 44.1875 324.736 44.1875C325.58 44.2188 326.298 44.5312 326.892 45.125C327.486 45.6875 327.798 46.3906 327.83 47.2344V54.3594C327.83 55.2031 328.267 55.625 329.142 55.625H340.205C341.392 55.5625 342.377 55.1094 343.158 54.2656C343.939 53.4219 344.502 52.4688 344.845 51.4062C345.22 50.3125 345.408 49.2031 345.408 48.0781C345.408 46.9531 345.22 45.8594 344.845 44.7969C344.502 43.7031 343.939 42.7344 343.158 41.8906C342.377 41.0469 341.392 40.5938 340.205 40.5312H324.548C322.673 40.375 321.658 39.3594 321.502 37.4844C321.502 36.6094 321.783 35.8594 322.345 35.2344C322.939 34.6094 323.673 34.2812 324.548 34.25H341.798ZM371.63 54.6406C371.63 53.7656 371.927 53.0312 372.52 52.4375C373.145 51.8125 373.895 51.5 374.77 51.5H381.942L380.723 48.0312C380.223 46.75 379.723 45.5469 379.223 44.4219C378.755 43.2656 378.208 42.2188 377.583 41.2812C377.02 40.3438 376.38 39.8438 375.661 39.7812C374.911 39.8438 374.239 40.3438 373.645 41.2812C373.052 42.2188 372.505 43.2656 372.005 44.4219C371.536 45.5469 371.052 46.75 370.552 48.0312L366.098 60.2188C365.786 60.875 365.38 61.4219 364.88 61.8594C364.411 62.2656 363.692 62.4688 362.723 62.4688C361.817 62.4688 361.067 62.1562 360.473 61.5312C359.911 60.9062 359.661 60.1562 359.723 59.2812C359.755 58.875 359.848 58.5 360.005 58.1562L365.161 44.8438C366.598 41.3438 368.036 38.5156 369.473 36.3594C370.88 34.2344 372.942 33.1562 375.661 33.125C378.348 33.1562 380.395 34.2344 381.802 36.3594C383.239 38.4531 384.677 41.2812 386.114 44.8438L391.27 58.1562C391.427 58.5 391.52 58.875 391.552 59.2812C391.614 60.1562 391.348 60.9062 390.755 61.5312C390.192 62.1562 389.458 62.4688 388.552 62.4688C387.52 62.4688 386.755 62.2656 386.255 61.8594C385.786 61.4219 385.395 60.875 385.083 60.2188L384.192 57.7812H374.77C373.895 57.7812 373.161 57.4688 372.567 56.8438C371.942 56.25 371.63 55.5156 371.63 54.6406ZM407.367 59.5156C407.18 61.3906 406.148 62.4062 404.273 62.5625C403.398 62.5625 402.633 62.2812 401.977 61.7188C401.352 61.125 401.039 60.3906 401.039 59.5156V37.2969C401.07 36.4219 401.398 35.7031 402.023 35.1406C402.648 34.5469 403.398 34.25 404.273 34.25H406.57H412.336H423.914C424.102 34.25 424.289 34.2656 424.477 34.2969H424.758C426.945 34.3594 428.742 34.8594 430.148 35.7969C431.555 36.7344 432.57 37.8125 433.195 39.0312C433.82 40.2188 434.133 41.4219 434.133 42.6406C434.133 43.8906 433.82 45.125 433.195 46.3438C432.602 47.5312 431.586 48.5938 430.148 49.5312C428.742 50.4688 426.945 50.9688 424.758 51.0312H416.508C416.758 52.5938 417.273 53.75 418.055 54.5C418.805 55.25 419.758 55.625 420.914 55.625H431.039C431.914 55.6562 432.633 55.9844 433.195 56.6094C433.789 57.2344 434.086 57.9844 434.086 58.8594C434.055 59.7031 433.742 60.4219 433.148 61.0156C432.586 61.5781 431.883 61.875 431.039 61.9062H420.07C417.758 61.9375 415.664 61.0312 413.789 59.1875C411.914 57.3438 410.773 55.1562 410.367 52.625C409.805 49.8125 409.523 48.2344 409.523 47.8906C409.523 47.0156 409.82 46.2812 410.414 45.6875C411.039 45.0625 411.789 44.75 412.664 44.75H425.039C425.633 44.7188 426.117 44.5938 426.492 44.375C426.898 44.125 427.195 43.8594 427.383 43.5781C427.57 43.2656 427.664 42.9531 427.664 42.6406C427.664 42.3281 427.57 42.0312 427.383 41.75C427.195 41.4375 426.898 41.1719 426.492 40.9531C426.117 40.7031 425.633 40.5625 425.039 40.5312H412.336H408.586C407.773 40.5625 407.367 40.9688 407.367 41.75V59.5156ZM443.105 37.3906C443.105 36.5156 443.402 35.7812 443.995 35.1875C444.62 34.5625 445.37 34.25 446.245 34.25H473.527C474.402 34.25 475.152 34.5469 475.777 35.1406C476.37 35.7656 476.667 36.5156 476.667 37.3906C476.667 38.2656 476.355 39.0156 475.73 39.6406C475.136 40.2344 474.402 40.5312 473.527 40.5312H463.073V59.5156C462.886 61.3906 461.855 62.4062 459.98 62.5625C459.105 62.5625 458.339 62.2812 457.683 61.7188C457.058 61.125 456.745 60.3906 456.745 59.5156V40.5312H446.245C445.37 40.5312 444.636 40.2188 444.042 39.5938C443.417 39 443.105 38.2656 443.105 37.3906Z" fill="#FFFDEB"/>
<path d="M182.688 545.562C182.688 544.396 183.104 543.417 183.938 542.625C184.729 541.792 185.708 541.375 186.875 541.375H212.125C212.917 541.333 213.562 541.146 214.062 540.812C214.604 540.479 215 540.104 215.25 539.688C215.5 539.271 215.625 538.833 215.625 538.375C215.625 537.917 215.5 537.479 215.25 537.062C215 536.646 214.604 536.271 214.062 535.938C213.562 535.604 212.917 535.417 212.125 535.375H187C185.833 535.375 184.854 534.958 184.062 534.125C183.229 533.333 182.812 532.354 182.812 531.188C182.812 530.021 183.208 529.042 184 528.25C184.833 527.417 185.833 527 187 527H211.75C211.792 527 211.833 527 211.875 527C212.667 526.958 213.312 526.792 213.812 526.5C214.354 526.167 214.75 525.792 215 525.375C215.25 524.958 215.375 524.521 215.375 524.062C215.375 523.646 215.25 523.229 215 522.812C214.75 522.396 214.354 522.042 213.812 521.75C213.312 521.417 212.667 521.229 211.875 521.188H186.75C185.583 521.188 184.604 520.771 183.812 519.938C182.979 519.188 182.562 518.229 182.562 517.062C182.562 515.938 182.958 514.979 183.75 514.188C184.583 513.396 185.583 513 186.75 513H211.5C214.417 513.042 216.812 513.688 218.688 514.938C220.604 516.146 221.958 517.562 222.75 519.188C223.583 520.812 224 522.438 224 524.062C224 525.688 223.583 527.292 222.75 528.875C222.375 529.625 221.896 530.312 221.312 530.938C222.021 531.688 222.604 532.479 223.062 533.312C223.854 534.979 224.25 536.667 224.25 538.375C224.25 540 223.833 541.646 223 543.312C222.167 544.938 220.812 546.396 218.938 547.688C217.062 548.938 214.667 549.604 211.75 549.688H211.375C211.125 549.729 210.875 549.75 210.625 549.75H186.875C185.708 549.75 184.708 549.354 183.875 548.562C183.083 547.729 182.688 546.729 182.688 545.562ZM268.775 549.75H244.275C243.108 549.708 242.129 549.271 241.338 548.438C240.588 547.604 240.213 546.604 240.213 545.438C240.421 542.938 241.775 541.583 244.275 541.375H266.65C268.233 541.292 269.546 540.688 270.588 539.562C271.629 538.438 272.379 537.167 272.838 535.75C273.338 534.292 273.588 532.812 273.588 531.312C273.588 529.812 273.338 528.375 272.838 527C272.379 525.583 271.629 524.312 270.588 523.188C269.546 522.062 268.233 521.458 266.65 521.375H250.025C249.233 521.333 248.567 521.479 248.025 521.812C247.525 522.146 247.15 522.542 246.9 523C246.65 523.417 246.525 523.854 246.525 524.312C246.525 524.604 246.65 525.021 246.9 525.562C247.15 526.062 247.525 526.479 248.025 526.812C248.567 527.146 249.233 527.333 250.025 527.375H266.025C267.192 527.375 268.171 527.792 268.963 528.625C269.796 529.417 270.213 530.396 270.213 531.562C270.213 532.729 269.817 533.729 269.025 534.562C268.192 535.354 267.192 535.75 266.025 535.75H250.4C247.483 535.667 245.067 535 243.15 533.75C241.275 532.458 239.921 531 239.088 529.375C238.296 527.708 237.9 526.021 237.9 524.312C237.9 522.646 238.317 521 239.15 519.375C239.983 517.708 241.338 516.25 243.213 515C245.088 513.708 247.483 513.062 250.4 513.062H250.775C251.025 513.021 251.275 513 251.525 513H268.775C271.692 513.167 274.088 514.292 275.963 516.375C277.879 518.417 279.233 520.729 280.025 523.312C280.858 525.896 281.275 528.562 281.275 531.312C281.275 534.062 280.858 536.75 280.025 539.375C279.192 542 277.838 544.354 275.963 546.438C274.088 548.479 271.692 549.583 268.775 549.75ZM325.175 549.75H300.675C299.508 549.708 298.529 549.271 297.738 548.438C296.988 547.604 296.613 546.604 296.613 545.438C296.821 542.938 298.175 541.583 300.675 541.375H323.05C324.633 541.292 325.946 540.688 326.988 539.562C328.029 538.438 328.779 537.167 329.238 535.75C329.738 534.292 329.988 532.812 329.988 531.312C329.988 529.812 329.738 528.375 329.238 527C328.779 525.583 328.029 524.312 326.988 523.188C325.946 522.062 324.633 521.458 323.05 521.375H306.425C305.633 521.333 304.967 521.479 304.425 521.812C303.925 522.146 303.55 522.542 303.3 523C303.05 523.417 302.925 523.854 302.925 524.312C302.925 524.604 303.05 525.021 303.3 525.562C303.55 526.062 303.925 526.479 304.425 526.812C304.967 527.146 305.633 527.333 306.425 527.375H322.425C323.592 527.375 324.571 527.792 325.363 528.625C326.196 529.417 326.613 530.396 326.613 531.562C326.613 532.729 326.217 533.729 325.425 534.562C324.592 535.354 323.592 535.75 322.425 535.75H306.8C303.883 535.667 301.467 535 299.55 533.75C297.675 532.458 296.321 531 295.488 529.375C294.696 527.708 294.3 526.021 294.3 524.312C294.3 522.646 294.717 521 295.55 519.375C296.383 517.708 297.738 516.25 299.613 515C301.488 513.708 303.883 513.062 306.8 513.062H307.175C307.425 513.021 307.675 513 307.925 513H325.175C328.092 513.167 330.488 514.292 332.363 516.375C334.279 518.417 335.633 520.729 336.425 523.312C337.258 525.896 337.675 528.562 337.675 531.312C337.675 534.062 337.258 536.75 336.425 539.375C335.592 542 334.238 544.354 332.363 546.438C330.488 548.479 328.092 549.583 325.175 549.75ZM381.575 549.75H357.075C355.908 549.708 354.929 549.271 354.137 548.438C353.387 547.604 353.012 546.604 353.012 545.438C353.221 542.938 354.575 541.583 357.075 541.375H379.45C381.033 541.292 382.346 540.688 383.387 539.562C384.429 538.438 385.179 537.167 385.637 535.75C386.137 534.292 386.387 532.812 386.387 531.312C386.387 529.812 386.137 528.375 385.637 527C385.179 525.583 384.429 524.312 383.387 523.188C382.346 522.062 381.033 521.458 379.45 521.375H362.825C362.033 521.333 361.367 521.479 360.825 521.812C360.325 522.146 359.95 522.542 359.7 523C359.45 523.417 359.325 523.854 359.325 524.312C359.325 524.604 359.45 525.021 359.7 525.562C359.95 526.062 360.325 526.479 360.825 526.812C361.367 527.146 362.033 527.333 362.825 527.375H378.825C379.992 527.375 380.971 527.792 381.762 528.625C382.596 529.417 383.012 530.396 383.012 531.562C383.012 532.729 382.617 533.729 381.825 534.562C380.992 535.354 379.992 535.75 378.825 535.75H363.2C360.283 535.667 357.867 535 355.95 533.75C354.075 532.458 352.721 531 351.887 529.375C351.096 527.708 350.7 526.021 350.7 524.312C350.7 522.646 351.117 521 351.95 519.375C352.783 517.708 354.137 516.25 356.012 515C357.887 513.708 360.283 513.062 363.2 513.062H363.575C363.825 513.021 364.075 513 364.325 513H381.575C384.492 513.167 386.887 514.292 388.762 516.375C390.679 518.417 392.033 520.729 392.825 523.312C393.658 525.896 394.075 528.562 394.075 531.312C394.075 534.062 393.658 536.75 392.825 539.375C391.992 542 390.637 544.354 388.762 546.438C386.887 548.479 384.492 549.583 381.575 549.75ZM414.288 550.875C412.621 550.875 411.225 550.292 410.1 549.125C409.017 547.958 408.475 546.5 408.475 544.75C408.475 543 409.017 541.542 410.1 540.375C411.225 539.208 412.621 538.625 414.288 538.625C415.954 538.625 417.35 539.208 418.475 540.375C419.6 541.542 420.163 543 420.163 544.75C420.163 546.5 419.6 547.958 418.475 549.125C417.35 550.292 415.954 550.875 414.288 550.875ZM437.562 535C436.646 535 435.854 534.688 435.188 534.062C434.521 533.396 434.188 532.604 434.188 531.688C434.188 530.729 434.521 529.938 435.188 529.312C435.854 528.646 436.646 528.312 437.562 528.312H448.312C449.229 528.312 450.021 528.646 450.688 529.312C451.354 529.938 451.688 530.729 451.688 531.688C451.688 532.604 451.354 533.396 450.688 534.062C450.021 534.688 449.229 535 448.312 535H437.562Z" fill="white"/>
<path d="M123.58 135.295H120.035C119.898 134.538 119.645 133.871 119.273 133.295C118.902 132.72 118.448 132.231 117.91 131.83C117.372 131.428 116.77 131.125 116.103 130.92C115.444 130.716 114.743 130.614 114.001 130.614C112.66 130.614 111.459 130.951 110.398 131.625C109.345 132.299 108.512 133.288 107.898 134.591C107.292 135.894 106.989 137.485 106.989 139.364C106.989 141.258 107.292 142.856 107.898 144.159C108.512 145.462 109.349 146.447 110.41 147.114C111.47 147.78 112.663 148.114 113.989 148.114C114.724 148.114 115.421 148.015 116.08 147.818C116.747 147.614 117.349 147.314 117.887 146.92C118.425 146.527 118.879 146.045 119.251 145.477C119.629 144.902 119.891 144.242 120.035 143.5L123.58 143.511C123.391 144.655 123.023 145.708 122.478 146.67C121.94 147.625 121.247 148.451 120.398 149.148C119.557 149.837 118.595 150.371 117.512 150.75C116.429 151.129 115.247 151.318 113.966 151.318C111.951 151.318 110.156 150.841 108.58 149.886C107.004 148.924 105.762 147.549 104.853 145.761C103.951 143.973 103.501 141.841 103.501 139.364C103.501 136.879 103.955 134.746 104.864 132.966C105.773 131.178 107.016 129.807 108.591 128.852C110.167 127.89 111.959 127.409 113.966 127.409C115.201 127.409 116.353 127.587 117.421 127.943C118.497 128.292 119.463 128.807 120.319 129.489C121.175 130.163 121.883 130.989 122.444 131.966C123.004 132.936 123.383 134.045 123.58 135.295ZM140.505 146.795L146.141 133.545H149.073L141.766 151H139.243L132.084 133.545H134.982L140.505 146.795ZM134.039 133.545V151H130.709V133.545H134.039ZM147.061 151V133.545H150.368V151H147.061ZM165.619 151.352C163.9 151.352 162.419 150.985 161.176 150.25C159.941 149.508 158.987 148.466 158.312 147.125C157.646 145.777 157.312 144.197 157.312 142.386C157.312 140.598 157.646 139.023 158.312 137.659C158.987 136.295 159.926 135.231 161.131 134.466C162.343 133.701 163.759 133.318 165.381 133.318C166.366 133.318 167.32 133.481 168.244 133.807C169.169 134.133 169.998 134.644 170.733 135.341C171.468 136.038 172.047 136.943 172.472 138.057C172.896 139.163 173.108 140.508 173.108 142.091V143.295H159.233V140.75H169.778C169.778 139.856 169.597 139.064 169.233 138.375C168.869 137.678 168.358 137.129 167.699 136.727C167.047 136.326 166.282 136.125 165.403 136.125C164.449 136.125 163.616 136.36 162.903 136.83C162.199 137.292 161.653 137.898 161.267 138.648C160.888 139.39 160.699 140.197 160.699 141.068V143.057C160.699 144.223 160.903 145.216 161.312 146.034C161.729 146.852 162.309 147.477 163.051 147.909C163.794 148.333 164.661 148.545 165.653 148.545C166.297 148.545 166.884 148.455 167.415 148.273C167.945 148.083 168.403 147.803 168.79 147.432C169.176 147.061 169.472 146.602 169.676 146.057L172.892 146.636C172.634 147.583 172.172 148.413 171.506 149.125C170.847 149.83 170.017 150.379 169.017 150.773C168.025 151.159 166.892 151.352 165.619 151.352ZM191.907 140.807V143.75H182.453V140.807H191.907ZM183.407 133.545V151H180.078V133.545H183.407ZM194.282 133.545V151H190.964V133.545H194.282ZM207.107 151.386C206.001 151.386 205.001 151.182 204.107 150.773C203.213 150.356 202.505 149.754 201.982 148.966C201.467 148.178 201.21 147.212 201.21 146.068C201.21 145.083 201.399 144.273 201.778 143.636C202.157 143 202.668 142.496 203.312 142.125C203.956 141.754 204.676 141.473 205.471 141.284C206.266 141.095 207.077 140.951 207.903 140.852C208.948 140.731 209.797 140.633 210.448 140.557C211.1 140.473 211.573 140.341 211.869 140.159C212.164 139.977 212.312 139.682 212.312 139.273V139.193C212.312 138.201 212.032 137.432 211.471 136.886C210.918 136.341 210.092 136.068 208.994 136.068C207.85 136.068 206.948 136.322 206.289 136.83C205.638 137.33 205.187 137.886 204.937 138.5L201.744 137.773C202.123 136.712 202.676 135.856 203.403 135.205C204.138 134.545 204.982 134.068 205.937 133.773C206.891 133.47 207.895 133.318 208.948 133.318C209.645 133.318 210.384 133.402 211.164 133.568C211.952 133.727 212.687 134.023 213.369 134.455C214.058 134.886 214.623 135.504 215.062 136.307C215.501 137.102 215.721 138.136 215.721 139.409V151H212.403V148.614H212.266C212.047 149.053 211.717 149.485 211.278 149.909C210.838 150.333 210.274 150.686 209.585 150.966C208.895 151.246 208.07 151.386 207.107 151.386ZM207.846 148.659C208.785 148.659 209.588 148.473 210.255 148.102C210.929 147.731 211.441 147.246 211.789 146.648C212.145 146.042 212.323 145.394 212.323 144.705V142.455C212.202 142.576 211.967 142.689 211.619 142.795C211.278 142.894 210.888 142.981 210.448 143.057C210.009 143.125 209.581 143.189 209.164 143.25C208.748 143.303 208.399 143.348 208.119 143.386C207.46 143.47 206.857 143.61 206.312 143.807C205.774 144.004 205.342 144.288 205.016 144.659C204.698 145.023 204.539 145.508 204.539 146.114C204.539 146.955 204.85 147.591 205.471 148.023C206.092 148.447 206.884 148.659 207.846 148.659ZM242.468 151.352C240.778 151.352 239.324 150.97 238.104 150.205C236.892 149.432 235.96 148.367 235.309 147.011C234.657 145.655 234.331 144.102 234.331 142.352C234.331 140.58 234.665 139.015 235.331 137.659C235.998 136.295 236.937 135.231 238.149 134.466C239.362 133.701 240.79 133.318 242.434 133.318C243.759 133.318 244.941 133.564 245.979 134.057C247.017 134.542 247.854 135.223 248.49 136.102C249.134 136.981 249.517 138.008 249.638 139.182H246.331C246.149 138.364 245.733 137.659 245.081 137.068C244.437 136.477 243.574 136.182 242.49 136.182C241.543 136.182 240.714 136.432 240.002 136.932C239.297 137.424 238.748 138.129 238.354 139.045C237.96 139.955 237.763 141.03 237.763 142.273C237.763 143.545 237.956 144.644 238.343 145.568C238.729 146.492 239.274 147.208 239.979 147.716C240.691 148.223 241.528 148.477 242.49 148.477C243.134 148.477 243.718 148.36 244.24 148.125C244.771 147.883 245.214 147.538 245.57 147.091C245.934 146.644 246.187 146.106 246.331 145.477H249.638C249.517 146.606 249.149 147.614 248.536 148.5C247.922 149.386 247.1 150.083 246.07 150.591C245.047 151.098 243.846 151.352 242.468 151.352ZM276.924 127.727V151H273.402V131.25H273.265L267.697 134.886V131.523L273.504 127.727H276.924ZM298.134 151V133.545H312.373V151H309.043V136.477H301.441V151H298.134ZM327.468 151.352C325.831 151.352 324.403 150.977 323.184 150.227C321.964 149.477 321.017 148.428 320.343 147.08C319.668 145.731 319.331 144.155 319.331 142.352C319.331 140.542 319.668 138.958 320.343 137.602C321.017 136.246 321.964 135.193 323.184 134.443C324.403 133.693 325.831 133.318 327.468 133.318C329.104 133.318 330.532 133.693 331.752 134.443C332.971 135.193 333.918 136.246 334.593 137.602C335.267 138.958 335.604 140.542 335.604 142.352C335.604 144.155 335.267 145.731 334.593 147.08C333.918 148.428 332.971 149.477 331.752 150.227C330.532 150.977 329.104 151.352 327.468 151.352ZM327.479 148.5C328.54 148.5 329.418 148.22 330.115 147.659C330.812 147.098 331.327 146.352 331.661 145.42C332.002 144.489 332.172 143.462 332.172 142.341C332.172 141.227 332.002 140.205 331.661 139.273C331.327 138.333 330.812 137.58 330.115 137.011C329.418 136.443 328.54 136.159 327.479 136.159C326.411 136.159 325.524 136.443 324.82 137.011C324.123 137.58 323.604 138.333 323.263 139.273C322.93 140.205 322.763 141.227 322.763 142.341C322.763 143.462 322.93 144.489 323.263 145.42C323.604 146.352 324.123 147.098 324.82 147.659C325.524 148.22 326.411 148.5 327.479 148.5ZM363.049 127.727V151H359.527V131.25H359.39L353.822 134.886V131.523L359.629 127.727H363.049ZM372.056 146.455V143.614L382.113 127.727H384.352V131.909H382.931L375.738 143.295V143.477H389.522V146.455H372.056ZM383.09 151V145.591L383.113 144.295V127.727H386.443V151H383.09ZM411.726 146.239L419.419 133.545H423.078V151H419.749V138.295L412.09 151H408.397V133.545H411.726V146.239ZM439.631 140.932V143.886H430.324V140.932H439.631ZM433.085 133.545V151H429.688V133.545H433.085ZM444.949 151.352C443.328 151.352 441.911 150.973 440.699 150.216C439.487 149.458 438.547 148.405 437.881 147.057C437.214 145.701 436.881 144.129 436.881 142.341C436.881 140.538 437.214 138.962 437.881 137.614C438.547 136.258 439.487 135.205 440.699 134.455C441.911 133.697 443.328 133.318 444.949 133.318C446.578 133.318 447.994 133.697 449.199 134.455C450.411 135.205 451.35 136.258 452.017 137.614C452.691 138.962 453.028 140.538 453.028 142.341C453.028 144.129 452.691 145.701 452.017 147.057C451.35 148.405 450.411 149.458 449.199 150.216C447.994 150.973 446.578 151.352 444.949 151.352ZM444.949 148.443C446.047 148.443 446.945 148.167 447.642 147.614C448.347 147.053 448.866 146.311 449.199 145.386C449.532 144.462 449.699 143.447 449.699 142.341C449.699 141.227 449.532 140.208 449.199 139.284C448.866 138.352 448.347 137.606 447.642 137.045C446.945 136.485 446.047 136.205 444.949 136.205C443.858 136.205 442.96 136.485 442.256 137.045C441.551 137.606 441.032 138.352 440.699 139.284C440.366 140.208 440.199 141.227 440.199 142.341C440.199 143.447 440.366 144.462 440.699 145.386C441.032 146.311 441.551 147.053 442.256 147.614C442.96 148.167 443.858 148.443 444.949 148.443ZM458.859 151L458.848 148.057H459.473C459.958 148.057 460.363 147.955 460.689 147.75C461.022 147.538 461.295 147.182 461.507 146.682C461.719 146.182 461.882 145.492 461.995 144.614C462.109 143.727 462.192 142.614 462.245 141.273L462.552 133.545H474.734V151H471.405V136.477H465.7L465.427 142.409C465.359 143.848 465.211 145.106 464.984 146.182C464.764 147.258 464.442 148.155 464.018 148.875C463.594 149.587 463.048 150.121 462.382 150.477C461.715 150.826 460.905 151 459.95 151H458.859ZM492.874 151V136.443H488.693C487.7 136.443 486.927 136.674 486.374 137.136C485.821 137.598 485.545 138.205 485.545 138.955C485.545 139.697 485.799 140.295 486.306 140.75C486.821 141.197 487.541 141.42 488.465 141.42H493.863V144.17H488.465C487.177 144.17 486.064 143.958 485.124 143.534C484.193 143.102 483.473 142.492 482.965 141.705C482.465 140.917 482.215 139.985 482.215 138.909C482.215 137.811 482.473 136.864 482.988 136.068C483.511 135.265 484.257 134.644 485.227 134.205C486.204 133.765 487.359 133.545 488.693 133.545H496.068V151H492.874ZM481.42 151L486.34 142.182H489.818L484.897 151H481.42Z" fill="white"/>
<path d="M79.7395 294.295H76.194C76.0577 293.538 75.8039 292.871 75.4327 292.295C75.0615 291.72 74.6069 291.231 74.069 290.83C73.5311 290.428 72.9289 290.125 72.2622 289.92C71.6031 289.716 70.9024 289.614 70.1599 289.614C68.819 289.614 67.6183 289.951 66.5577 290.625C65.5046 291.299 64.6713 292.288 64.0577 293.591C63.4516 294.894 63.1486 296.485 63.1486 298.364C63.1486 300.258 63.4516 301.856 64.0577 303.159C64.6713 304.462 65.5084 305.447 66.569 306.114C67.6296 306.78 68.8228 307.114 70.1486 307.114C70.8834 307.114 71.5804 307.015 72.2395 306.818C72.9061 306.614 73.5084 306.314 74.0463 305.92C74.5842 305.527 75.0387 305.045 75.4099 304.477C75.7887 303.902 76.0501 303.242 76.194 302.5L79.7395 302.511C79.5501 303.655 79.1827 304.708 78.6372 305.67C78.0993 306.625 77.4062 307.451 76.5577 308.148C75.7168 308.837 74.7546 309.371 73.6713 309.75C72.588 310.129 71.4061 310.318 70.1258 310.318C68.1107 310.318 66.3152 309.841 64.7395 308.886C63.1637 307.924 61.9213 306.549 61.0122 304.761C60.1107 302.973 59.6599 300.841 59.6599 298.364C59.6599 295.879 60.1145 293.746 61.0236 291.966C61.9327 290.178 63.1751 288.807 64.7508 287.852C66.3266 286.89 68.1183 286.409 70.1258 286.409C71.3607 286.409 72.5122 286.587 73.5804 286.943C74.6561 287.292 75.6221 287.807 76.4781 288.489C77.3342 289.163 78.0425 289.989 78.6031 290.966C79.1637 291.936 79.5425 293.045 79.7395 294.295ZM86.8685 310V292.545H101.107V310H97.7775V295.477H90.1753V310H86.8685ZM116.202 310.352C114.566 310.352 113.138 309.977 111.918 309.227C110.698 308.477 109.751 307.428 109.077 306.08C108.403 304.731 108.066 303.155 108.066 301.352C108.066 299.542 108.403 297.958 109.077 296.602C109.751 295.246 110.698 294.193 111.918 293.443C113.138 292.693 114.566 292.318 116.202 292.318C117.838 292.318 119.266 292.693 120.486 293.443C121.706 294.193 122.653 295.246 123.327 296.602C124.001 297.958 124.338 299.542 124.338 301.352C124.338 303.155 124.001 304.731 123.327 306.08C122.653 307.428 121.706 308.477 120.486 309.227C119.266 309.977 117.838 310.352 116.202 310.352ZM116.213 307.5C117.274 307.5 118.153 307.22 118.85 306.659C119.547 306.098 120.062 305.352 120.395 304.42C120.736 303.489 120.907 302.462 120.907 301.341C120.907 300.227 120.736 299.205 120.395 298.273C120.062 297.333 119.547 296.58 118.85 296.011C118.153 295.443 117.274 295.159 116.213 295.159C115.145 295.159 114.259 295.443 113.554 296.011C112.857 296.58 112.338 297.333 111.997 298.273C111.664 299.205 111.497 300.227 111.497 301.341C111.497 302.462 111.664 303.489 111.997 304.42C112.338 305.352 112.857 306.098 113.554 306.659C114.259 307.22 115.145 307.5 116.213 307.5ZM131.331 316.545V292.545H134.649V295.375H134.933C135.13 295.011 135.414 294.591 135.786 294.114C136.157 293.636 136.672 293.22 137.331 292.864C137.99 292.5 138.861 292.318 139.945 292.318C141.354 292.318 142.611 292.674 143.717 293.386C144.823 294.098 145.691 295.125 146.32 296.466C146.956 297.807 147.274 299.42 147.274 301.307C147.274 303.193 146.96 304.811 146.331 306.159C145.702 307.5 144.839 308.534 143.74 309.261C142.642 309.981 141.388 310.341 139.979 310.341C138.918 310.341 138.051 310.163 137.376 309.807C136.71 309.451 136.187 309.034 135.808 308.557C135.429 308.08 135.138 307.655 134.933 307.284H134.729V316.545H131.331ZM134.661 301.273C134.661 302.5 134.839 303.576 135.195 304.5C135.551 305.424 136.066 306.148 136.74 306.67C137.414 307.186 138.24 307.443 139.217 307.443C140.232 307.443 141.081 307.174 141.763 306.636C142.445 306.091 142.96 305.352 143.308 304.42C143.664 303.489 143.842 302.439 143.842 301.273C143.842 300.121 143.668 299.087 143.32 298.17C142.979 297.254 142.464 296.53 141.774 296C141.092 295.47 140.24 295.205 139.217 295.205C138.232 295.205 137.399 295.458 136.717 295.966C136.043 296.473 135.532 297.182 135.183 298.091C134.835 299 134.661 300.061 134.661 301.273ZM152.179 295.477V292.545H166.906V295.477H161.213V310H157.895V295.477H152.179ZM177.029 305.239L184.722 292.545H188.382V310H185.052V297.295L177.393 310H173.7V292.545H177.029V305.239ZM196.15 310V292.545H203.388C205.358 292.545 206.919 292.966 208.07 293.807C209.222 294.64 209.797 295.773 209.797 297.205C209.797 298.227 209.472 299.038 208.82 299.636C208.169 300.235 207.305 300.636 206.229 300.841C207.01 300.932 207.725 301.167 208.377 301.545C209.028 301.917 209.551 302.417 209.945 303.045C210.347 303.674 210.547 304.424 210.547 305.295C210.547 306.22 210.309 307.038 209.832 307.75C209.354 308.455 208.661 309.008 207.752 309.409C206.85 309.803 205.763 310 204.491 310H196.15ZM199.343 307.159H204.491C205.332 307.159 205.991 306.958 206.468 306.557C206.945 306.155 207.184 305.61 207.184 304.92C207.184 304.11 206.945 303.473 206.468 303.011C205.991 302.542 205.332 302.307 204.491 302.307H199.343V307.159ZM199.343 299.818H203.422C204.059 299.818 204.604 299.727 205.059 299.545C205.521 299.364 205.873 299.106 206.116 298.773C206.366 298.432 206.491 298.03 206.491 297.568C206.491 296.894 206.214 296.367 205.661 295.989C205.108 295.61 204.35 295.42 203.388 295.42H199.343V299.818ZM229.304 299.807V302.75H219.85V299.807H229.304ZM220.804 292.545V310H217.475V292.545H220.804ZM231.679 292.545V310H228.361V292.545H231.679ZM241.982 298.545H247.05C249.186 298.545 250.83 299.076 251.982 300.136C253.133 301.197 253.709 302.564 253.709 304.239C253.709 305.33 253.451 306.311 252.936 307.182C252.421 308.053 251.667 308.742 250.675 309.25C249.682 309.75 248.474 310 247.05 310H239.425V292.545H242.754V307.068H247.05C248.027 307.068 248.83 306.814 249.459 306.307C250.088 305.792 250.402 305.136 250.402 304.341C250.402 303.5 250.088 302.814 249.459 302.284C248.83 301.746 248.027 301.477 247.05 301.477H241.982V298.545ZM256.186 310V292.545H259.584V310H256.186ZM274.866 310.352C273.147 310.352 271.665 309.985 270.423 309.25C269.188 308.508 268.234 307.466 267.559 306.125C266.893 304.777 266.559 303.197 266.559 301.386C266.559 299.598 266.893 298.023 267.559 296.659C268.234 295.295 269.173 294.231 270.378 293.466C271.59 292.701 273.006 292.318 274.628 292.318C275.612 292.318 276.567 292.481 277.491 292.807C278.415 293.133 279.245 293.644 279.98 294.341C280.715 295.038 281.294 295.943 281.718 297.057C282.143 298.163 282.355 299.508 282.355 301.091V302.295H268.48V299.75H279.025C279.025 298.856 278.843 298.064 278.48 297.375C278.116 296.678 277.605 296.129 276.946 295.727C276.294 295.326 275.529 295.125 274.65 295.125C273.696 295.125 272.862 295.36 272.15 295.83C271.446 296.292 270.9 296.898 270.514 297.648C270.135 298.39 269.946 299.197 269.946 300.068V302.057C269.946 303.223 270.15 304.216 270.559 305.034C270.976 305.852 271.556 306.477 272.298 306.909C273.04 307.333 273.908 307.545 274.9 307.545C275.544 307.545 276.131 307.455 276.662 307.273C277.192 307.083 277.65 306.803 278.037 306.432C278.423 306.061 278.718 305.602 278.923 305.057L282.139 305.636C281.881 306.583 281.419 307.413 280.753 308.125C280.093 308.83 279.264 309.379 278.264 309.773C277.272 310.159 276.139 310.352 274.866 310.352ZM310.789 305.795L316.425 292.545H319.357L312.05 310H309.528L302.368 292.545H305.266L310.789 305.795ZM304.323 292.545V310H300.993V292.545H304.323ZM317.346 310V292.545H320.653V310H317.346ZM335.904 310.352C334.184 310.352 332.703 309.985 331.46 309.25C330.226 308.508 329.271 307.466 328.597 306.125C327.93 304.777 327.597 303.197 327.597 301.386C327.597 299.598 327.93 298.023 328.597 296.659C329.271 295.295 330.21 294.231 331.415 293.466C332.627 292.701 334.044 292.318 335.665 292.318C336.65 292.318 337.604 292.481 338.529 292.807C339.453 293.133 340.282 293.644 341.017 294.341C341.752 295.038 342.332 295.943 342.756 297.057C343.18 298.163 343.392 299.508 343.392 301.091V302.295H329.517V299.75H340.063C340.063 298.856 339.881 298.064 339.517 297.375C339.154 296.678 338.642 296.129 337.983 295.727C337.332 295.326 336.567 295.125 335.688 295.125C334.733 295.125 333.9 295.36 333.188 295.83C332.483 296.292 331.938 296.898 331.551 297.648C331.173 298.39 330.983 299.197 330.983 300.068V302.057C330.983 303.223 331.188 304.216 331.597 305.034C332.014 305.852 332.593 306.477 333.335 306.909C334.078 307.333 334.945 307.545 335.938 307.545C336.582 307.545 337.169 307.455 337.699 307.273C338.229 307.083 338.688 306.803 339.074 306.432C339.46 306.061 339.756 305.602 339.96 305.057L343.176 305.636C342.919 306.583 342.457 307.413 341.79 308.125C341.131 308.83 340.301 309.379 339.301 309.773C338.309 310.159 337.176 310.352 335.904 310.352ZM350.362 316.545V292.545H353.68V295.375H353.964C354.161 295.011 354.446 294.591 354.817 294.114C355.188 293.636 355.703 293.22 356.362 292.864C357.021 292.5 357.893 292.318 358.976 292.318C360.385 292.318 361.643 292.674 362.749 293.386C363.855 294.098 364.722 295.125 365.351 296.466C365.987 297.807 366.305 299.42 366.305 301.307C366.305 303.193 365.991 304.811 365.362 306.159C364.733 307.5 363.87 308.534 362.771 309.261C361.673 309.981 360.419 310.341 359.01 310.341C357.949 310.341 357.082 310.163 356.408 309.807C355.741 309.451 355.218 309.034 354.839 308.557C354.461 308.08 354.169 307.655 353.964 307.284H353.76V316.545H350.362ZM353.692 301.273C353.692 302.5 353.87 303.576 354.226 304.5C354.582 305.424 355.097 306.148 355.771 306.67C356.446 307.186 357.271 307.443 358.249 307.443C359.264 307.443 360.112 307.174 360.794 306.636C361.476 306.091 361.991 305.352 362.339 304.42C362.696 303.489 362.874 302.439 362.874 301.273C362.874 300.121 362.699 299.087 362.351 298.17C362.01 297.254 361.495 296.53 360.805 296C360.124 295.47 359.271 295.205 358.249 295.205C357.264 295.205 356.43 295.458 355.749 295.966C355.074 296.473 354.563 297.182 354.214 298.091C353.866 299 353.692 300.061 353.692 301.273ZM380.664 310.352C379.028 310.352 377.6 309.977 376.38 309.227C375.161 308.477 374.214 307.428 373.539 306.08C372.865 304.731 372.528 303.155 372.528 301.352C372.528 299.542 372.865 297.958 373.539 296.602C374.214 295.246 375.161 294.193 376.38 293.443C377.6 292.693 379.028 292.318 380.664 292.318C382.301 292.318 383.729 292.693 384.949 293.443C386.168 294.193 387.115 295.246 387.789 296.602C388.464 297.958 388.801 299.542 388.801 301.352C388.801 303.155 388.464 304.731 387.789 306.08C387.115 307.428 386.168 308.477 384.949 309.227C383.729 309.977 382.301 310.352 380.664 310.352ZM380.676 307.5C381.736 307.5 382.615 307.22 383.312 306.659C384.009 306.098 384.524 305.352 384.858 304.42C385.199 303.489 385.369 302.462 385.369 301.341C385.369 300.227 385.199 299.205 384.858 298.273C384.524 297.333 384.009 296.58 383.312 296.011C382.615 295.443 381.736 295.159 380.676 295.159C379.608 295.159 378.721 295.443 378.017 296.011C377.32 296.58 376.801 297.333 376.46 298.273C376.127 299.205 375.96 300.227 375.96 301.341C375.96 302.462 376.127 303.489 376.46 304.42C376.801 305.352 377.32 306.098 378.017 306.659C378.721 307.22 379.608 307.5 380.676 307.5ZM395.793 310V292.545H410.032V310H406.703V295.477H399.1V310H395.793ZM417.775 316.545V292.545H421.093V295.375H421.377C421.574 295.011 421.858 294.591 422.229 294.114C422.6 293.636 423.116 293.22 423.775 292.864C424.434 292.5 425.305 292.318 426.388 292.318C427.797 292.318 429.055 292.674 430.161 293.386C431.267 294.098 432.135 295.125 432.763 296.466C433.4 297.807 433.718 299.42 433.718 301.307C433.718 303.193 433.404 304.811 432.775 306.159C432.146 307.5 431.282 308.534 430.184 309.261C429.085 309.981 427.832 310.341 426.422 310.341C425.362 310.341 424.494 310.163 423.82 309.807C423.154 309.451 422.631 309.034 422.252 308.557C421.873 308.08 421.582 307.655 421.377 307.284H421.172V316.545H417.775ZM421.104 301.273C421.104 302.5 421.282 303.576 421.638 304.5C421.994 305.424 422.51 306.148 423.184 306.67C423.858 307.186 424.684 307.443 425.661 307.443C426.676 307.443 427.525 307.174 428.207 306.636C428.888 306.091 429.404 305.352 429.752 304.42C430.108 303.489 430.286 302.439 430.286 301.273C430.286 300.121 430.112 299.087 429.763 298.17C429.422 297.254 428.907 296.53 428.218 296C427.536 295.47 426.684 295.205 425.661 295.205C424.676 295.205 423.843 295.458 423.161 295.966C422.487 296.473 421.975 297.182 421.627 298.091C421.279 299 421.104 300.061 421.104 301.273ZM444.054 305.239L451.747 292.545H455.407V310H452.077V297.295L444.418 310H440.725V292.545H444.054V305.239ZM473.584 310V295.443H469.402C468.41 295.443 467.637 295.674 467.084 296.136C466.531 296.598 466.254 297.205 466.254 297.955C466.254 298.697 466.508 299.295 467.016 299.75C467.531 300.197 468.25 300.42 469.175 300.42H474.572V303.17H469.175C467.887 303.17 466.773 302.958 465.834 302.534C464.902 302.102 464.182 301.492 463.675 300.705C463.175 299.917 462.925 298.985 462.925 297.909C462.925 296.811 463.182 295.864 463.697 295.068C464.22 294.265 464.966 293.644 465.936 293.205C466.913 292.765 468.069 292.545 469.402 292.545H476.777V310H473.584ZM462.129 310L467.05 301.182H470.527L465.607 310H462.129ZM482.335 295.477V292.545H497.062V295.477H491.369V310H488.051V295.477H482.335ZM507.186 305.239L514.879 292.545H518.538V310H515.208V297.295L507.549 310H503.856V292.545H507.186V305.239ZM536.715 310V295.443H532.533C531.541 295.443 530.768 295.674 530.215 296.136C529.662 296.598 529.385 297.205 529.385 297.955C529.385 298.697 529.639 299.295 530.147 299.75C530.662 300.197 531.382 300.42 532.306 300.42H537.704V303.17H532.306C531.018 303.17 529.904 302.958 528.965 302.534C528.033 302.102 527.314 301.492 526.806 300.705C526.306 299.917 526.056 298.985 526.056 297.909C526.056 296.811 526.314 295.864 526.829 295.068C527.351 294.265 528.098 293.644 529.067 293.205C530.045 292.765 531.2 292.545 532.533 292.545H539.908V310H536.715ZM525.26 310L530.181 301.182H533.658L528.738 310H525.26Z" fill="white"/>
<path d="M51.9503 211.318C50.3897 211.318 48.9957 211.049 47.7685 210.511C46.5488 209.973 45.5829 209.227 44.8707 208.273C44.1662 207.311 43.7874 206.197 43.7344 204.932H47.3026C47.348 205.621 47.5791 206.22 47.9957 206.727C48.42 207.227 48.973 207.614 49.6548 207.886C50.3366 208.159 51.0942 208.295 51.9276 208.295C52.8442 208.295 53.6548 208.136 54.3594 207.818C55.0715 207.5 55.6283 207.057 56.0298 206.489C56.4313 205.913 56.6321 205.25 56.6321 204.5C56.6321 203.72 56.4313 203.034 56.0298 202.443C55.6359 201.845 55.0563 201.375 54.2912 201.034C53.5336 200.693 52.617 200.523 51.5412 200.523H49.5753V197.659H51.5412C52.4048 197.659 53.1624 197.504 53.8139 197.193C54.473 196.883 54.9882 196.451 55.3594 195.898C55.7306 195.337 55.9162 194.682 55.9162 193.932C55.9162 193.212 55.7533 192.587 55.4276 192.057C55.1094 191.519 54.6548 191.098 54.0639 190.795C53.4806 190.492 52.7912 190.341 51.9957 190.341C51.2382 190.341 50.5298 190.481 49.8707 190.761C49.2192 191.034 48.6889 191.428 48.2798 191.943C47.8707 192.451 47.651 193.061 47.6207 193.773H44.223C44.2609 192.515 44.6321 191.409 45.3366 190.455C46.0488 189.5 46.9882 188.754 48.1548 188.216C49.3215 187.678 50.617 187.409 52.0412 187.409C53.5336 187.409 54.8215 187.701 55.9048 188.284C56.9957 188.86 57.8366 189.629 58.4276 190.591C59.026 191.553 59.3215 192.606 59.3139 193.75C59.3215 195.053 58.9579 196.159 58.223 197.068C57.4957 197.977 56.526 198.587 55.3139 198.898V199.08C56.8594 199.314 58.0563 199.928 58.9048 200.92C59.7609 201.913 60.1851 203.144 60.1776 204.614C60.1851 205.894 59.8291 207.042 59.1094 208.057C58.3973 209.072 57.4238 209.871 56.1889 210.455C54.9541 211.03 53.5412 211.318 51.9503 211.318ZM72.798 211.386C71.6919 211.386 70.6919 211.182 69.798 210.773C68.9041 210.356 68.1957 209.754 67.673 208.966C67.1579 208.178 66.9003 207.212 66.9003 206.068C66.9003 205.083 67.0897 204.273 67.4685 203.636C67.8473 203 68.3586 202.496 69.0026 202.125C69.6465 201.754 70.3662 201.473 71.1616 201.284C71.9571 201.095 72.7677 200.951 73.5935 200.852C74.6389 200.731 75.4874 200.633 76.1389 200.557C76.7904 200.473 77.2639 200.341 77.5594 200.159C77.8548 199.977 78.0026 199.682 78.0026 199.273V199.193C78.0026 198.201 77.7223 197.432 77.1616 196.886C76.6086 196.341 75.7829 196.068 74.6844 196.068C73.5404 196.068 72.6389 196.322 71.9798 196.83C71.3283 197.33 70.8776 197.886 70.6276 198.5L67.4344 197.773C67.8132 196.712 68.3662 195.856 69.0935 195.205C69.8283 194.545 70.673 194.068 71.6276 193.773C72.5821 193.47 73.5859 193.318 74.6389 193.318C75.3359 193.318 76.0745 193.402 76.8548 193.568C77.6427 193.727 78.3776 194.023 79.0594 194.455C79.7488 194.886 80.3132 195.504 80.7526 196.307C81.1919 197.102 81.4116 198.136 81.4116 199.409V211H78.0935V208.614H77.9571C77.7374 209.053 77.4079 209.485 76.9685 209.909C76.5291 210.333 75.9647 210.686 75.2753 210.966C74.5859 211.246 73.7601 211.386 72.798 211.386ZM73.5366 208.659C74.476 208.659 75.2791 208.473 75.9457 208.102C76.62 207.731 77.1313 207.246 77.4798 206.648C77.8359 206.042 78.0139 205.394 78.0139 204.705V202.455C77.8927 202.576 77.6579 202.689 77.3094 202.795C76.9685 202.894 76.5783 202.981 76.1389 203.057C75.6995 203.125 75.2715 203.189 74.8548 203.25C74.4382 203.303 74.0897 203.348 73.8094 203.386C73.1503 203.47 72.548 203.61 72.0026 203.807C71.4647 204.004 71.0329 204.288 70.7071 204.659C70.3889 205.023 70.2298 205.508 70.2298 206.114C70.2298 206.955 70.5404 207.591 71.1616 208.023C71.7829 208.447 72.5745 208.659 73.5366 208.659ZM100.967 200.807V203.75H91.5122V200.807H100.967ZM92.4668 193.545V211H89.1372V193.545H92.4668ZM103.342 193.545V211H100.024V193.545H103.342ZM121.496 211V196.443H117.314C116.322 196.443 115.549 196.674 114.996 197.136C114.443 197.598 114.167 198.205 114.167 198.955C114.167 199.697 114.421 200.295 114.928 200.75C115.443 201.197 116.163 201.42 117.087 201.42H122.485V204.17H117.087C115.799 204.17 114.686 203.958 113.746 203.534C112.814 203.102 112.095 202.492 111.587 201.705C111.087 200.917 110.837 199.985 110.837 198.909C110.837 197.811 111.095 196.864 111.61 196.068C112.133 195.265 112.879 194.644 113.849 194.205C114.826 193.765 115.981 193.545 117.314 193.545H124.689V211H121.496ZM110.042 211L114.962 202.182H118.439L113.519 211H110.042ZM130.247 196.477V193.545H144.975V196.477H139.282V211H135.963V196.477H130.247ZM155.098 206.239L162.791 193.545H166.45V211H163.121V198.295L155.462 211H151.768V193.545H155.098V206.239ZM184.628 211V196.443H180.446C179.453 196.443 178.681 196.674 178.128 197.136C177.575 197.598 177.298 198.205 177.298 198.955C177.298 199.697 177.552 200.295 178.059 200.75C178.575 201.197 179.294 201.42 180.218 201.42H185.616V204.17H180.218C178.931 204.17 177.817 203.958 176.878 203.534C175.946 203.102 175.226 202.492 174.718 201.705C174.218 200.917 173.968 199.985 173.968 198.909C173.968 197.811 174.226 196.864 174.741 196.068C175.264 195.265 176.01 194.644 176.98 194.205C177.957 193.765 179.112 193.545 180.446 193.545H187.821V211H184.628ZM173.173 211L178.093 202.182H181.571L176.65 211H173.173ZM214.564 211.352C212.875 211.352 211.421 210.97 210.201 210.205C208.989 209.432 208.057 208.367 207.405 207.011C206.754 205.655 206.428 204.102 206.428 202.352C206.428 200.58 206.761 199.015 207.428 197.659C208.095 196.295 209.034 195.231 210.246 194.466C211.458 193.701 212.886 193.318 214.53 193.318C215.856 193.318 217.038 193.564 218.076 194.057C219.114 194.542 219.951 195.223 220.587 196.102C221.231 196.981 221.614 198.008 221.735 199.182H218.428C218.246 198.364 217.83 197.659 217.178 197.068C216.534 196.477 215.671 196.182 214.587 196.182C213.64 196.182 212.811 196.432 212.099 196.932C211.394 197.424 210.845 198.129 210.451 199.045C210.057 199.955 209.86 201.03 209.86 202.273C209.86 203.545 210.053 204.644 210.439 205.568C210.826 206.492 211.371 207.208 212.076 207.716C212.788 208.223 213.625 208.477 214.587 208.477C215.231 208.477 215.814 208.36 216.337 208.125C216.868 207.883 217.311 207.538 217.667 207.091C218.03 206.644 218.284 206.106 218.428 205.477H221.735C221.614 206.606 221.246 207.614 220.633 208.5C220.019 209.386 219.197 210.083 218.167 210.591C217.144 211.098 215.943 211.352 214.564 211.352ZM240.237 211V193.545H254.476V211H251.146V196.477H243.544V211H240.237ZM269.571 211.352C267.934 211.352 266.506 210.977 265.287 210.227C264.067 209.477 263.12 208.428 262.446 207.08C261.772 205.731 261.434 204.155 261.434 202.352C261.434 200.542 261.772 198.958 262.446 197.602C263.12 196.246 264.067 195.193 265.287 194.443C266.506 193.693 267.934 193.318 269.571 193.318C271.207 193.318 272.635 193.693 273.855 194.443C275.075 195.193 276.022 196.246 276.696 197.602C277.37 198.958 277.707 200.542 277.707 202.352C277.707 204.155 277.37 205.731 276.696 207.08C276.022 208.428 275.075 209.477 273.855 210.227C272.635 210.977 271.207 211.352 269.571 211.352ZM269.582 208.5C270.643 208.5 271.522 208.22 272.218 207.659C272.915 207.098 273.431 206.352 273.764 205.42C274.105 204.489 274.275 203.462 274.275 202.341C274.275 201.227 274.105 200.205 273.764 199.273C273.431 198.333 272.915 197.58 272.218 197.011C271.522 196.443 270.643 196.159 269.582 196.159C268.514 196.159 267.628 196.443 266.923 197.011C266.226 197.58 265.707 198.333 265.366 199.273C265.033 200.205 264.866 201.227 264.866 202.341C264.866 203.462 265.033 204.489 265.366 205.42C265.707 206.352 266.226 207.098 266.923 207.659C267.628 208.22 268.514 208.5 269.582 208.5ZM296.529 200.807V203.75H287.075V200.807H296.529ZM288.029 193.545V211H284.7V193.545H288.029ZM298.904 193.545V211H295.586V193.545H298.904ZM314.172 211.352C312.453 211.352 310.972 210.985 309.729 210.25C308.494 209.508 307.54 208.466 306.866 207.125C306.199 205.777 305.866 204.197 305.866 202.386C305.866 200.598 306.199 199.023 306.866 197.659C307.54 196.295 308.479 195.231 309.684 194.466C310.896 193.701 312.313 193.318 313.934 193.318C314.919 193.318 315.873 193.481 316.797 193.807C317.722 194.133 318.551 194.644 319.286 195.341C320.021 196.038 320.6 196.943 321.025 198.057C321.449 199.163 321.661 200.508 321.661 202.091V203.295H307.786V200.75H318.332C318.332 199.856 318.15 199.064 317.786 198.375C317.422 197.678 316.911 197.129 316.252 196.727C315.6 196.326 314.835 196.125 313.957 196.125C313.002 196.125 312.169 196.36 311.457 196.83C310.752 197.292 310.207 197.898 309.82 198.648C309.441 199.39 309.252 200.197 309.252 201.068V203.057C309.252 204.223 309.457 205.216 309.866 206.034C310.282 206.852 310.862 207.477 311.604 207.909C312.347 208.333 313.214 208.545 314.207 208.545C314.85 208.545 315.438 208.455 315.968 208.273C316.498 208.083 316.957 207.803 317.343 207.432C317.729 207.061 318.025 206.602 318.229 206.057L321.445 206.636C321.188 207.583 320.725 208.413 320.059 209.125C319.4 209.83 318.57 210.379 317.57 210.773C316.578 211.159 315.445 211.352 314.172 211.352ZM326.926 216.034V208.057H328.347C328.71 207.723 329.017 207.326 329.267 206.864C329.525 206.402 329.741 205.852 329.915 205.216C330.097 204.58 330.248 203.837 330.37 202.989C330.491 202.133 330.597 201.155 330.688 200.057L331.233 193.545H343.097V208.057H345.779V216.034H342.46V211H330.29V216.034H326.926ZM331.983 208.057H339.779V196.455H334.279L333.915 200.057C333.741 201.89 333.521 203.481 333.256 204.83C332.991 206.17 332.567 207.246 331.983 208.057ZM359.822 211.352C358.103 211.352 356.622 210.985 355.379 210.25C354.144 209.508 353.19 208.466 352.516 207.125C351.849 205.777 351.516 204.197 351.516 202.386C351.516 200.598 351.849 199.023 352.516 197.659C353.19 196.295 354.129 195.231 355.334 194.466C356.546 193.701 357.963 193.318 359.584 193.318C360.569 193.318 361.523 193.481 362.447 193.807C363.372 194.133 364.201 194.644 364.936 195.341C365.671 196.038 366.25 196.943 366.675 198.057C367.099 199.163 367.311 200.508 367.311 202.091V203.295H353.436V200.75H363.982C363.982 199.856 363.8 199.064 363.436 198.375C363.072 197.678 362.561 197.129 361.902 196.727C361.25 196.326 360.485 196.125 359.607 196.125C358.652 196.125 357.819 196.36 357.107 196.83C356.402 197.292 355.857 197.898 355.47 198.648C355.091 199.39 354.902 200.197 354.902 201.068V203.057C354.902 204.223 355.107 205.216 355.516 206.034C355.932 206.852 356.512 207.477 357.254 207.909C357.997 208.333 358.864 208.545 359.857 208.545C360.5 208.545 361.088 208.455 361.618 208.273C362.148 208.083 362.607 207.803 362.993 207.432C363.379 207.061 363.675 206.602 363.879 206.057L367.095 206.636C366.838 207.583 366.375 208.413 365.709 209.125C365.05 209.83 364.22 210.379 363.22 210.773C362.228 211.159 361.095 211.352 359.822 211.352ZM372.906 211L372.895 208.057H373.52C374.004 208.057 374.41 207.955 374.736 207.75C375.069 207.538 375.342 207.182 375.554 206.682C375.766 206.182 375.929 205.492 376.042 204.614C376.156 203.727 376.239 202.614 376.292 201.273L376.599 193.545H388.781V211H385.451V196.477H379.747L379.474 202.409C379.406 203.848 379.258 205.106 379.031 206.182C378.811 207.258 378.489 208.155 378.065 208.875C377.641 209.587 377.095 210.121 376.429 210.477C375.762 210.826 374.951 211 373.997 211H372.906ZM399.069 199.545H404.137C406.274 199.545 407.918 200.076 409.069 201.136C410.221 202.197 410.796 203.564 410.796 205.239C410.796 206.33 410.539 207.311 410.024 208.182C409.508 209.053 408.755 209.742 407.762 210.25C406.77 210.75 405.561 211 404.137 211H396.512V193.545H399.842V208.068H404.137C405.114 208.068 405.918 207.814 406.546 207.307C407.175 206.792 407.489 206.136 407.489 205.341C407.489 204.5 407.175 203.814 406.546 203.284C405.918 202.746 405.114 202.477 404.137 202.477H399.069V199.545ZM429.636 200.807V203.75H420.181V200.807H429.636ZM421.136 193.545V211H417.806V193.545H421.136ZM432.011 193.545V211H428.692V193.545H432.011ZM443.085 206.239L450.779 193.545H454.438V211H451.108V198.295L443.449 211H439.756V193.545H443.085V206.239ZM462.206 211V193.545H465.604V200.864H467.24L473.001 193.545H477.206L470.445 202.034L477.286 211H473.07L467.808 204.023H465.604V211H462.206ZM488.204 211.386C487.098 211.386 486.098 211.182 485.204 210.773C484.31 210.356 483.602 209.754 483.079 208.966C482.564 208.178 482.307 207.212 482.307 206.068C482.307 205.083 482.496 204.273 482.875 203.636C483.254 203 483.765 202.496 484.409 202.125C485.053 201.754 485.772 201.473 486.568 201.284C487.363 201.095 488.174 200.951 489 200.852C490.045 200.731 490.894 200.633 491.545 200.557C492.197 200.473 492.67 200.341 492.966 200.159C493.261 199.977 493.409 199.682 493.409 199.273V199.193C493.409 198.201 493.129 197.432 492.568 196.886C492.015 196.341 491.189 196.068 490.091 196.068C488.947 196.068 488.045 196.322 487.386 196.83C486.735 197.33 486.284 197.886 486.034 198.5L482.841 197.773C483.219 196.712 483.772 195.856 484.5 195.205C485.235 194.545 486.079 194.068 487.034 193.773C487.988 193.47 488.992 193.318 490.045 193.318C490.742 193.318 491.481 193.402 492.261 193.568C493.049 193.727 493.784 194.023 494.466 194.455C495.155 194.886 495.719 195.504 496.159 196.307C496.598 197.102 496.818 198.136 496.818 199.409V211H493.5V208.614H493.363C493.144 209.053 492.814 209.485 492.375 209.909C491.935 210.333 491.371 210.686 490.682 210.966C489.992 211.246 489.166 211.386 488.204 211.386ZM488.943 208.659C489.882 208.659 490.685 208.473 491.352 208.102C492.026 207.731 492.538 207.246 492.886 206.648C493.242 206.042 493.42 205.394 493.42 204.705V202.455C493.299 202.576 493.064 202.689 492.716 202.795C492.375 202.894 491.985 202.981 491.545 203.057C491.106 203.125 490.678 203.189 490.261 203.25C489.844 203.303 489.496 203.348 489.216 203.386C488.557 203.47 487.954 203.61 487.409 203.807C486.871 204.004 486.439 204.288 486.113 204.659C485.795 205.023 485.636 205.508 485.636 206.114C485.636 206.955 485.947 207.591 486.568 208.023C487.189 208.447 487.981 208.659 488.943 208.659ZM516.212 211V193.545H530.451V211H527.121V196.477H519.519V211H516.212ZM545.546 211.352C543.909 211.352 542.481 210.977 541.262 210.227C540.042 209.477 539.095 208.428 538.421 207.08C537.746 205.731 537.409 204.155 537.409 202.352C537.409 200.542 537.746 198.958 538.421 197.602C539.095 196.246 540.042 195.193 541.262 194.443C542.481 193.693 543.909 193.318 545.546 193.318C547.182 193.318 548.61 193.693 549.83 194.443C551.05 195.193 551.996 196.246 552.671 197.602C553.345 198.958 553.682 200.542 553.682 202.352C553.682 204.155 553.345 205.731 552.671 207.08C551.996 208.428 551.05 209.477 549.83 210.227C548.61 210.977 547.182 211.352 545.546 211.352ZM545.557 208.5C546.618 208.5 547.496 208.22 548.193 207.659C548.89 207.098 549.406 206.352 549.739 205.42C550.08 204.489 550.25 203.462 550.25 202.341C550.25 201.227 550.08 200.205 549.739 199.273C549.406 198.333 548.89 197.58 548.193 197.011C547.496 196.443 546.618 196.159 545.557 196.159C544.489 196.159 543.603 196.443 542.898 197.011C542.201 197.58 541.682 198.333 541.341 199.273C541.008 200.205 540.841 201.227 540.841 202.341C540.841 203.462 541.008 204.489 541.341 205.42C541.682 206.352 542.201 207.098 542.898 207.659C543.603 208.22 544.489 208.5 545.557 208.5ZM227.809 250V232.545H242.048V250H238.718V235.477H231.116V250H227.809ZM260.199 250V235.443H256.018C255.025 235.443 254.252 235.674 253.699 236.136C253.146 236.598 252.87 237.205 252.87 237.955C252.87 238.697 253.124 239.295 253.631 239.75C254.146 240.197 254.866 240.42 255.79 240.42H261.188V243.17H255.79C254.502 243.17 253.389 242.958 252.449 242.534C251.518 242.102 250.798 241.492 250.29 240.705C249.79 239.917 249.54 238.985 249.54 237.909C249.54 236.811 249.798 235.864 250.313 235.068C250.836 234.265 251.582 233.644 252.552 233.205C253.529 232.765 254.684 232.545 256.018 232.545H263.393V250H260.199ZM248.745 250L253.665 241.182H257.143L252.222 250H248.745ZM268.951 235.477V232.545H283.678V235.477H277.985V250H274.666V235.477H268.951ZM302.301 239.807V242.75H292.847V239.807H302.301ZM293.801 232.545V250H290.472V232.545H293.801ZM304.676 232.545V250H301.358V232.545H304.676ZM315.751 245.239L323.444 232.545H327.103V250H323.774V237.295L316.115 250H312.422V232.545H315.751V245.239ZM349.11 232.545V247.216H351.667V255.625H348.315V250H334.872V232.545H338.201V247.068H345.792V232.545H349.11ZM360.782 256.545C360.274 256.545 359.812 256.504 359.395 256.42C358.979 256.345 358.668 256.261 358.464 256.17L359.282 253.386C359.903 253.553 360.456 253.625 360.941 253.602C361.426 253.58 361.854 253.398 362.225 253.057C362.604 252.716 362.937 252.159 363.225 251.386L363.645 250.227L357.259 232.545H360.895L365.316 246.091H365.498L369.918 232.545H373.566L366.373 252.33C366.039 253.239 365.615 254.008 365.1 254.636C364.585 255.273 363.971 255.75 363.259 256.068C362.547 256.386 361.721 256.545 360.782 256.545Z" fill="white"/>
<defs>
<filter id="filter0_d_65_44" x="0" y="0" width="608" height="608" filterUnits="userSpaceOnUse" color-interpolation-filters="sRGB">
<feFlood flood-opacity="0" result="BackgroundImageFix"/>
<feColorMatrix in="SourceAlpha" type="matrix" values="0 0 0 0 0 0 0 0 0 0 0 0 0 0 0 0 0 0 127 0" result="hardAlpha"/>
<feOffset dx="8" dy="8"/>
<feComposite in2="hardAlpha" operator="out"/>
<feColorMatrix type="matrix" values="0 0 0 0 0 0 0 0 0 0 0 0 0 0 0 0 0 0 0.25 0"/>
<feBlend mode="normal" in2="BackgroundImageFix" result="effect1_dropShadow_65_44"/>
<feBlend mode="normal" in="SourceGraphic" in2="effect1_dropShadow_65_44" result="shape"/>
</filter>
<linearGradient id="paint0_linear_65_44" x1="-4.47035e-06" y1="600" x2="446.765" y2="-98.0704" gradientUnits="userSpaceOnUse">
<stop stop-color="#3A3A3A"/>
<stop offset="1" stop-color="#EEEEEE"/>
</linearGradient>
</defs>
</svg>
