<svg width="2925" height="417" viewBox="0 0 2925 417" fill="none" xmlns="http://www.w3.org/2000/svg">
<g opacity="0.2">
<path d="M2921 7.99997L2799.31 57.6588C2677.62 107.318 2434.25 206.635 2190.87 221.459C1947.49 235.541 1704.12 164.388 1460.74 121.4C1218.88 79.1529 975.507 64.3294 732.13 79.1529C488.754 93.2353 245.377 135.482 123.688 156.976L2.00009 178.471" stroke="#FF61F9" stroke-width="16"/>
<path d="M2921 54.4316L2799.31 104.09C2677.62 153.749 2434.25 253.067 2190.87 267.89C1947.49 281.973 1704.12 210.82 1460.74 167.832C1218.88 125.585 975.507 110.761 732.13 125.585C488.754 139.667 245.377 181.914 123.688 203.408L2.00009 224.902" stroke="#A30DFF" stroke-width="16"/>
<path d="M2921 100.863L2799.31 150.522C2677.62 200.181 2434.25 299.498 2190.87 314.322C1947.49 328.404 1704.12 257.251 1460.74 214.263C1218.88 172.016 975.507 157.192 732.13 172.016C488.754 186.098 245.377 228.345 123.688 249.84L2.00009 271.334" stroke="#00ACC1" stroke-width="16"/>
<path d="M2921 147.295L2799.31 196.953C2677.62 246.612 2434.25 345.93 2190.87 360.754C1947.49 374.836 1704.12 303.683 1460.74 260.695C1218.88 218.448 975.507 203.624 732.13 218.448C488.754 232.53 245.377 274.777 123.688 296.271L2.00009 317.765" stroke="#5B4DFF" stroke-width="16"/>
<path d="M2921 193.726L2799.31 243.385C2677.62 293.044 2434.25 392.362 2190.87 407.185C1947.49 421.268 1704.12 350.115 1460.74 307.126C1218.88 264.879 975.507 250.056 732.13 264.879C488.754 278.962 245.377 321.209 123.688 342.703L2.00009 364.197" stroke="#FFAA47" stroke-width="16"/>
</g>
</svg>
