<svg width="2925" height="417" viewBox="0 0 2925 417" fill="none" xmlns="http://www.w3.org/2000/svg">
<path d="M4 409L125.688 359.341C247.377 309.682 490.754 210.365 734.13 195.541C977.507 181.459 1220.88 252.612 1464.26 295.6C1706.12 337.847 1949.49 352.671 2192.87 337.847C2436.25 323.765 2679.62 281.518 2801.31 260.024L2923 238.529" stroke="#FF61F9" stroke-width="16"/>
<path d="M4 362.568L125.688 312.91C247.377 263.251 490.754 163.933 734.13 149.11C977.507 135.027 1220.88 206.18 1464.26 249.168C1706.12 291.415 1949.49 306.239 2192.87 291.415C2436.25 277.333 2679.62 235.086 2801.31 213.592L2923 192.098" stroke="#A30DFF" stroke-width="16"/>
<path d="M4 316.137L125.688 266.478C247.377 216.819 490.754 117.502 734.13 102.678C977.507 88.5958 1220.88 159.749 1464.26 202.737C1706.12 244.984 1949.49 259.808 2192.87 244.984C2436.25 230.902 2679.62 188.655 2801.31 167.16L2923 145.666" stroke="#00ACC1" stroke-width="16"/>
<path d="M4 269.705L125.688 220.047C247.377 170.388 490.754 71.07 734.13 56.2465C977.507 42.1641 1220.88 113.317 1464.26 156.305C1706.12 198.552 1949.49 213.376 2192.87 198.552C2436.25 184.47 2679.62 142.223 2801.31 120.729L2923 99.2347" stroke="#5B4DFF" stroke-width="16"/>
<path d="M4 223.274L125.688 173.615C247.377 123.956 490.754 24.6384 734.13 9.81485C977.507 -4.2675 1220.88 66.8854 1464.26 109.874C1706.12 152.121 1949.49 166.944 2192.87 152.121C2436.25 138.038 2679.62 95.7913 2801.31 74.2972L2923 52.8031" stroke="#FFAA47" stroke-width="16"/>
</svg>
